<svg width="40" height="40" viewBox="0 0 40 40" fill="none" xmlns="http://www.w3.org/2000/svg">
<rect x="1" y="1" width="38" height="38" rx="19" stroke="white" stroke-width="2"/>
<g clip-path="url(#clip0_1_2805)">
<path d="M15.7701 24.0225H10.8438C9.76681 24.0225 8.89062 23.1463 8.89062 22.0693V17.926C8.89062 16.8491 9.76681 15.9729 10.8438 15.9729H15.7701C16.1297 15.9729 16.4212 16.2644 16.4212 16.6239V23.3714C16.4212 23.731 16.1297 24.0225 15.7701 24.0225Z" fill="white"/>
<path d="M21.7372 11.4853C21.6266 11.4322 21.5033 11.4114 21.3814 11.4253C21.2595 11.4393 21.144 11.4873 21.0483 11.564L15.5421 15.9734V24.0234L21.0483 28.4327C21.144 28.5094 21.2595 28.5575 21.3814 28.5714C21.5033 28.5854 21.6266 28.5646 21.7372 28.5114C21.8477 28.4583 21.941 28.3751 22.0064 28.2712C22.0717 28.1674 22.1063 28.0472 22.1063 27.9246V12.0722C22.1063 11.9495 22.0717 11.8293 22.0064 11.7255C21.941 11.6217 21.8477 11.5384 21.7372 11.4853Z" fill="white"/>
<path d="M28.7726 27.1076C28.6647 27.1076 28.5553 27.0807 28.4545 27.0242C28.141 26.8481 28.0295 26.4513 28.2055 26.1378C29.255 24.2683 29.8097 22.1436 29.8097 19.9933C29.8097 17.8433 29.2551 15.7188 28.2058 13.8495C28.0298 13.5359 28.1413 13.139 28.4549 12.9631C28.7684 12.787 29.1653 12.8986 29.3413 13.2121C30.4995 15.2757 31.1118 17.6206 31.1118 19.9934C31.1118 22.3665 30.4995 24.7116 29.341 26.7752C29.2215 26.9879 29.0004 27.1076 28.7726 27.1076Z" fill="white"/>
<path d="M26.4215 25.2545C26.3231 25.2545 26.2234 25.2321 26.1296 25.185C25.8083 25.0235 25.6788 24.6321 25.8403 24.3109C26.5181 22.9624 26.8618 21.5101 26.8618 19.9945C26.8618 18.4791 26.5182 17.027 25.8405 15.6787C25.6791 15.3574 25.8086 14.9661 26.1299 14.8046C26.4511 14.6431 26.8425 14.7727 27.004 15.094C27.7736 16.6254 28.1639 18.2742 28.1639 19.9945C28.1639 21.7151 27.7736 23.3641 27.0037 24.8957C26.8893 25.1231 26.6597 25.2545 26.4215 25.2545ZM24.0386 23.3763C23.9557 23.3763 23.8736 23.3604 23.7967 23.3294C23.4629 23.1957 23.3007 22.8167 23.4344 22.4829C23.7515 21.6914 23.9123 20.8542 23.9123 19.9945C23.9123 19.135 23.7516 18.298 23.4347 17.5066C23.301 17.1728 23.4633 16.7938 23.797 16.6602C24.1308 16.5265 24.5098 16.6888 24.6434 17.0225C25.0223 17.9686 25.2144 18.9685 25.2144 19.9945C25.2144 21.0208 25.0222 22.021 24.6432 22.9672C24.5412 23.2216 24.2968 23.3763 24.0386 23.3763Z" fill="white"/>
</g>
<defs>
<clipPath id="clip0_1_2805">
<rect width="22.2222" height="22.2222" fill="white" transform="translate(8.89062 8.88867)"/>
</clipPath>
</defs>
</svg>
