<svg width="32" height="32" viewBox="0 0 32 32" fill="none" xmlns="http://www.w3.org/2000/svg">
<g clip-path="url(#clip0_1_2787)">
<path d="M9.83522 28.4711L14.2944 17.706L10.7135 16.2227L5.57585 28.6256C5.35941 29.1482 5.8491 29.6867 6.38978 29.5208L9.30297 28.6268C9.38542 28.6009 9.47224 28.592 9.55822 28.6005L9.83522 28.4711Z" fill="#F2BE22"/>
<path d="M14.1041 17.625L9.55859 28.5986C9.66955 28.6083 9.77631 28.6456 9.86917 28.7072C9.96203 28.7687 10.038 28.8524 10.0903 28.9508L11.518 31.6429C11.783 32.1426 12.5101 32.1081 12.7266 31.5856L17.8642 19.1826L14.1041 17.625Z" fill="#F2BE22"/>
<path d="M17.9968 17.5859L14.1367 19.1849L19.2743 31.5879C19.4908 32.1105 20.2178 32.145 20.4829 31.6453L21.9107 28.9532C21.9534 28.8724 22.0123 28.8013 22.0837 28.7442L22.4333 28.3024L17.9968 17.5859Z" fill="#F2BE22"/>
<path d="M26.4236 28.6257L21.286 16.2227L17.5391 17.7747L22.0829 28.7442C22.1679 28.6762 22.2682 28.6299 22.3752 28.6094C22.4821 28.5889 22.5924 28.5949 22.6965 28.6268L25.6097 29.5208C26.1504 29.6868 26.6401 29.1482 26.4236 28.6257Z" fill="#F2BE22"/>
<path d="M12.6551 1.28338C13.0555 1.40771 13.4801 1.43243 13.8922 1.35539C14.3043 1.27835 14.6914 1.10188 15.0198 0.84131C15.5934 0.386221 16.4049 0.38624 16.9784 0.841308L16.9784 0.841325C17.3068 1.10188 17.6939 1.27833 18.106 1.35537C18.5181 1.4324 18.9427 1.4077 19.3431 1.28339L19.3431 1.28338C20.0423 1.06623 20.799 1.35937 21.1694 1.99092C21.3815 2.35252 21.6787 2.65688 22.0351 2.87758C22.3916 3.09827 22.7965 3.22863 23.2147 3.25733L23.2489 2.7585M12.6551 1.28338L12.8033 0.806178L12.6551 1.28338C12.6551 1.28338 12.6551 1.28338 12.6551 1.28338ZM12.6551 1.28338C11.9559 1.06628 11.1992 1.3594 10.8288 1.99092L10.3975 1.73794C10.8855 0.906 11.8823 0.519875 12.8034 0.805875C13.126 0.906069 13.4682 0.92599 13.8003 0.863907C14.1324 0.801823 14.4443 0.659613 14.709 0.449625C15.4646 -0.149875 16.5336 -0.149875 17.2892 0.449625C17.5538 0.659599 17.8658 0.8018 18.1979 0.863883C18.5299 0.925965 18.8722 0.906053 19.1948 0.805875C20.1159 0.519812 21.1127 0.906 21.6007 1.73794C21.7716 2.02934 22.0111 2.27462 22.2983 2.45247C22.5856 2.63032 22.9119 2.73537 23.2489 2.7585M23.2489 2.7585L23.2147 3.25733C23.9451 3.30743 24.5448 3.8541 24.6621 4.57686L23.2489 2.7585ZM28.0046 10.2181L27.6432 10.5636C28.1493 11.0928 28.2241 11.9008 27.8239 12.5139C27.5948 12.865 27.4548 13.2666 27.4161 13.6841C27.3774 14.1015 27.4412 14.5221 27.602 14.9093C27.8827 15.5855 27.6606 16.366 27.066 16.7931C26.7255 17.0377 26.4499 17.3617 26.263 17.7369C26.0761 18.1122 25.9837 18.5274 25.9937 18.9465C26.0112 19.6785 25.5222 20.326 24.8134 20.5095C24.4075 20.6146 24.0335 20.8171 23.7237 21.0996C23.4138 21.382 23.1777 21.7358 23.0356 22.1302L23.0356 22.1302C22.7875 22.819 22.0976 23.2462 21.3703 23.1613C20.9539 23.1126 20.532 23.1663 20.141 23.3178C19.7501 23.4692 19.4021 23.7138 19.1271 24.0303L19.1271 24.0303C18.6469 24.583 17.8493 24.7321 17.2019 24.3902C16.8312 24.1944 16.4183 24.0921 15.9991 24.0921C15.5798 24.0921 15.167 24.1944 14.7963 24.3902L15.0297 24.8323L14.7962 24.3902C14.1488 24.7321 13.3512 24.583 12.871 24.0303L12.4936 24.3582L12.871 24.0303C12.5961 23.7138 12.248 23.4692 11.8571 23.3178C11.4662 23.1663 11.0442 23.1126 10.6278 23.1613C9.90058 23.2462 9.21068 22.8191 8.96253 22.1302C8.82048 21.7358 8.58429 21.382 8.27448 21.0995C7.96466 20.8171 7.59059 20.6146 7.18473 20.5095L7.05944 20.9936L7.18473 20.5095C6.47592 20.326 5.98691 19.6785 6.00442 18.9465L5.50456 18.9346L6.00442 18.9465C6.01443 18.5274 5.92199 18.1122 5.73513 17.7369C5.54826 17.3617 5.27262 17.0377 4.93213 16.7931L4.64171 17.1974L4.93213 16.7931C4.33748 16.366 4.11543 15.5855 4.39616 14.9093C4.39616 14.9093 4.39616 14.9093 4.39616 14.9093L3.93437 14.7176C4.06392 14.4055 4.11533 14.0666 4.08416 13.7302C4.05299 13.3938 3.94017 13.0701 3.7555 12.7872C3.22831 11.9795 3.32694 10.9151 3.99356 10.2181C4.22706 9.9739 4.39743 9.67643 4.48989 9.35149C4.58235 9.02655 4.5941 8.68395 4.52412 8.35344M4.52412 8.35344L4.52425 8.35341L4.52412 8.35344Z" stroke="white"/>
<path d="M21.6636 12.5348C21.6636 8.30328 18.9337 4.70953 15.1391 3.41797C10.4859 3.85222 6.84375 7.76816 6.84375 12.5348C6.84375 17.3015 10.4859 21.2175 15.1391 21.6517C18.9337 20.3602 21.6636 16.7665 21.6636 12.5348Z" fill="white"/>
<path d="M16.0003 3.37891C15.3141 3.37858 14.6301 3.45514 13.9609 3.60716C18.0364 4.53416 21.0784 8.1796 21.0784 12.5358C21.0784 16.892 18.0364 20.5374 13.9609 21.4644C14.6301 21.6164 15.3141 21.693 16.0003 21.6927C21.0575 21.6927 25.1572 17.593 25.1572 12.5358C25.1572 7.4786 21.0575 3.37891 16.0003 3.37891Z" fill="white"/>
<path d="M19.4145 18.1781C19.7641 18.4134 20.217 18.0843 20.1012 17.6792L19.9115 17.015C19.7082 17.3764 19.4807 17.7236 19.2305 18.0542L19.4145 18.1781ZM21.9482 10.3805L20.8147 10.3398C20.9551 10.911 21.0401 11.4943 21.0685 12.0817L22.2105 11.1878C22.5422 10.9281 22.3692 10.3957 21.9482 10.3805Z" fill="#E8AE4D"/>
<path d="M16.2521 16.0492L19.4125 18.1766C19.5368 18.2602 19.6741 18.2725 19.7943 18.2355C19.9061 18.0836 20.0135 17.9284 20.1162 17.7702C20.1136 17.7389 20.108 17.7079 20.0993 17.6777L19.0527 14.0146C19.028 13.9282 19.0296 13.8364 19.0574 13.7509C19.0852 13.6654 19.1378 13.5901 19.2086 13.5347L21.6222 11.6453C21.5827 11.2127 21.5138 10.7834 21.4162 10.3601L18.1389 10.2425C18.0491 10.2393 17.9623 10.2094 17.8896 10.1566C17.8168 10.1037 17.7615 10.0304 17.7307 9.94598L16.4242 6.36717C16.2797 5.97136 15.7199 5.97136 15.5754 6.36717L14.269 9.94586C14.2382 10.0303 14.1829 10.1036 14.1101 10.1564C14.0374 10.2093 13.9506 10.2392 13.8608 10.2424L10.0535 10.379C9.63241 10.3941 9.45948 10.9265 9.79123 11.1862L12.7911 13.5346C12.8619 13.59 12.9145 13.6653 12.9423 13.7508C12.9701 13.8362 12.9717 13.9281 12.947 14.0145L11.9004 17.6776C11.7847 18.0828 12.2375 18.4118 12.5871 18.1765L15.7475 16.0492C15.8221 15.999 15.91 15.9722 15.9998 15.9723C16.0897 15.9723 16.1775 15.9991 16.2521 16.0492Z" fill="#F2BE22"/>
</g>
<defs>
<clipPath id="clip0_1_2787">
<rect width="32" height="32" fill="white"/>
</clipPath>
</defs>
</svg>
