<svg width="220" height="193" viewBox="0 0 220 193" fill="none" xmlns="http://www.w3.org/2000/svg">
<g clip-path="url(#clip0_760_589)">
<path d="M208.683 22.43C202.626 20.053 193.974 21.6285 190.561 28.3244C188.352 32.6598 189.728 36.7777 190.391 38.7553L190.49 39.05C190.951 40.4493 191.137 41.9311 191.129 43.5259C190.756 42.9861 190.383 42.4352 189.989 41.8513C188.81 40.1022 187.59 38.2953 186.135 36.4967C179.807 28.677 172.72 22.0251 165.068 16.7257C152.756 8.19803 138.346 2.67822 123.396 0.766669C115.116 -0.29102 106.664 -0.255213 98.2744 0.879599C98.0332 0.912652 97.792 0.945704 97.5509 0.981512C82.4881 3.1327 68.0721 8.86184 55.8651 17.5492C53.8973 18.9485 52.0857 20.4165 50.3317 21.8351L49.6054 22.4217C46.4317 24.9833 43.2607 28.0297 39.9034 31.7426C39.5224 32.1641 39.1716 32.6048 38.8509 33.0565C34.1452 33.0069 29.6066 34.2684 25.3257 36.8272C21.0968 39.3585 17.2873 42.7327 14.0094 46.8588C13.7024 47.2471 13.3982 47.6383 13.1105 48.0211C6.36564 56.9564 2.30669 67.649 0.695171 80.7131C-0.708058 92.0887 0.0154816 103.462 2.84387 114.518C6.08335 127.18 10.8384 136.903 17.3777 144.243C19.4497 146.568 21.7244 148.656 24.1444 150.449C28.2253 153.473 31.9143 155.619 36.779 157.032L37.4258 157.77C37.4258 157.77 41.9918 163.747 48.7503 169.705C48.7503 169.705 48.753 169.705 48.7558 169.708C49.8274 170.619 50.8716 171.459 51.839 172.228C60.675 179.254 70.6127 184.612 81.3754 188.148C86.125 189.71 90.6471 190.837 95.1939 191.591C100.311 192.442 105.551 192.875 110.78 192.875C110.884 192.875 110.986 192.875 111.09 192.875C131.039 192.809 150.871 186.383 166.928 174.779C183.063 163.122 195.349 146.4 201.839 127.384L206.534 114.267C206.685 114.143 206.833 114.017 206.981 113.887C211.829 109.593 213.493 102.217 210.936 96.3498C210.922 96.314 210.903 96.2837 210.889 96.2479C212.12 94.744 212.925 92.9426 213.177 91.0228C213.687 87.1363 211.846 84.2635 211.059 83.0378C211.023 82.9827 210.988 82.9304 210.955 82.8753C210.757 82.0132 211.045 79.6939 211.144 78.9117C211.451 76.4438 212.117 73.7334 212.764 71.1112L212.802 70.957C213.495 68.142 214.372 65.3463 215.302 62.3881C215.828 60.7079 216.373 58.9726 216.888 57.2098L217.034 56.7112C218.19 52.7697 219.939 46.8119 220.005 40.9864C220.142 28.7569 212.975 24.1074 208.688 22.4245L208.683 22.43Z" fill="white"/>
<path d="M78.0049 88.2279C77.9857 85.7379 77.9692 83.2479 77.6732 80.7662C77.5444 79.6782 76.5742 77.1717 74.9983 78.1027C74.6886 78.2845 74.4639 78.5847 74.2748 78.8932C72.5427 81.722 72.4988 85.7875 72.3015 89.0129C71.8465 96.3726 74.2282 104.669 79.3231 110.09C80.255 111.081 81.3649 112.186 81.2443 113.544C81.0991 115.188 79.2245 116.287 77.8432 116.854C74.3077 118.311 70.2624 117 67.8123 114.161C66.3597 112.478 65.3977 110.555 64.6386 108.489C63.8109 106.231 63.3833 103.889 62.9585 101.532C62.6324 99.7192 62.4433 97.9013 62.3336 96.0696C62.1829 93.5411 62.013 91.0153 61.8951 88.4868C61.854 87.6329 61.9253 86.768 61.9828 85.9114C62.2131 82.5208 62.1528 79.1301 62.0322 75.7367C61.95 73.3927 61.8431 71.0487 61.7005 68.7047C61.506 65.5206 61.0236 62.3751 60.1548 59.3067C59.8478 58.2215 59.2997 57.2051 58.8585 56.1584C58.6419 55.6461 58.3871 55.1476 58.198 54.627C57.8143 53.561 58.0061 52.5612 58.6666 51.6605C59.963 49.8867 61.7389 49.2091 63.8821 49.4212C65.4251 49.5727 66.6886 50.3053 67.7876 51.3575C69.4923 52.9936 70.5064 55.0291 71.1395 57.2822C71.5314 58.6759 71.7314 60.1027 71.8191 61.5378C71.9425 63.5319 72.0329 65.5289 71.8575 67.5286C71.8109 68.0602 71.8137 68.6 71.8548 69.1289C71.8685 69.3244 72.022 69.5696 72.1837 69.6687C72.2686 69.7211 72.5701 69.5393 72.677 69.3933C72.9373 69.0407 73.1648 68.6606 73.3649 68.2695C74.072 66.8758 75.0751 65.7382 76.2947 64.7824C79.06 62.612 83.9247 63.273 85.8761 66.2147C88.1015 69.5696 87.8439 74.1419 87.4081 77.954C87.0217 81.3143 86.5942 84.8124 87.6301 88.1039C88.0961 89.5858 89.291 91.2715 90.749 89.7263C91.2698 89.1754 91.5849 88.5033 91.8097 87.7872C92.4017 85.8949 92.7908 83.9806 92.7059 81.9671C92.5853 79.1604 92.5634 76.3482 92.4949 73.5414C92.4483 71.6023 92.6511 69.6743 93.1033 67.804C94.0954 63.6917 95.8741 59.9788 98.9903 57.0233C101.934 54.2303 107.163 53.3049 109.841 56.96C111.707 59.5078 111.833 63.2207 111.236 66.212C110.638 69.2032 109.205 72.2083 107.089 74.4862C106.324 75.3097 105.409 75.9322 104.4 76.428C101.923 77.651 103.395 80.5569 104.905 81.9644C105.384 82.4106 105.954 82.7879 106.598 82.8954C108.895 83.2782 110.772 80.7304 111.806 79.0337C112.943 77.1662 113.831 75.1748 114.771 73.2054C115.865 70.9082 116.369 68.4788 116.706 65.9778C117.23 62.0941 118.257 58.1388 120.381 54.806C122.374 51.6798 126.082 48.2698 130.067 48.8097C131.314 48.9777 132.459 49.5561 133.41 50.3742C138.251 54.5443 136.606 62.4963 133.641 67.2311C133.238 67.8756 132.764 68.4871 132.254 69.049C131.322 70.0736 130.144 70.6879 128.79 70.9716C128.337 71.068 127.883 71.1644 127.452 71.3241C126.718 71.5968 126.361 72.1284 126.496 72.8997C126.748 74.354 127.208 75.7477 128.181 76.8908C129.48 78.4167 131.443 78.9042 133.342 78.2542C135.123 77.6427 136.502 76.4556 137.804 75.1472C140.542 72.3956 142.285 68.914 144.154 65.5537C144.403 65.1047 144.661 64.6282 144.669 64.1131C144.683 63.2427 144.006 62.5431 143.441 61.8821C140.89 58.8853 139.991 54.5526 141.139 50.7818C142.101 47.6198 144.973 44.7029 148.24 45.0775C150.159 45.2978 151.853 46.6502 152.727 48.3828C153.601 50.1153 153.708 52.1728 153.275 54.0651C153.064 54.9906 152.85 56.219 153.686 56.6652C154.037 56.8525 154.464 56.8085 154.854 56.7286C156.364 56.4146 157.764 55.6048 159.302 55.5056C161.818 55.3431 164.268 57.4282 164.528 59.9485C164.83 62.8847 162.596 65.3664 161.037 67.8674C159.315 70.6245 158.307 73.8251 158.131 77.0753C157.994 79.5901 158.627 82.5345 160.88 83.6363C162.977 84.6609 165.479 83.6087 167.411 82.3004C168.9 81.2923 170.278 80.1244 171.52 78.8216C171.879 78.447 172.238 78.0311 172.334 77.5188C172.476 76.7503 171.988 76.0204 171.55 75.3731C169.681 72.6022 168.324 69.4291 168.001 66.099C167.677 62.769 168.445 59.2736 170.448 56.6019C171.772 54.8336 173.614 53.4564 175.68 52.6906C178.399 51.6825 181.636 51.801 183.993 53.4949C186.55 55.3321 187.668 58.7255 187.424 61.8738C187.18 65.0221 185.76 67.9638 184.072 70.6273C183.603 71.3655 183.091 72.1835 183.222 73.0511C183.313 73.6433 183.694 74.1446 184.056 74.6212C187.78 79.546 190.792 85.187 191.683 91.3073C192.574 97.4276 191.121 104.082 186.911 108.597C182.702 113.111 175.543 114.951 170.064 112.128C166.219 110.145 163.569 106.043 163.246 101.713C163.021 98.7331 163.879 95.6427 165.778 93.3428C167.677 91.0429 170.645 89.6106 173.616 89.7731C174.523 89.8227 175.518 90.0761 176.02 90.8363C176.365 91.3624 176.406 92.0234 176.497 92.6459C176.711 94.125 177.5 95.7694 178.966 96.0201C180.257 96.2404 181.509 95.1855 181.912 93.9322C182.318 92.679 182.063 91.3101 181.666 90.054C180.769 87.2115 179.163 84.5976 177.031 82.5235C176.683 82.1847 176.277 81.8404 175.792 81.8294C175.214 81.8129 174.743 82.2701 174.345 82.6943C171.122 86.1538 167.913 89.7841 163.75 92.0042C159.803 94.1085 154.76 94.7117 150.811 92.3044C147.355 90.1973 145.686 85.7241 145.796 81.8019C145.935 76.7145 148.199 72.1505 150.403 67.6801L150.414 67.6553C150.723 67.03 151 66.1899 150.499 65.7052C150.131 65.3471 149.501 65.4132 149.084 65.7107C148.668 66.0082 148.413 66.4792 148.172 66.9309C146.229 70.586 144.121 74.0758 141.844 77.5325C140.207 80.017 138.218 82.4492 136.042 84.4736C132.216 88.0323 126.778 90.189 121.987 87.1261C120.198 85.983 118.995 84.3166 118.202 82.35C118.038 81.9423 117.92 81.5071 117.712 81.1243C117.339 80.4357 116.742 80.4302 116.421 81.1436C116.021 82.0305 115.7 82.9532 115.369 83.8704C114.664 85.8178 113.817 87.6963 112.735 89.4674C111.707 91.1503 110.465 92.6432 108.848 93.7752C108.172 94.249 107.44 94.6814 106.678 94.9954C103.466 96.3148 100.276 95.6234 97.8364 93.1279C97.4171 92.6983 97.0499 92.2135 96.6442 91.77C96.3674 91.467 96.1043 91.0539 95.6137 91.2274C95.1698 91.3844 95.1752 91.8361 95.1396 92.23C94.8162 95.7336 94.29 99.5071 92.4208 102.559C90.5517 105.611 87.1861 107.197 83.8617 105.269C82.4174 104.432 81.2389 103.297 80.4057 101.821C79.3094 99.879 78.6215 97.8159 78.3447 95.5876C78.0405 93.1362 78.0158 90.6765 77.9966 88.2141L78.0049 88.2279ZM131.599 57.5797C131.533 57.2492 131.497 56.7286 131.319 56.2631C130.988 55.3982 130.185 55.2274 129.475 55.8306C129.267 56.0097 129.069 56.219 128.927 56.4531C128.661 56.8883 128.42 57.3373 128.206 57.8C127.381 59.5794 126.942 61.4827 126.529 63.3887C126.435 63.8156 126.383 64.2646 126.392 64.6998C126.411 65.8346 127.233 66.3387 128.239 65.8264C128.601 65.6418 128.94 65.3691 129.217 65.0661C129.524 64.7274 129.787 64.3307 130.001 63.9231C131.007 61.995 131.377 59.8989 131.602 57.5769L131.599 57.5797ZM102.106 68.7818C102.106 69.1289 102.084 69.4787 102.112 69.8257C102.148 70.2802 102.279 70.7044 102.745 70.9C103.219 71.0983 103.622 70.8834 103.943 70.5749C104.291 70.2417 104.617 69.8698 104.872 69.4622C105.82 67.9528 106.22 66.2671 106.28 64.507C106.305 63.7495 106.228 62.9783 106.105 62.2291C106.001 61.5984 105.73 60.9676 105.006 60.8629C104.25 60.7528 103.839 61.3091 103.512 61.8903C103.332 62.2126 103.194 62.5596 103.066 62.9067C102.356 64.799 102.274 66.8014 102.106 68.7818ZM181.767 61.9371C181.742 61.7498 181.726 61.5653 181.69 61.3835C181.575 60.8023 181.312 60.3203 180.684 60.1964C180.109 60.0834 179.698 60.4112 179.421 60.8602C179.144 61.3064 178.881 61.7857 178.73 62.2842C178.314 63.6614 178.341 65.0689 178.577 66.4764C178.604 66.6334 178.656 66.7931 178.73 66.9336C179.035 67.5341 179.547 67.614 180.008 67.1375C180.087 67.0548 180.164 66.9639 180.221 66.8648C181.118 65.3416 181.498 63.6559 181.77 61.9344L181.767 61.9371ZM148.268 52.5694C148.018 52.5777 147.796 52.8614 147.807 53.1589C147.818 53.4371 148.032 53.6877 148.257 53.6795C148.498 53.674 148.72 53.3792 148.714 53.0818C148.709 52.7953 148.506 52.5612 148.27 52.5694H148.268Z" fill="black"/>
<path d="M23.7352 84.9818C23.7571 94.8095 25.7961 105.094 29.4632 114.209C32.5382 121.852 37.4961 129.989 45.2111 133.608C55.1351 138.263 66.7721 135.993 74.9009 128.928C79.4998 124.929 84.0082 120.825 88.555 116.765C93.121 112.688 97.6678 108.595 102.261 104.552C103.632 103.345 105.101 102.238 106.589 101.178C109.908 98.8089 113.303 96.5585 116.913 94.647C120.827 92.5757 124.929 91.047 129.301 90.3308C131.773 89.9259 134.272 89.8598 136.766 90.1518C139.069 90.4217 141.332 90.9093 143.456 91.865C151.92 95.6744 160.292 106.576 156.466 116.186C154.23 121.803 148.62 124.733 143.018 125.948C141.13 126.358 139.238 126.598 137.309 126.482C135.769 126.389 134.286 126.042 132.943 125.254C131.46 124.383 130.748 123.072 130.997 121.343C131.088 120.715 131.301 120.059 131.628 119.519C132.346 118.329 133.173 117.208 133.946 116.054C134.579 115.112 135.311 114.217 135.802 113.203C137.18 110.366 137.002 107.576 135.196 104.962C134.352 103.739 133.162 102.946 131.729 102.549C129.805 102.015 127.862 101.684 125.845 101.77C124.532 101.825 123.285 102.144 122.03 102.442C119.648 103.004 117.447 104.042 115.312 105.207C110.96 107.582 107.046 110.57 103.379 113.903C100.477 116.542 97.761 119.362 95.1546 122.296C92.6743 125.086 90.183 127.868 87.6259 130.586C84.9236 133.459 82.0157 136.117 79.0202 138.684C76.4631 140.874 73.8184 142.945 70.9434 144.692C67.9122 146.534 64.7878 148.217 61.3373 149.132C58.7008 149.829 56.0204 150.322 53.2934 150.536C50.7226 150.74 48.1601 150.68 45.6085 150.36C39.527 149.597 33.9634 147.46 29.0219 143.796C27.0103 142.306 25.1768 140.61 23.4995 138.728C16.9492 131.377 13.2219 121.907 10.8019 112.457C8.24482 102.458 7.58706 91.9725 8.85051 81.7261C10.1331 71.32 13.2986 61.4372 19.6543 53.0115C19.9064 52.6755 20.164 52.3449 20.4271 52.0144C22.9897 48.789 25.9907 46.0429 29.5262 43.9275C32.9877 41.8562 36.7397 40.95 40.763 41.4485C45.6853 42.06 49.3907 45.9795 51.4023 50.3177C55.686 59.5559 55.1735 70.8875 50.6651 79.9027C49.6373 81.9602 48.4123 83.9158 47.0227 85.7448C45.6798 87.5103 43.9861 89.1051 42.0237 90.1518C40.4698 90.9809 38.6856 91.3775 37.0138 90.6724C35.9449 90.2206 35.035 89.5568 34.2977 88.6699C31.9545 85.8439 30.6033 80.0321 34.3251 77.7074C36.1148 76.5891 38.8253 77.2199 39.6695 74.8731C40.1107 73.6474 40.478 72.4107 40.6561 71.1106C40.8425 69.7334 41.196 68.3755 41.3632 66.9956C41.8182 63.211 42.4293 58.5093 40.9795 54.868C40.5109 53.6918 39.6119 52.6066 38.3814 52.2127C37.4605 51.918 36.441 52.0502 35.5475 52.4248C33.0781 53.4687 31.3625 55.989 30.0415 58.2201C28.3422 61.0929 27.2131 64.277 26.2347 67.4583C24.6505 72.6035 23.8585 77.9829 23.7434 83.3622C23.7324 83.9021 23.7269 84.4447 23.7269 84.9845L23.7352 84.9818Z" fill="black"/>
<path d="M111.271 167.275C102.674 167.185 94.2899 165.763 86.0815 163.26C85.0017 162.932 83.9657 162.45 82.9297 161.99C79.8602 160.629 76.8783 159.095 74.0143 157.335C73.0688 156.754 72.1534 156.117 71.2709 155.445C70.1198 154.569 70.1527 153.724 71.3367 152.892C71.9424 152.468 72.5809 152.09 73.2168 151.708C75.9218 150.08 78.3967 148.138 80.8331 146.133C85.8623 141.998 90.4173 137.385 94.7284 132.52C97.9898 128.841 101.273 125.183 104.817 121.77C108.843 117.889 113.231 114.509 118.211 111.937C120.663 110.67 123.231 109.794 125.983 109.56C127.4 109.439 128.806 109.681 130.119 110.237C131.275 110.728 131.865 111.951 131.547 113.168C131.385 113.785 131.108 114.394 130.774 114.939C130.338 115.647 129.801 116.294 129.291 116.955C128.093 118.503 127.005 120.128 126.35 121.982C125.457 124.522 125.564 126.987 127.088 129.312C128.801 131.923 131.256 133.385 134.252 133.876C139.854 134.793 145.201 133.956 150.249 131.287C152.264 130.221 154.094 128.882 155.92 127.535C156.325 127.235 156.687 126.86 157.016 126.475C157.827 125.522 158.636 124.563 159.389 123.563C160.702 121.831 161.393 119.814 161.897 117.721C161.966 117.429 162.045 117.132 162.185 116.87C162.453 116.369 162.914 116.206 163.418 116.462C163.783 116.65 164.117 116.914 164.432 117.181C166.597 119.016 169.075 120.219 171.826 120.825C172.769 121.032 173.75 121.065 174.712 121.181C175.124 121.23 175.546 121.249 175.946 121.351C176.686 121.539 177.023 122.037 176.941 122.797C176.908 123.092 176.831 123.395 176.719 123.671C175.373 126.965 173.742 130.108 171.975 133.193C167.94 140.23 162.429 145.948 156.248 151.049C148.128 157.754 138.977 162.466 128.77 165.061C124.909 166.042 120.99 166.7 117.016 166.967C115.103 167.096 113.184 167.171 111.268 167.267L111.271 167.275Z" fill="#EE7E56"/>
<path d="M168.023 54.1425C167.984 54.8146 167.62 55.3572 167.009 55.7263C166.428 56.0761 165.849 55.9714 165.312 55.6106C165.005 55.404 164.72 55.1644 164.43 54.9358C163.194 53.9635 161.801 53.3988 160.231 53.2969C158.6 53.1922 158.101 52.8149 157.635 51.2063C157.03 49.1212 155.964 47.3281 154.336 45.9014C152.223 44.0504 149.819 42.9514 146.947 43.0698C144.864 43.158 143.041 43.9733 141.334 45.075C140.136 45.8463 139.122 46.8296 138.33 48.0305C138.229 48.1847 138.122 48.3362 138.007 48.485C137.261 49.4573 136.584 49.5922 135.551 48.9642C135.236 48.7714 134.937 48.5511 134.622 48.3555C132.849 47.2565 130.927 46.6395 128.836 46.7111C127.088 46.769 125.405 47.1766 123.835 47.9782C120.554 49.6556 118.016 52.1373 116.065 55.2525C115.793 55.685 115.536 56.1312 115.21 56.5196C114.645 57.1861 113.987 57.2137 113.332 56.6407C113.14 56.4727 112.973 56.2799 112.803 56.0899C110.838 53.9194 108.44 52.6662 105.499 52.388C103.584 52.2089 101.83 52.6689 100.106 53.3713C98.3929 54.0681 96.9102 55.1396 95.5782 56.4204C93.5912 58.3292 91.8975 60.4638 90.6285 62.9263C90.4175 63.3394 90.2037 63.7554 89.9351 64.1327C89.4555 64.8075 88.8224 64.9287 88.1153 64.5073C87.8385 64.342 87.5809 64.141 87.3342 63.9316C84.7991 61.7887 81.8556 61.1635 78.6353 61.5546C78.2461 61.6014 77.8515 61.6455 77.4623 61.64C76.7442 61.6262 76.2317 61.2709 75.9659 60.5988C75.8562 60.3206 75.7877 60.0231 75.7192 59.7312C74.9874 56.5994 73.6527 53.7734 71.4931 51.3771C70.0844 49.8153 68.3331 48.7384 66.4009 47.9616C65.2005 47.4796 63.9315 47.3915 62.6516 47.4135C62.2351 47.4218 61.8157 47.4521 61.4046 47.4135C60.5331 47.3364 60.2261 46.7414 60.6838 46.0033C60.8894 45.6727 61.1525 45.3615 61.4403 45.0998C62.8298 43.8383 64.2248 42.5851 65.6417 41.3538C68.9415 38.4838 72.5757 36.0819 76.3496 33.9087C79.7617 31.9448 83.3136 30.2646 87.041 28.9618C90.7354 27.67 94.4929 26.6123 98.3326 25.8796C99.7824 25.6042 101.254 25.4307 102.723 25.2654C104.469 25.0671 106.218 24.888 107.969 24.7724C110.625 24.5961 113.28 24.5878 115.933 24.9018C117.241 25.0561 118.553 25.191 119.866 25.2957C122.388 25.4995 124.843 26.0477 127.293 26.6398C132.205 27.827 136.973 29.408 141.531 31.6281C145.538 33.5809 149.334 35.8864 152.943 38.4893C154.574 39.6654 156.109 40.982 157.627 42.3069C159.217 43.6923 160.82 45.0778 162.259 46.6147C164.049 48.5208 165.685 50.5756 167.376 52.578C167.735 53.0049 168.017 53.4897 168.028 54.148L168.023 54.1425Z" fill="#EE7E56"/>
<path d="M111.073 184.612C106.216 184.628 101.354 184.24 96.547 183.441C92.2551 182.728 88.0701 181.651 83.9399 180.296C74.0817 177.057 65.084 172.22 56.9497 165.75C54.9544 164.163 52.9839 162.546 51.1723 160.745C50.8763 160.45 50.5666 160.164 50.3227 159.828C49.8513 159.175 49.9116 158.531 50.6845 158.139C51.3724 157.79 52.2165 157.858 52.9647 157.77C53.9376 157.655 54.9024 157.476 55.8643 157.28C57.8404 156.878 59.8082 156.39 61.8226 156.206C62.9189 156.104 64.0946 156.109 65.1361 156.514C66.2543 156.947 67.1779 157.914 68.1536 158.597C69.872 159.8 71.6205 160.952 73.4321 162.009C76.9649 164.075 80.673 165.827 84.4935 167.281C87.8043 168.543 91.1945 169.521 94.6477 170.308C113.553 174.613 133.941 171.124 150.44 160.921C164.05 152.504 174.87 139.611 180.831 124.709C181.396 123.296 181.927 121.85 182.791 120.6C183.723 119.247 185.003 118.179 186.307 117.19C187.68 116.149 189.168 115.146 190.868 114.868C192.567 114.59 194.526 115.231 195.302 116.774C195.987 118.14 195.604 119.779 195.17 121.247C189.637 139.936 177.896 156.688 162.134 168.077C147.332 178.773 129.293 184.56 111.07 184.617L111.073 184.612Z" fill="black"/>
<path d="M183.772 50.6695C183.569 50.6282 183.202 50.5786 182.848 50.4767C181.108 49.9754 179.376 50.0333 177.652 50.5346C176.52 50.8624 175.388 51.1929 174.267 51.5509C172.779 52.0247 171.924 51.8291 170.978 50.5594C163.436 40.4397 153.052 32.3335 141.582 27.2048C132.044 22.941 121.616 20.7182 111.179 20.6907C99.7727 20.6631 88.2893 23.2853 77.9898 28.3396C70.8092 31.8653 64.3878 36.6304 58.5474 42.0868C57.7197 42.8608 57.0016 43.7505 56.226 44.5796C55.8478 44.9845 55.4888 45.4224 55.053 45.7584C54.3487 46.3066 53.6416 46.2653 52.9619 45.6951C52.6631 45.4445 52.3946 45.147 52.1369 44.8523C50.6268 43.1363 48.8426 41.8059 46.7213 40.941C46.3815 40.8033 46.0444 40.6353 45.7402 40.4259C44.9618 39.8888 44.7837 39.1176 45.2551 38.2995C45.4606 37.9415 45.7183 37.6027 45.9951 37.2942C48.7193 34.2781 51.5915 31.4163 54.757 28.863C56.6865 27.3067 58.6022 25.7257 60.6193 24.2907C71.8835 16.2754 85.0553 11.1109 98.7121 9.16076C98.9341 9.12771 99.1561 9.09741 99.3781 9.06711C106.992 8.03697 114.742 7.98739 122.364 8.96245C135.983 10.7032 149.102 15.697 160.41 23.5277C167.761 28.6178 174.141 34.7629 179.765 41.7095C181.511 43.8662 182.991 46.2432 184.58 48.5266C184.737 48.7525 184.863 49.0114 184.956 49.2703C185.263 50.1269 184.846 50.6971 183.775 50.6723L183.772 50.6695Z" fill="black"/>
<path d="M57.0092 92.5904C57.0969 95.1162 57.116 97.8376 57.3161 100.545C57.4586 102.484 57.8834 104.399 58.1219 106.332C58.459 109.078 59.3278 111.665 60.3226 114.221C61.3093 116.755 62.655 119.06 64.5954 120.997C66.7057 123.104 69.2079 124.456 72.1076 125.079C72.3762 125.136 72.6557 125.194 72.8996 125.313C73.4724 125.588 73.6341 126.1 73.3107 126.643C73.16 126.896 72.949 127.131 72.7242 127.321C70.4851 129.205 68.1473 130.943 65.4888 132.196C63.1839 133.281 60.7666 133.942 58.2123 134.025C56.387 134.085 54.5672 134.05 52.7474 133.796C50.9879 133.551 49.7847 132.642 48.9625 131.097C47.6223 128.577 46.3726 126.01 45.3174 123.357C44.5994 121.547 43.8977 119.724 43.3332 117.862C42.6727 115.689 42.193 113.463 41.5928 111.271C41.1324 109.582 41.0063 107.842 40.7487 106.123C40.5157 104.586 40.3294 103.041 40.1293 101.501C40.0909 101.203 40.0745 100.9 40.069 100.6C40.0498 99.6995 40.4582 99.0412 41.2365 98.6171C41.5216 98.4628 41.8121 98.3141 42.1136 98.2012C45.2105 97.0333 47.6689 95.0116 49.7573 92.483C51.7745 90.0399 53.4682 87.3874 54.9235 84.5751C55.1373 84.1647 55.3702 83.7599 55.6306 83.3825C55.8033 83.1318 56.0581 82.9363 56.398 83.0162C56.7378 83.096 56.8749 83.388 56.9269 83.6882C56.9872 84.027 57.0037 84.3796 57.0037 84.7266C57.0092 87.2827 57.0064 89.8388 57.0064 92.5877L57.0092 92.5904Z" fill="#EE7E56"/>
<path d="M192.657 76.3465C192.635 73.5645 193.038 70.7991 193.816 68.2954C195.425 63.1336 197.061 57.8562 198.196 52.5209C199.331 47.1774 200.038 41.7623 198.292 36.4545C197.82 35.025 197.193 33.4275 197.875 32.0861C199.183 29.519 203.362 29.2077 205.686 30.1222C215.386 33.9315 211.102 47.6649 208.989 54.8787C207.607 59.5942 205.982 64.1996 204.809 68.973C204.097 71.8706 203.348 74.8811 202.976 77.8862C202.603 80.8912 202.255 84.2984 203.76 86.8986C204.321 87.8681 205.166 88.8239 205.018 89.9367C204.933 90.5867 204.5 91.1541 203.957 91.5205C202.858 92.2641 201.452 92.3716 200.202 91.9915C198.456 91.4599 197.034 90.135 196.028 88.6063C193.69 85.0531 192.687 80.558 192.654 76.3465H192.657Z" fill="black"/>
<path d="M40.9186 124.227C40.9186 124.7 40.9076 125.009 40.5788 125.166C40.28 125.309 40.0334 125.158 39.8141 124.984C39.5976 124.813 39.3866 124.623 39.2221 124.403C38.6959 123.698 38.1615 122.996 37.6873 122.255C35.9388 119.53 34.626 116.583 33.453 113.578C32.8144 111.939 32.3074 110.245 31.8086 108.557C31.2193 106.557 30.6411 104.549 30.1697 102.519C29.7723 100.803 29.5338 99.0515 29.2269 97.3163C29.1172 96.6993 28.9802 96.085 28.9199 95.4653C28.8678 94.9282 28.898 94.358 29.4872 94.0854C30.0408 93.8292 30.4931 94.1322 30.8576 94.4985C32.0087 95.6554 33.2968 96.6277 34.6644 97.5063C35.4838 98.0324 35.8209 98.8532 35.8949 99.809C36.021 101.451 36.1334 103.095 36.317 104.731C36.476 106.136 36.7446 107.53 36.9309 108.932C37.4571 112.854 38.4849 116.655 39.6963 120.412C40.0087 121.384 40.3595 122.343 40.6774 123.312C40.7925 123.662 40.8665 124.026 40.9186 124.229V124.227Z" fill="black"/>
<path d="M197.721 109.093C195.254 109.195 193.141 107.603 192.785 104.755C192.421 101.846 193.287 99.3343 195.696 97.5109C198.245 95.5829 201.925 96.2687 203.408 99.6676C204.565 102.323 203.715 105.771 201.55 107.691C200.44 108.675 199.152 109.14 197.721 109.093Z" fill="black"/>
<path d="M37.2966 64.1096C37.0773 66.6685 37.165 69.2604 36.6004 71.7862C36.4442 72.4858 36.2332 73.1771 35.992 73.8492C35.6576 74.7857 35.0026 75.4467 34.1119 75.8902C33.0786 76.4025 32.0619 76.9451 31.0368 77.474C30.9765 77.507 30.9135 77.5346 30.8505 77.5649C30.4558 77.7467 30.0447 77.8376 29.6692 77.5539C29.2965 77.2702 29.2554 76.8487 29.3294 76.4163C29.6966 74.221 30.1132 72.034 30.8423 69.9242C31.6919 67.4673 32.6155 65.0434 33.9502 62.8041C34.2106 62.3689 34.5065 61.9502 34.8245 61.5536C34.9944 61.3415 35.2219 61.1597 35.4576 61.022C36.0797 60.6611 36.7183 60.8512 37.0143 61.5122C37.1705 61.8621 37.2527 62.2642 37.2883 62.6498C37.3349 63.1318 37.2993 63.6221 37.2993 64.1096H37.2966Z" fill="black"/>
<path d="M162.703 79.6459C162.826 78.927 162.922 78.2384 163.068 77.5608C163.125 77.2964 163.251 77.0292 163.405 76.8061C163.764 76.2883 164.35 76.2277 164.761 76.6987C165.345 77.368 165.77 78.1558 165.923 79.0344C166.11 80.0921 164.986 81.3261 163.909 81.3343C163.44 81.3371 163.087 81.1333 162.928 80.7063C162.802 80.3675 162.772 79.9902 162.703 79.6459Z" fill="#EE7E56"/>
<path d="M80.3667 50.4455C80.2927 50.4455 80.2214 50.4372 80.1474 50.4234C79.8459 50.3601 79.5746 50.1673 79.3471 49.8533C77.9521 47.939 76.5133 46.0136 75.0744 44.1296C74.8305 43.8101 74.7346 43.4824 74.7949 43.1546C74.8524 42.8296 75.0607 42.5376 75.4143 42.2925C75.6965 42.0941 75.9816 41.995 76.2584 41.995C76.3159 41.995 76.3735 42.0005 76.4283 42.0088C76.7599 42.0583 77.0477 42.2511 77.2779 42.5734C77.7466 43.2345 78.2125 43.8955 78.6757 44.5566C79.7308 43.8597 80.8189 43.1876 81.9179 42.5569C81.5068 41.8655 81.0929 41.1769 80.6764 40.4911C80.4681 40.1468 80.4078 39.8107 80.501 39.494C80.5914 39.1772 80.8244 38.9128 81.1944 38.7117C81.4575 38.5685 81.7096 38.4941 81.9508 38.4941C82.0522 38.4941 82.1509 38.5079 82.244 38.5327C82.5702 38.6208 82.8333 38.8412 83.0279 39.1882C84.1899 41.2623 85.3437 43.3777 86.4565 45.4738C86.6401 45.8181 86.6922 46.1459 86.6182 46.4461C86.5414 46.7546 86.3304 47.0025 85.996 47.1843C85.7877 47.2972 85.5794 47.355 85.3794 47.355C85.267 47.355 85.1574 47.3358 85.0505 47.3027C84.7572 47.2035 84.5106 46.9859 84.316 46.6472C83.8912 45.9117 83.4664 45.1763 83.0361 44.4436C81.9837 45.0469 80.9395 45.6914 79.9282 46.3579C80.4078 47.0548 80.8847 47.7544 81.3615 48.454C81.5781 48.7763 81.6685 49.0931 81.6301 49.396C81.589 49.7073 81.4081 49.9772 81.0929 50.1976C80.8518 50.3628 80.6079 50.4482 80.3694 50.4482L80.3667 50.4455Z" fill="white"/>
<path d="M81.9534 38.7708C82.0301 38.7708 82.1041 38.779 82.1754 38.7983C82.4275 38.8672 82.6331 39.0407 82.7893 39.3217C83.9541 41.404 85.0969 43.4973 86.2151 45.6017C86.3659 45.8854 86.4097 46.1443 86.3522 46.3757C86.2946 46.607 86.1302 46.7943 85.8643 46.9403C85.6944 47.0312 85.5327 47.078 85.3792 47.078C85.297 47.078 85.2148 47.0643 85.1353 47.0395C84.9078 46.9624 84.7132 46.7861 84.5515 46.5079C84.0829 45.6926 83.6115 44.88 83.1346 44.0702C81.9123 44.7643 80.7146 45.5025 79.5443 46.2848C80.0787 47.0588 80.6077 47.8327 81.1339 48.6122C81.3148 48.8794 81.3888 49.1301 81.3559 49.3642C81.3257 49.5983 81.186 49.8021 80.9338 49.9757C80.7392 50.1106 80.5501 50.1767 80.3665 50.1767C80.3117 50.1767 80.2596 50.1712 80.2048 50.1602C79.9691 50.1106 79.7581 49.9564 79.5662 49.6947C78.163 47.7694 76.7379 45.8606 75.2908 43.9656C75.0962 43.7094 75.0194 43.456 75.0633 43.2054C75.1071 42.9547 75.2771 42.7261 75.5703 42.5223C75.8088 42.357 76.039 42.2744 76.2582 42.2744C76.3021 42.2744 76.3459 42.2771 76.387 42.2854C76.6474 42.324 76.8694 42.4754 77.0558 42.7399C77.5765 43.4725 78.0917 44.2052 78.607 44.9406C79.8102 44.1363 81.0435 43.3761 82.2987 42.6627C81.841 41.8915 81.3778 41.1203 80.9119 40.3518C80.7447 40.0764 80.6954 39.8175 80.7667 39.5723C80.8379 39.3299 81.0243 39.1206 81.3285 38.9553C81.5505 38.8341 81.7615 38.7735 81.9534 38.7735M81.9534 38.2227C81.6683 38.2227 81.3696 38.308 81.0654 38.4733C80.6296 38.7102 80.3528 39.0297 80.2404 39.4208C80.161 39.6935 80.1336 40.1259 80.446 40.641C80.8132 41.2442 81.1805 41.8557 81.5423 42.4644C80.5995 43.0126 79.6622 43.591 78.7495 44.1887C78.3357 43.5965 77.9163 43.0043 77.5025 42.4204C77.2257 42.032 76.8804 41.8034 76.472 41.7428C76.4008 41.7318 76.3295 41.7262 76.261 41.7262C75.9266 41.7262 75.5895 41.8419 75.2606 42.0733C74.844 42.3625 74.5974 42.7123 74.5261 43.1117C74.4768 43.3927 74.4932 43.8279 74.8577 44.3044C76.2966 46.1856 77.7327 48.1082 79.1277 50.0225C79.3991 50.3943 79.7225 50.6202 80.0924 50.7001C80.1829 50.7194 80.2733 50.7304 80.3665 50.7304C80.6625 50.7304 80.9585 50.6312 81.2435 50.4329C81.6272 50.1685 81.8465 49.8324 81.8986 49.4386C81.9479 49.0667 81.841 48.6839 81.5861 48.3065C81.1641 47.684 80.7392 47.0588 80.3117 46.439C81.1695 45.8771 82.0493 45.3373 82.9345 44.8222C83.3182 45.4777 83.7019 46.1388 84.0747 46.7888C84.3021 47.1855 84.6009 47.4471 84.9599 47.5683C85.0942 47.6124 85.234 47.6372 85.3765 47.6372C85.6231 47.6372 85.8725 47.5683 86.1247 47.4334C86.5303 47.213 86.7852 46.9073 86.8839 46.5217C86.977 46.1526 86.914 45.7587 86.7002 45.3538C85.5848 43.2522 84.4309 41.1368 83.2689 39.0627C83.0359 38.6496 82.718 38.3852 82.3179 38.2777C82.2 38.2474 82.0767 38.2309 81.9534 38.2309V38.2227Z" fill="black"/>
<path d="M87.502 46.2716C87.4362 46.2716 87.3705 46.2661 87.3074 46.2523C87.069 46.2055 86.8662 46.0788 86.7072 45.8777C86.551 45.6822 86.466 45.426 86.4551 45.1175C86.2989 42.5394 86.2523 39.9007 86.3126 37.2868C86.3263 36.9122 86.414 36.6037 86.5757 36.3613C86.7374 36.1161 86.9731 35.9261 87.2718 35.8021C87.4801 35.714 87.6939 35.6699 87.9022 35.6699C87.9899 35.6699 88.0803 35.6782 88.1653 35.6947C88.4585 35.747 88.7463 35.8985 89.0258 36.1464C91.0485 37.8817 92.9779 39.7437 94.7566 41.6828C94.9649 41.9004 95.0937 42.1372 95.1348 42.3824C95.1814 42.6441 95.1348 42.8809 94.9978 43.0848C94.8662 43.2776 94.6689 43.4208 94.4058 43.5089C94.2413 43.564 94.0824 43.5943 93.9371 43.5943C93.8001 43.5943 93.6685 43.5695 93.548 43.5172C93.3232 43.4235 93.0985 43.2473 92.86 42.9828C92.6052 42.7074 92.3421 42.4347 92.0762 42.1593C90.9224 42.5917 89.7713 43.071 88.6449 43.5806C88.6613 43.9552 88.6778 44.3297 88.6997 44.7016C88.7189 45.0624 88.6915 45.3406 88.6175 45.5527C88.5298 45.7951 88.3352 45.9934 88.0419 46.1366C87.8556 46.2275 87.6747 46.2744 87.4993 46.2744L87.502 46.2716ZM88.5325 38.6695C88.5325 39.5206 88.549 40.3965 88.5736 41.3247C89.2012 41.0493 89.8398 40.7848 90.4811 40.5342C89.8124 39.8704 89.1683 39.2534 88.5325 38.6695Z" fill="white"/>
<path d="M87.893 35.9404C87.9643 35.9404 88.0383 35.9459 88.1095 35.9596C88.3535 36.0037 88.5946 36.1332 88.8358 36.348C90.8776 38.0998 92.7824 39.9425 94.5474 41.8651C94.7228 42.0496 94.8242 42.2369 94.8571 42.4242C94.89 42.6143 94.8571 42.7795 94.7639 42.9228C94.668 43.066 94.5172 43.1706 94.3117 43.2423C94.1747 43.2891 94.0486 43.3111 93.9307 43.3111C93.8293 43.3111 93.7334 43.2918 93.6457 43.256C93.4593 43.1789 93.2648 43.0247 93.0565 42.7933C92.7577 42.471 92.448 42.1515 92.1411 41.832C90.8612 42.3085 89.5977 42.8319 88.3562 43.3993C88.3754 43.8372 88.3946 44.2752 88.4192 44.7104C88.4357 45.0299 88.4137 45.2778 88.3507 45.4513C88.2877 45.6248 88.1424 45.768 87.9122 45.881C87.7642 45.9526 87.6244 45.9912 87.4901 45.9912C87.4436 45.9912 87.3942 45.9856 87.3504 45.9774C87.175 45.9416 87.0297 45.8507 86.9091 45.7019C86.7913 45.5532 86.7255 45.3521 86.7173 45.1015C86.561 42.5179 86.5145 39.9122 86.5748 37.2873C86.5857 36.9677 86.6597 36.7061 86.7913 36.5078C86.9228 36.3067 87.1147 36.1552 87.3641 36.0505C87.5395 35.9762 87.7149 35.9404 87.8875 35.9404M88.2986 41.7384C89.1757 41.3472 90.0636 40.9809 90.9598 40.6338C90.091 39.7607 89.1976 38.9041 88.2712 38.0668C88.263 38.0695 88.2548 38.075 88.2466 38.0778C88.2411 39.3007 88.263 40.5209 88.3014 41.7356M87.8903 35.3867C87.6464 35.3867 87.397 35.4391 87.1558 35.5382C86.805 35.6842 86.5282 35.9073 86.3363 36.1993C86.1472 36.4857 86.0431 36.8438 86.0294 37.2652C85.9691 39.8957 86.0157 42.5399 86.1719 45.1318C86.1856 45.4871 86.2897 45.7983 86.4816 46.0407C86.6789 46.2914 86.9447 46.4539 87.2435 46.5145C87.323 46.531 87.4052 46.5393 87.4901 46.5393C87.7067 46.5393 87.9314 46.4842 88.1534 46.374C88.5152 46.1977 88.7563 45.9498 88.866 45.6358C88.9537 45.3879 88.9866 45.0767 88.9646 44.6773C88.9454 44.3661 88.9317 44.0548 88.918 43.7463C89.9266 43.2918 90.9598 42.8649 91.9958 42.4738C92.2151 42.7024 92.4398 42.9365 92.6536 43.1679C92.914 43.4571 93.1716 43.6554 93.4347 43.7656C93.5882 43.8289 93.7553 43.862 93.928 43.862C94.1007 43.862 94.2898 43.8289 94.4844 43.7628C94.805 43.6554 95.0489 43.4764 95.2134 43.2312C95.3888 42.9696 95.4518 42.6583 95.3943 42.3278C95.3422 42.0276 95.1887 41.7439 94.9393 41.4822C93.1579 39.5431 91.2202 37.6729 89.1866 35.9266C88.8769 35.6511 88.5426 35.4776 88.2 35.417C88.0958 35.3977 87.9917 35.3895 87.8875 35.3895L87.8903 35.3867ZM88.8276 40.9065C88.8139 40.3529 88.8057 39.8185 88.8002 39.2952C89.1866 39.6588 89.5785 40.0334 89.9787 40.4273C89.5922 40.5815 89.2086 40.7413 88.8276 40.9065Z" fill="black"/>
<path d="M101.185 41.1987C100.794 41.1753 100.419 41.1086 100.071 40.9995C99.2869 40.7565 98.6097 40.3269 98.0615 39.7173C97.5054 39.1017 97.0933 38.3265 96.8379 37.4116C96.6344 36.6847 96.5657 35.9991 96.6365 35.3686C96.7087 34.7135 96.923 34.1165 97.2728 33.5939C97.6257 33.066 98.1142 32.6124 98.7237 32.2461C99.3388 31.8773 100.074 31.6179 100.912 31.4695C101.428 31.379 101.963 31.3448 102.499 31.3715L102.568 31.3756C103.087 31.4068 103.603 31.5122 104.103 31.6884C104.372 31.7845 104.571 31.9372 104.697 32.1352C104.817 32.3272 104.875 32.5432 104.867 32.7745C104.859 33.003 104.794 33.2116 104.673 33.3948C104.546 33.5886 104.368 33.7296 104.14 33.8098C104.011 33.8573 103.867 33.8735 103.712 33.8641C103.599 33.8574 103.483 33.8366 103.358 33.8016C103.054 33.6978 102.748 33.638 102.433 33.6192C102.088 33.5985 101.735 33.6242 101.363 33.6902C100.778 33.7931 100.308 33.9856 99.9645 34.2631C99.6355 34.5303 99.4347 34.8576 99.3441 35.2689C99.2531 35.6884 99.2776 36.1948 99.4186 36.7744C99.6256 37.6257 99.9844 38.2349 100.482 38.5849C100.788 38.7991 101.144 38.9143 101.568 38.9397C101.822 38.955 102.106 38.9361 102.408 38.8853C102.686 38.8384 102.97 38.7617 103.256 38.6602C103.36 38.625 103.47 38.5819 103.585 38.5309C103.52 38.1131 103.454 37.6952 103.386 37.2772C103.095 37.3205 102.804 37.3665 102.513 37.4153C102.394 37.4357 102.284 37.4402 102.18 37.4339C102.002 37.4233 101.84 37.3749 101.705 37.2868C101.48 37.1437 101.337 36.9253 101.278 36.6321C101.216 36.3249 101.268 36.063 101.434 35.8523C101.592 35.652 101.838 35.5233 102.166 35.4684C102.845 35.3574 103.535 35.2525 104.221 35.164C104.321 35.1507 104.414 35.148 104.502 35.1532C104.712 35.1659 104.898 35.2294 105.048 35.346C105.26 35.5105 105.391 35.7584 105.434 36.0839C105.568 37.0577 105.699 38.0341 105.825 39.0101C105.858 39.2715 105.836 39.5102 105.758 39.7125C105.67 39.939 105.5 40.1165 105.254 40.2397C104.905 40.4202 104.511 40.5869 104.054 40.7472C103.605 40.9024 103.153 41.0188 102.707 41.0968C102.166 41.1913 101.653 41.224 101.185 41.196L101.185 41.1987Z" fill="white"/>
<path d="M102.546 31.6504C103.041 31.6801 103.529 31.7811 104.008 31.9478C104.218 32.0238 104.368 32.1349 104.46 32.2812C104.553 32.4275 104.596 32.5901 104.591 32.7664C104.583 32.9425 104.535 33.1024 104.441 33.2458C104.347 33.3892 104.218 33.4918 104.046 33.5533C103.951 33.5862 103.846 33.6019 103.725 33.5947C103.635 33.5893 103.535 33.5722 103.429 33.5411C103.115 33.4339 102.786 33.3701 102.447 33.3497C102.441 33.3494 102.433 33.3489 102.428 33.3486C102.083 33.3279 101.711 33.3553 101.314 33.4225C100.676 33.5333 100.166 33.7455 99.791 34.0514C99.4158 34.3572 99.1756 34.7457 99.0734 35.2142C98.9711 35.6826 98.999 36.2252 99.1486 36.8439C99.3755 37.7764 99.7701 38.4292 100.324 38.8156C100.671 39.0599 101.078 39.1919 101.549 39.2202C101.828 39.2369 102.128 39.2163 102.45 39.1611C102.744 39.1097 103.04 39.0309 103.343 38.9249C103.528 38.8587 103.708 38.784 103.886 38.7036C103.794 38.1269 103.703 37.5475 103.608 36.9706C103.226 37.025 102.843 37.0848 102.464 37.1476C102.366 37.1638 102.276 37.1694 102.191 37.1643C102.057 37.1563 101.943 37.1219 101.846 37.0609C101.687 36.9603 101.584 36.8023 101.542 36.5846C101.498 36.3612 101.531 36.1755 101.644 36.0306C101.757 35.8856 101.944 35.7892 102.204 35.7468C102.884 35.6331 103.565 35.5332 104.249 35.4445C104.329 35.4328 104.406 35.4319 104.477 35.4361C104.633 35.4455 104.765 35.492 104.873 35.573C105.027 35.6926 105.121 35.8776 105.155 36.128C105.289 37.1018 105.42 38.0782 105.543 39.0513C105.571 39.271 105.554 39.4603 105.492 39.6194C105.43 39.7813 105.307 39.9064 105.123 39.9974C104.778 40.1781 104.389 40.3397 103.954 40.4903C103.52 40.6408 103.088 40.7528 102.652 40.8288C102.133 40.9191 101.648 40.9507 101.191 40.9233C100.822 40.9012 100.474 40.8389 100.142 40.7363C99.4039 40.5071 98.777 40.1108 98.257 39.5333C97.737 38.9557 97.3442 38.2258 97.0956 37.3362C96.9033 36.6513 96.835 36.0043 96.9015 35.3985C96.9682 34.7899 97.1633 34.2387 97.492 33.7479C97.8207 33.2572 98.2745 32.8319 98.8555 32.4831C99.4365 32.1344 100.138 31.884 100.948 31.7422C101.448 31.6535 101.957 31.6234 102.475 31.6489C102.497 31.6502 102.519 31.6515 102.54 31.6528M102.573 31.1029L102.5 31.0985C101.944 31.0734 101.387 31.1063 100.852 31.2011C99.9831 31.3532 99.2143 31.6272 98.5708 32.0108C97.9242 32.3997 97.4068 32.8792 97.0326 33.4417C96.6586 34.0015 96.4309 34.639 96.3533 35.338C96.2804 36.0042 96.3497 36.7258 96.5621 37.4863C96.8287 38.4432 97.2605 39.2555 97.8449 39.9031C98.4268 40.5478 99.1434 41.0047 99.9764 41.2616C100.346 41.3748 100.742 41.4455 101.156 41.4703C101.645 41.4997 102.18 41.4655 102.74 41.3667C103.201 41.2867 103.667 41.1656 104.129 41.0085C104.6 40.8463 105.006 40.6747 105.371 40.4842C105.748 40.297 105.924 40.0179 105.999 39.8154C106.094 39.5672 106.121 39.2874 106.082 38.9788C105.957 38.0055 105.826 37.0209 105.692 36.0498C105.637 35.6492 105.471 35.3412 105.201 35.1319C105.007 34.9822 104.773 34.8992 104.505 34.8832C104.401 34.8769 104.288 34.8812 104.172 34.8963C103.483 34.9874 102.79 35.0894 102.108 35.203C101.711 35.2675 101.408 35.4314 101.206 35.687C101.057 35.8767 100.897 36.2065 100.994 36.6925C101.066 37.0555 101.257 37.3429 101.546 37.5258C101.723 37.6385 101.925 37.7003 102.15 37.7137C102.273 37.7211 102.408 37.7127 102.544 37.6905C102.743 37.6583 102.943 37.6261 103.145 37.5941C103.187 37.8505 103.227 38.1067 103.267 38.3629C103.227 38.3771 103.188 38.3913 103.151 38.4057C102.879 38.5025 102.609 38.5746 102.348 38.6197C102.065 38.6689 101.803 38.6863 101.57 38.6724C101.198 38.6501 100.889 38.5487 100.625 38.3646C100.182 38.0566 99.8614 37.502 99.6697 36.7151C99.54 36.1776 99.5157 35.7125 99.5961 35.3338C99.6719 34.9852 99.8422 34.7084 100.122 34.4824C100.428 34.2358 100.856 34.06 101.397 33.9683C101.746 33.9065 102.08 33.8851 102.386 33.9007L102.403 33.9017C102.693 33.9191 102.975 33.9747 103.244 34.0653C103.252 34.0658 103.26 34.0718 103.268 34.0723C103.411 34.114 103.55 34.1388 103.681 34.1467C103.873 34.1582 104.053 34.1331 104.218 34.074C104.502 33.9724 104.729 33.7956 104.887 33.5485C105.035 33.3201 105.114 33.0654 105.125 32.7874C105.134 32.4982 105.062 32.229 104.912 31.9882C104.754 31.7359 104.507 31.5473 104.182 31.4312C103.652 31.2449 103.11 31.1351 102.568 31.1026L102.573 31.1029Z" fill="black"/>
<path d="M107.521 40.4411C107.242 40.4244 107.006 40.3302 106.822 40.1619C106.59 39.9521 106.451 39.6513 106.411 39.2626C106.158 36.9019 105.873 34.5118 105.566 32.159C105.513 31.7612 105.596 31.4296 105.812 31.1748C106.025 30.9227 106.349 30.7766 106.78 30.7417C106.876 30.7337 106.97 30.731 107.06 30.7364C107.353 30.754 107.603 30.8435 107.804 31.0046C108.069 31.2164 108.221 31.5262 108.26 31.9232C108.489 34.2879 108.693 36.6925 108.867 39.0649C108.896 39.4529 108.813 39.7736 108.626 40.0162C108.432 40.2667 108.141 40.4093 107.755 40.4386C107.675 40.4448 107.598 40.4457 107.524 40.4413L107.521 40.4411Z" fill="white"/>
<path d="M107.046 31.0157C107.284 31.03 107.48 31.0997 107.634 31.2248C107.839 31.3888 107.956 31.6332 107.989 31.9525C108.217 34.3309 108.42 36.7079 108.596 39.0887C108.621 39.4102 108.559 39.6632 108.413 39.8531C108.267 40.0402 108.044 40.1455 107.738 40.1685C107.669 40.1727 107.606 40.1744 107.543 40.1706C107.327 40.1577 107.149 40.0891 107.009 39.962C106.829 39.7995 106.72 39.5584 106.687 39.2391C106.431 36.8673 106.15 34.4967 105.842 32.1273C105.801 31.8075 105.86 31.5517 106.023 31.3545C106.186 31.16 106.448 31.0461 106.804 31.0177C106.887 31.0117 106.969 31.0111 107.043 31.0155M107.076 30.4656C106.975 30.4596 106.867 30.4614 106.757 30.4686C106.252 30.5101 105.863 30.6881 105.602 30.9981C105.419 31.2162 105.218 31.6014 105.294 32.1965C105.601 34.5493 105.883 36.9365 106.137 39.2944C106.187 39.7499 106.354 40.1132 106.639 40.3675C106.873 40.5775 107.165 40.6971 107.507 40.7176C107.595 40.7229 107.685 40.7228 107.776 40.7145C108.242 40.6789 108.602 40.5018 108.843 40.1879C109.072 39.8899 109.172 39.504 109.139 39.0468C108.963 36.6742 108.759 34.2696 108.53 31.8994C108.472 31.3082 108.196 30.9715 107.973 30.7926C107.727 30.5957 107.426 30.4866 107.073 30.4655L107.076 30.4656Z" fill="black"/>
<path d="M109.935 40.3013C109.714 40.288 109.52 40.224 109.356 40.112C109.153 39.9702 109.017 39.7744 108.952 39.5249C108.887 39.2809 108.914 39.0122 109.028 38.7237C109.939 36.3005 110.969 33.8678 112.091 31.5041C112.257 31.1691 112.464 30.9194 112.712 30.7632C112.963 30.6044 113.256 30.5281 113.585 30.5368L113.656 30.5411C113.954 30.559 114.224 30.6441 114.456 30.8015C114.707 30.9683 114.914 31.2236 115.072 31.5642C116.253 33.9805 117.298 36.4714 118.178 38.9661C118.284 39.2512 118.31 39.5204 118.248 39.7623C118.183 40.0233 118.042 40.219 117.831 40.3499C117.646 40.4657 117.418 40.5155 117.161 40.5L117.112 40.4971C116.767 40.4654 116.497 40.3499 116.308 40.1564C116.135 39.9777 115.996 39.7266 115.882 39.3859C115.758 39.0362 115.625 38.6861 115.492 38.3332L115.483 38.3106C114.224 38.2351 112.947 38.2027 111.686 38.2098C111.55 38.5576 111.411 38.908 111.277 39.2587C111.147 39.5958 111.009 39.8387 110.854 40.0032C110.675 40.1911 110.414 40.2913 110.083 40.3019C110.031 40.3043 109.982 40.3041 109.933 40.3011L109.935 40.3013ZM113.589 33.6662C113.243 34.4457 112.896 35.2554 112.539 36.1225C113.241 36.1287 113.951 36.1465 114.655 36.1777C114.311 35.3264 113.955 34.4856 113.589 33.6662Z" fill="white"/>
<path d="M113.633 30.8186C113.882 30.8335 114.105 30.9048 114.298 31.035C114.506 31.1745 114.68 31.3918 114.819 31.6844C116.007 34.1177 117.04 36.5802 117.916 39.0609C118.006 39.3009 118.026 39.5146 117.979 39.6994C117.932 39.887 117.836 40.0247 117.685 40.1177C117.545 40.2032 117.375 40.2399 117.173 40.2278C117.159 40.2269 117.146 40.2261 117.129 40.2251C116.851 40.2002 116.642 40.1131 116.5 39.9666C116.357 39.8201 116.236 39.5976 116.136 39.3019C115.988 38.8846 115.829 38.4667 115.67 38.0516C115.615 38.0483 115.563 38.0452 115.508 38.0419C114.168 37.9615 112.827 37.928 111.495 37.9419C111.333 38.3489 111.172 38.7558 111.018 39.1661C110.904 39.4655 110.781 39.6816 110.652 39.8174C110.523 39.9532 110.327 40.0242 110.068 40.0335C110.024 40.0364 109.983 40.0339 109.945 40.0316C109.772 40.0213 109.627 39.9739 109.506 39.8894C109.358 39.7867 109.26 39.6428 109.21 39.4578C109.161 39.2727 109.182 39.0642 109.275 38.8298C110.187 36.4038 111.204 34.0007 112.332 31.6263C112.473 31.3395 112.648 31.1292 112.85 31.0007C113.056 30.8722 113.295 30.8094 113.57 30.8148C113.589 30.8159 113.611 30.8172 113.63 30.8184M112.117 36.3981C113.095 36.3988 114.076 36.4245 115.056 36.475C114.598 35.3218 114.112 34.1751 113.588 33.0316C113.58 33.0311 113.569 33.0305 113.56 33.03C113.057 34.1477 112.578 35.2696 112.117 36.3981ZM113.663 30.2685C113.635 30.2669 113.611 30.2654 113.584 30.2637C113.2 30.2545 112.857 30.3443 112.56 30.5335C112.269 30.7174 112.026 31.0037 111.839 31.3815C110.711 33.7586 109.675 36.1965 108.76 38.6333C108.627 38.9675 108.597 39.294 108.678 39.5969C108.758 39.9052 108.937 40.1616 109.19 40.3396C109.393 40.4814 109.636 40.5622 109.909 40.5786C109.967 40.582 110.024 40.5827 110.087 40.581C110.492 40.5666 110.815 40.437 111.044 40.1996C111.225 40.0091 111.385 39.7372 111.528 39.3649C111.638 39.0736 111.752 38.7824 111.866 38.4912C113 38.4875 114.148 38.5177 115.281 38.5829C115.395 38.8822 115.508 39.1898 115.617 39.4915C115.74 39.8631 115.901 40.1487 116.103 40.3567C116.338 40.5999 116.665 40.7409 117.077 40.7794C117.096 40.7805 117.118 40.7818 117.137 40.783C117.452 40.8019 117.733 40.7387 117.967 40.5927C118.237 40.4268 118.423 40.1648 118.506 39.8386C118.579 39.5395 118.552 39.215 118.424 38.8734C117.544 36.3759 116.492 33.8735 115.306 31.4459C115.128 31.0683 114.89 30.7753 114.597 30.5784C114.322 30.3963 114.007 30.2919 113.66 30.2711L113.663 30.2685ZM112.938 35.8541C113.153 35.3344 113.367 34.834 113.58 34.3474C113.802 34.8546 114.019 35.367 114.232 35.8848C113.802 35.87 113.369 35.8579 112.938 35.8513L112.938 35.8541Z" fill="black"/>
<path d="M125.337 41.8788C125.268 41.8747 125.195 41.8647 125.125 41.8467C124.846 41.7803 124.628 41.6624 124.475 41.5043C124.341 41.3638 124.213 41.1657 124.083 40.904C123.21 39.1188 122.221 37.3432 121.139 35.6116C120.971 37.0337 120.805 38.3813 120.632 39.7037C120.585 40.0734 120.445 40.3575 120.222 40.5456C120.02 40.7156 119.757 40.7936 119.442 40.7747C119.401 40.7723 119.358 40.7697 119.314 40.7615C118.952 40.715 118.678 40.5661 118.497 40.3235C118.322 40.084 118.25 39.7761 118.286 39.403C118.523 37.0166 118.734 34.5872 118.917 32.1837C118.949 31.7828 119.091 31.4795 119.339 31.2819C119.561 31.1076 119.837 31.0276 120.158 31.0468C120.193 31.0489 120.231 31.0512 120.27 31.0563C120.577 31.0968 120.819 31.1885 120.989 31.3284C121.138 31.4533 121.3 31.6396 121.469 31.887C122.648 33.6106 123.743 35.4036 124.729 37.2232C124.993 35.8483 125.244 34.492 125.476 33.1869C125.543 32.8129 125.716 32.539 125.986 32.3759C126.177 32.2604 126.408 32.208 126.671 32.2238C126.772 32.2299 126.881 32.2474 126.995 32.2736C127.393 32.3664 127.684 32.5467 127.866 32.8114C128.05 33.0791 128.105 33.4025 128.028 33.7704C127.525 36.1602 126.988 38.5727 126.431 40.9427C126.353 41.2802 126.195 41.5356 125.963 41.7011C125.776 41.8334 125.567 41.8926 125.334 41.8786L125.337 41.8788Z" fill="white"/>
<path d="M120.147 31.318C120.177 31.3198 120.21 31.3218 120.242 31.3265C120.499 31.3584 120.692 31.4307 120.82 31.5377C120.948 31.6447 121.095 31.8136 121.251 32.0409C122.591 34.0032 123.795 36.0069 124.862 38.0328C125.172 36.4344 125.471 34.8354 125.757 33.2327C125.81 32.9407 125.935 32.7302 126.14 32.6073C126.283 32.5193 126.458 32.4829 126.666 32.4953C126.753 32.5006 126.846 32.5144 126.943 32.5368C127.274 32.6146 127.509 32.7584 127.651 32.9628C127.792 33.1672 127.829 33.4177 127.768 33.7066C127.262 36.1017 126.732 38.4926 126.174 40.8736C126.111 41.1457 125.989 41.3454 125.812 41.4699C125.677 41.5667 125.526 41.6073 125.359 41.5973C125.305 41.594 125.25 41.5853 125.193 41.5708C124.966 41.5158 124.793 41.4282 124.679 41.3055C124.563 41.1826 124.448 41.0046 124.333 40.7714C123.347 38.7559 122.22 36.7596 120.959 34.8021C120.774 36.4245 120.575 38.0434 120.366 39.6588C120.326 39.9627 120.222 40.1828 120.051 40.327C119.904 40.4507 119.709 40.5052 119.465 40.4906C119.429 40.4884 119.394 40.4863 119.356 40.4812C119.07 40.4448 118.859 40.3356 118.725 40.1509C118.59 39.969 118.536 39.7257 118.565 39.4212C118.803 37.0155 119.013 34.6081 119.196 32.1964C119.221 31.875 119.326 31.6385 119.513 31.4897C119.681 31.3562 119.893 31.2972 120.144 31.3123M120.177 30.7624C119.794 30.7395 119.448 30.8401 119.174 31.0555C118.863 31.3017 118.684 31.6718 118.647 32.1524C118.465 34.5449 118.251 36.9713 118.017 39.3634C117.974 39.8051 118.061 40.1801 118.28 40.4747C118.506 40.7807 118.844 40.9638 119.279 41.023C119.328 41.0287 119.377 41.0344 119.427 41.0374C119.815 41.0607 120.142 40.9616 120.4 40.7453C120.677 40.5108 120.846 40.1678 120.906 39.7271C121.044 38.6592 121.182 37.5499 121.318 36.413C122.236 37.9222 123.079 39.4628 123.838 41.0094C123.982 41.2995 124.126 41.5178 124.278 41.6815C124.467 41.8804 124.73 42.0231 125.063 42.1038C125.152 42.1257 125.239 42.1392 125.324 42.1443C125.614 42.1617 125.893 42.0819 126.125 41.9164C126.415 41.7103 126.609 41.4019 126.702 40.9963C127.259 38.6208 127.797 36.2055 128.3 33.8185C128.415 33.2652 128.255 32.8748 128.095 32.6473C127.876 32.3251 127.526 32.1082 127.061 31.9975C126.933 31.9678 126.808 31.9492 126.691 31.9422C126.373 31.9232 126.089 31.9889 125.847 32.1344C125.613 32.2777 125.311 32.5658 125.208 33.1336C125.018 34.1929 124.818 35.2928 124.602 36.4195C123.707 34.8206 122.733 33.2473 121.693 31.7253C121.506 31.4519 121.331 31.2511 121.159 31.1083C120.947 30.9327 120.665 30.822 120.3 30.7753C120.257 30.7699 120.213 30.7646 120.169 30.7619L120.177 30.7624Z" fill="black"/>
<path d="M134.018 44.3162C133.608 44.2916 133.148 44.2254 132.657 44.1242C132.163 44.0228 131.688 43.8895 131.242 43.7248C130.234 43.3553 129.458 42.8838 128.869 42.28C128.268 41.6673 127.864 40.9477 127.662 40.141C127.459 39.323 127.468 38.4378 127.691 37.5103C127.867 36.7758 128.147 36.1414 128.526 35.6288C128.918 35.0977 129.412 34.6885 129.991 34.4115C130.576 34.1348 131.246 33.9901 131.982 33.9873C132.101 33.9861 132.221 33.9906 132.341 33.9978C132.982 34.0362 133.662 34.1846 134.366 34.4393C134.885 34.6277 135.389 34.8731 135.87 35.1752C136.354 35.4802 136.799 35.8517 137.19 36.2836C137.388 36.5052 137.498 36.738 137.514 36.9763C137.53 37.2118 137.476 37.432 137.354 37.6289C137.235 37.8205 137.07 37.9706 136.864 38.0686C136.7 38.1471 136.525 38.1807 136.339 38.1696C136.287 38.1665 136.232 38.1604 136.178 38.1489C135.939 38.1042 135.703 37.9659 135.475 37.7425C135.24 37.4884 134.979 37.2712 134.69 37.0884C134.394 36.8996 134.055 36.7358 133.679 36.6001C133.287 36.4579 132.918 36.3751 132.584 36.3551C132.415 36.3449 132.25 36.3515 132.097 36.3728C131.663 36.435 131.311 36.6154 131.026 36.9266C130.736 37.2431 130.508 37.693 130.348 38.2656C130.116 39.1098 130.142 39.8206 130.427 40.3812C130.709 40.9335 131.247 41.3493 132.069 41.6525C132.351 41.7577 132.654 41.8393 132.971 41.9025C133.088 41.926 133.213 41.9473 133.349 41.9638C133.494 41.5668 133.641 41.17 133.786 40.7731C133.488 40.6559 133.19 40.5414 132.892 40.4297C132.578 40.3116 132.352 40.138 132.223 39.9095C132.089 39.6724 132.064 39.3978 132.155 39.1163C132.277 38.74 132.514 38.5831 132.691 38.5165C132.814 38.4715 132.947 38.4519 133.092 38.4606C133.237 38.4692 133.381 38.5027 133.539 38.5619C134.224 38.8182 134.916 39.0914 135.591 39.372C135.915 39.5073 136.137 39.7 136.251 39.9496C136.368 40.2022 136.364 40.489 136.244 40.7963C135.887 41.7131 135.525 42.6295 135.157 43.5429C135.057 43.7908 134.919 43.9867 134.741 44.125C134.556 44.2685 134.327 44.3347 134.054 44.3183L134.021 44.3164L134.018 44.3162Z" fill="white"/>
<path d="M132.325 34.2631C132.933 34.2996 133.586 34.4408 134.271 34.6889C134.774 34.8708 135.259 35.1069 135.725 35.3997C136.191 35.6897 136.611 36.0461 136.985 36.4576C137.142 36.6325 137.225 36.8086 137.239 36.986C137.25 37.1633 137.21 37.3237 137.119 37.4728C137.028 37.6218 136.9 37.7356 136.744 37.8118C136.623 37.8707 136.492 37.896 136.355 37.8878C136.314 37.8853 136.273 37.8801 136.23 37.872C136.043 37.8359 135.857 37.7255 135.668 37.5375C135.426 37.2746 135.146 37.0454 134.836 36.8475C134.527 36.6523 134.172 36.4793 133.774 36.334C133.352 36.1818 132.962 36.0949 132.604 36.0734C132.415 36.0621 132.234 36.0678 132.062 36.0933C131.563 36.1628 131.152 36.381 130.826 36.7339C130.5 37.0896 130.254 37.5743 130.086 38.1878C129.83 39.1107 129.869 39.8829 130.186 40.5034C130.505 41.1241 131.098 41.5819 131.979 41.9079C132.275 42.0166 132.591 42.1046 132.922 42.1686C133.126 42.2084 133.33 42.2372 133.534 42.2605C133.735 41.7124 133.938 41.1616 134.136 40.6106C133.755 40.4581 133.371 40.3109 132.99 40.1666C132.735 40.0713 132.559 39.9393 132.462 39.768C132.365 39.5966 132.349 39.408 132.417 39.1968C132.487 38.9776 132.608 38.8358 132.785 38.7692C132.873 38.7358 132.969 38.725 133.076 38.7314C133.188 38.7381 133.31 38.7675 133.444 38.8169C134.126 39.0731 134.808 39.3402 135.485 39.6237C135.745 39.7303 135.917 39.8786 136 40.0629C136.085 40.2474 136.08 40.4568 135.987 40.694C135.63 41.6108 135.267 42.5245 134.902 43.438C134.821 43.6428 134.71 43.799 134.572 43.9038C134.443 44.0064 134.272 44.0514 134.07 44.0393C134.062 44.0388 134.051 44.0381 134.043 44.0376C133.632 44.013 133.191 43.948 132.714 43.8504C132.237 43.7527 131.78 43.6233 131.337 43.4615C130.383 43.1118 129.631 42.6611 129.064 42.0807C128.498 41.5032 128.12 40.8348 127.93 40.0674C127.74 39.2999 127.743 38.4668 127.959 37.5664C128.125 36.8727 128.385 36.2785 128.747 35.7842C129.112 35.2901 129.563 34.9115 130.108 34.6517C130.654 34.3919 131.279 34.2584 131.985 34.2538C132.098 34.2523 132.213 34.2564 132.328 34.2633M132.361 33.7134C132.235 33.7059 132.106 33.7009 131.983 33.7018C131.205 33.7076 130.494 33.8581 129.875 34.1521C129.256 34.4461 128.727 34.8835 128.308 35.4544C127.908 35.9988 127.613 36.6626 127.426 37.4351C127.195 38.4063 127.186 39.3357 127.398 40.1983C127.61 41.0526 128.04 41.8151 128.673 42.4629C129.292 43.096 130.102 43.5889 131.147 43.9744C131.607 44.1427 132.098 44.2825 132.602 44.3845C133.107 44.4892 133.581 44.5535 134.007 44.5819L134.037 44.5837C134.379 44.6042 134.673 44.5197 134.909 44.3324C135.122 44.1659 135.293 43.9305 135.409 43.6367C135.774 42.7259 136.14 41.7987 136.497 40.8874C136.682 40.4101 136.599 40.0464 136.497 39.8223C136.354 39.5102 136.083 39.2677 135.695 39.1064C135.017 38.8257 134.322 38.5523 133.635 38.2931C133.45 38.224 133.273 38.1859 133.107 38.1758C132.923 38.1649 132.751 38.1904 132.591 38.2498C132.358 38.3379 132.047 38.5427 131.891 39.0246C131.777 39.382 131.808 39.7315 131.982 40.0399C132.143 40.3228 132.416 40.5406 132.794 40.6792C133.007 40.7581 133.219 40.8398 133.433 40.9217C133.345 41.1647 133.256 41.405 133.167 41.648C133.118 41.6395 133.07 41.6311 133.021 41.6226C132.717 41.563 132.428 41.4822 132.159 41.3833C131.404 41.1063 130.916 40.7321 130.665 40.2452C130.412 39.7499 130.393 39.1058 130.607 38.3295C130.754 37.7975 130.96 37.3849 131.222 37.1025C131.465 36.8385 131.763 36.6852 132.131 36.6328C132.267 36.6134 132.413 36.6083 132.563 36.6173C132.872 36.6359 133.213 36.7143 133.582 36.8467C133.939 36.9758 134.259 37.1329 134.539 37.3098C134.807 37.4803 135.05 37.6826 135.261 37.9105C135.266 37.9163 135.274 37.9223 135.279 37.9281C135.547 38.1897 135.831 38.353 136.121 38.409C136.186 38.4212 136.251 38.4307 136.317 38.4346C136.55 38.4485 136.772 38.4067 136.978 38.3059C137.23 38.1831 137.436 38.0022 137.582 37.7627C137.737 37.5153 137.806 37.238 137.785 36.9443C137.764 36.645 137.631 36.3556 137.394 36.0903C136.984 35.638 136.522 35.2488 136.014 34.9314C135.516 34.6201 134.993 34.3652 134.459 34.1703C133.73 33.9059 133.023 33.7531 132.358 33.7133L132.361 33.7134Z" fill="black"/>
<path d="M95.9566 162.354C95.7483 162.354 95.5209 162.321 95.2824 162.261C94.6849 162.104 94.2574 161.804 94.0107 161.368C93.7641 160.936 93.7202 160.413 93.8764 159.815L96.0197 151.599L93.4708 150.926C92.9583 150.792 92.5911 150.541 92.3828 150.18C92.1745 149.822 92.1334 149.384 92.2649 148.88C92.3992 148.362 92.6486 147.999 93.0077 147.792C93.2214 147.671 93.4653 147.607 93.7367 147.607C93.9148 147.607 94.1094 147.635 94.3122 147.687L103.239 150.04C103.751 150.175 104.116 150.422 104.327 150.772C104.538 151.128 104.579 151.568 104.445 152.083C104.313 152.587 104.066 152.948 103.707 153.16C103.491 153.287 103.239 153.353 102.962 153.353C102.784 153.353 102.595 153.326 102.394 153.273L99.8457 152.601L97.7024 160.818C97.5462 161.415 97.2585 161.848 96.8474 162.107C96.5897 162.269 96.291 162.349 95.9539 162.349L95.9566 162.354Z" fill="white"/>
<path d="M93.7409 147.884C93.8971 147.884 94.067 147.909 94.2479 147.956L103.174 150.305C103.616 150.421 103.925 150.625 104.098 150.914C104.271 151.203 104.301 151.569 104.186 152.016C104.073 152.448 103.87 152.751 103.574 152.925C103.399 153.027 103.196 153.079 102.969 153.079C102.815 153.079 102.648 153.057 102.47 153.01L99.6553 152.269L97.4435 160.753C97.3065 161.281 97.0598 161.656 96.709 161.876C96.4953 162.011 96.2459 162.077 95.9608 162.077C95.7745 162.077 95.5744 162.05 95.3579 161.992C94.8317 161.854 94.4644 161.601 94.2534 161.229C94.0424 160.86 94.0067 160.411 94.1438 159.882L96.3555 151.399L93.5408 150.658C93.0996 150.542 92.7926 150.335 92.6199 150.041C92.4473 149.746 92.4199 149.382 92.5322 148.95C92.6474 148.507 92.8529 148.201 93.1462 148.033C93.3188 147.934 93.5161 147.887 93.7409 147.887M93.7409 147.336C93.423 147.336 93.1297 147.41 92.8748 147.554C92.45 147.796 92.1568 148.217 92.0033 148.81C91.8526 149.385 91.9019 149.895 92.1485 150.319C92.3952 150.743 92.82 151.038 93.4038 151.192L95.6868 151.793L93.6148 159.744C93.4394 160.414 93.4942 161.006 93.7765 161.505C94.0615 162.006 94.5466 162.35 95.2181 162.526C95.4785 162.595 95.7279 162.631 95.9608 162.631C96.35 162.631 96.6981 162.535 96.9996 162.345C97.4709 162.047 97.7998 161.56 97.9725 160.893L100.044 152.941L102.327 153.542C102.549 153.599 102.763 153.63 102.963 153.63C103.289 153.63 103.585 153.553 103.846 153.401C104.271 153.15 104.561 152.735 104.709 152.156C104.863 151.564 104.813 151.052 104.561 150.633C104.312 150.217 103.89 149.928 103.309 149.776L94.3822 147.427C94.1547 147.366 93.9382 147.336 93.7354 147.336H93.7409Z" fill="black"/>
<path d="M109.55 164.329C109.449 164.329 109.347 164.329 109.243 164.323C107.881 164.279 106.675 163.941 105.655 163.324C104.633 162.701 103.844 161.839 103.307 160.762C102.772 159.691 102.526 158.44 102.569 157.046C102.602 156 102.8 155.038 103.153 154.193C103.509 153.339 104.008 152.604 104.639 152.003C105.269 151.403 106.025 150.945 106.883 150.645C107.651 150.375 108.498 150.24 109.396 150.24C109.498 150.24 109.599 150.24 109.703 150.246C111.066 150.29 112.269 150.623 113.28 151.237C114.297 151.854 115.086 152.708 115.629 153.78C116.171 154.848 116.421 156.102 116.377 157.506C116.344 158.553 116.147 159.514 115.793 160.36C115.437 161.214 114.938 161.952 114.308 162.558C113.677 163.164 112.921 163.624 112.063 163.927C111.296 164.197 110.449 164.332 109.55 164.332V164.329ZM109.468 153.658C108.936 153.658 108.465 153.78 108.07 154.022C107.645 154.281 107.308 154.675 107.067 155.19C106.817 155.721 106.68 156.391 106.653 157.181C106.615 158.341 106.839 159.258 107.322 159.911C107.793 160.553 108.459 160.878 109.355 160.908C109.396 160.908 109.438 160.908 109.479 160.908C110.021 160.908 110.493 160.784 110.882 160.539C111.301 160.275 111.636 159.875 111.88 159.352C112.129 158.812 112.269 158.145 112.293 157.369C112.332 156.209 112.107 155.295 111.627 154.65C111.153 154.014 110.49 153.692 109.594 153.661C109.553 153.661 109.512 153.661 109.47 153.661L109.468 153.658Z" fill="white"/>
<path d="M109.397 150.52C109.495 150.52 109.594 150.52 109.693 150.525C111.014 150.569 112.162 150.886 113.138 151.478C114.113 152.07 114.862 152.88 115.385 153.908C115.909 154.938 116.147 156.133 116.103 157.499C116.07 158.516 115.884 159.436 115.541 160.256C115.199 161.077 114.725 161.78 114.119 162.361C113.513 162.945 112.798 163.38 111.973 163.669C111.23 163.928 110.424 164.06 109.55 164.06C109.452 164.06 109.353 164.06 109.254 164.055C107.933 164.011 106.782 163.691 105.801 163.093C104.82 162.496 104.072 161.68 103.554 160.645C103.038 159.609 102.803 158.416 102.846 157.064C102.879 156.048 103.068 155.128 103.408 154.307C103.751 153.486 104.225 152.787 104.831 152.211C105.436 151.635 106.152 151.203 106.977 150.911C107.719 150.652 108.525 150.52 109.399 150.52M109.479 161.19C110.076 161.19 110.594 161.052 111.03 160.777C111.496 160.482 111.863 160.047 112.129 159.471C112.395 158.896 112.543 158.199 112.568 157.381C112.609 156.152 112.368 155.188 111.847 154.489C111.326 153.789 110.578 153.423 109.602 153.39C109.558 153.39 109.515 153.39 109.471 153.39C108.884 153.39 108.369 153.525 107.93 153.795C107.456 154.084 107.089 154.511 106.823 155.081C106.557 155.651 106.412 156.351 106.385 157.18C106.344 158.408 106.585 159.375 107.105 160.083C107.626 160.788 108.374 161.16 109.35 161.19C109.394 161.19 109.438 161.19 109.482 161.19M109.402 149.969C108.473 149.969 107.596 150.109 106.799 150.39C105.902 150.704 105.116 151.183 104.455 151.809C103.797 152.434 103.277 153.202 102.904 154.092C102.537 154.971 102.334 155.965 102.298 157.045C102.252 158.483 102.509 159.777 103.063 160.893C103.622 162.016 104.447 162.917 105.516 163.567C106.574 164.212 107.826 164.562 109.235 164.608C109.342 164.611 109.446 164.614 109.55 164.614C110.482 164.614 111.356 164.473 112.154 164.192C113.05 163.878 113.839 163.396 114.5 162.763C115.158 162.132 115.678 161.361 116.048 160.471C116.416 159.593 116.618 158.601 116.654 157.519C116.701 156.067 116.44 154.767 115.878 153.66C115.311 152.541 114.486 151.652 113.425 151.007C112.373 150.371 111.126 150.024 109.715 149.977C109.608 149.974 109.504 149.972 109.399 149.972L109.402 149.969ZM109.482 160.639C109.443 160.639 109.408 160.639 109.369 160.639C108.564 160.612 107.966 160.323 107.547 159.755C107.103 159.155 106.897 158.295 106.933 157.199C106.957 156.447 107.089 155.814 107.319 155.315C107.539 154.844 107.832 154.5 108.215 154.266C108.572 154.048 108.983 153.943 109.473 153.943C109.512 153.943 109.547 153.943 109.586 153.943C110.392 153.971 110.989 154.257 111.408 154.822C111.85 155.417 112.055 156.271 112.02 157.367C111.995 158.108 111.866 158.739 111.63 159.243C111.408 159.725 111.115 160.075 110.737 160.314C110.386 160.535 109.975 160.642 109.479 160.642L109.482 160.639Z" fill="black"/>
<path d="M123.322 162.975C123.144 162.975 122.966 162.967 122.796 162.953C121.993 162.887 121.266 162.666 120.633 162.297C119.997 161.926 119.455 161.394 119.016 160.714C118.583 160.044 118.249 159.221 118.016 158.268L116.607 152.461C116.456 151.833 116.509 151.305 116.769 150.886C117.027 150.47 117.46 150.186 118.057 150.04C118.282 149.985 118.498 149.958 118.698 149.958C119.038 149.958 119.34 150.038 119.6 150.197C120.014 150.451 120.302 150.897 120.452 151.522L121.869 157.367C122.078 158.224 122.417 158.827 122.883 159.157C123.182 159.369 123.525 159.474 123.928 159.474C124.141 159.474 124.372 159.444 124.615 159.383C125.309 159.212 125.772 158.887 126.03 158.386C126.29 157.879 126.317 157.188 126.109 156.329L124.692 150.487C124.541 149.861 124.591 149.332 124.843 148.917C125.095 148.501 125.525 148.217 126.126 148.068C126.342 148.016 126.553 147.988 126.745 147.988C127.082 147.988 127.386 148.071 127.644 148.231C128.05 148.487 128.332 148.93 128.485 149.556L129.894 155.362C130.204 156.64 130.245 157.786 130.012 158.769C129.776 159.766 129.261 160.606 128.477 161.262C127.71 161.909 126.682 162.391 125.421 162.7C124.678 162.881 123.974 162.975 123.327 162.975H123.322Z" fill="white"/>
<path d="M126.745 148.262C127.033 148.262 127.285 148.328 127.499 148.463C127.844 148.678 128.082 149.064 128.217 149.62L129.625 155.426C129.927 156.669 129.965 157.762 129.743 158.704C129.521 159.646 129.039 160.428 128.299 161.051C127.559 161.673 126.578 162.133 125.355 162.434C124.629 162.613 123.952 162.701 123.324 162.701C123.152 162.701 122.985 162.695 122.82 162.681C122.056 162.621 121.373 162.414 120.773 162.062C120.173 161.709 119.663 161.213 119.246 160.566C118.83 159.922 118.509 159.134 118.284 158.206L116.876 152.399C116.741 151.846 116.782 151.391 117.004 151.036C117.224 150.683 117.596 150.441 118.125 150.311C118.331 150.262 118.523 150.237 118.701 150.237C118.991 150.237 119.244 150.303 119.46 150.435C119.811 150.65 120.052 151.036 120.189 151.589L121.606 157.432C121.831 158.36 122.206 159.01 122.727 159.379C123.072 159.624 123.472 159.745 123.93 159.745C124.166 159.745 124.415 159.712 124.681 159.649C125.449 159.462 125.98 159.081 126.273 158.511C126.567 157.941 126.602 157.192 126.378 156.264L124.961 150.422C124.826 149.868 124.865 149.414 125.079 149.061C125.292 148.708 125.662 148.469 126.191 148.339C126.389 148.29 126.575 148.268 126.745 148.268M126.745 147.717C126.531 147.717 126.301 147.747 126.06 147.805C125.388 147.97 124.9 148.295 124.61 148.777C124.319 149.257 124.256 149.857 124.426 150.557L125.843 156.399C126.035 157.189 126.016 157.817 125.786 158.263C125.566 158.688 125.161 158.969 124.55 159.12C124.328 159.175 124.119 159.203 123.927 159.203C123.582 159.203 123.294 159.115 123.042 158.935C122.634 158.646 122.33 158.098 122.138 157.308L120.721 151.466C120.551 150.766 120.222 150.265 119.745 149.973C119.441 149.788 119.09 149.694 118.701 149.694C118.479 149.694 118.243 149.725 117.994 149.785C117.322 149.951 116.835 150.276 116.539 150.755C116.24 151.237 116.174 151.837 116.344 152.54L117.753 158.346C117.991 159.332 118.339 160.183 118.789 160.877C119.249 161.593 119.825 162.155 120.499 162.549C121.168 162.94 121.935 163.174 122.779 163.243C122.957 163.257 123.141 163.265 123.327 163.265C123.996 163.265 124.722 163.172 125.487 162.984C126.789 162.665 127.852 162.164 128.655 161.489C129.483 160.792 130.031 159.902 130.28 158.847C130.522 157.823 130.483 156.636 130.162 155.313L128.754 149.507C128.584 148.81 128.26 148.309 127.792 148.014C127.488 147.824 127.137 147.728 126.748 147.728L126.745 147.717Z" fill="black"/>
<path d="M134.956 159.151C134.766 159.151 134.583 159.121 134.407 159.058C133.939 158.892 133.563 158.529 133.292 157.975L128.953 149.164C128.674 148.596 128.616 148.067 128.781 147.596C128.945 147.125 129.307 146.748 129.858 146.475L133.944 144.443C134.901 143.966 135.805 143.727 136.63 143.727C136.997 143.727 137.359 143.773 137.702 143.87C138.82 144.181 139.694 144.958 140.297 146.183C140.684 146.971 140.851 147.753 140.793 148.514C140.733 149.279 140.451 149.993 139.949 150.632C139.93 150.657 139.911 150.681 139.889 150.706H139.922C140.445 150.761 140.971 150.976 141.484 151.348L143.049 152.433C143.424 152.695 143.696 153.009 143.857 153.364C144.03 153.747 144.033 154.135 143.871 154.516C143.715 154.885 143.386 155.193 142.895 155.438C142.501 155.634 142.12 155.736 141.772 155.736C141.698 155.736 141.626 155.73 141.558 155.722C141.155 155.675 140.733 155.499 140.303 155.201L137.417 153.163C137.222 153.025 137.03 152.957 136.847 152.957C136.614 152.962 136.389 153.025 136.164 153.138L135.495 153.472L136.844 156.212C137.115 156.763 137.181 157.281 137.041 157.746C136.899 158.22 136.534 158.606 135.956 158.892C135.611 159.063 135.276 159.151 134.961 159.151H134.956ZM134.177 150.808L135.959 149.924C136.488 149.66 136.841 149.359 137.008 149.029C137.165 148.72 137.14 148.37 136.937 147.96C136.745 147.572 136.485 147.349 136.142 147.28C136.063 147.263 135.981 147.258 135.893 147.258C135.578 147.258 135.208 147.362 134.794 147.569L133.012 148.453L134.174 150.814L134.177 150.808Z" fill="white"/>
<path d="M136.626 144.002C136.971 144.002 137.303 144.047 137.624 144.135C138.67 144.424 139.476 145.148 140.046 146.305C140.414 147.052 140.57 147.779 140.515 148.492C140.46 149.206 140.197 149.861 139.728 150.462C139.578 150.654 139.402 150.839 139.208 151.015C139.361 150.988 139.515 150.971 139.665 150.971C139.739 150.971 139.816 150.974 139.89 150.982C140.367 151.029 140.844 151.225 141.318 151.572L142.888 152.662C143.225 152.896 143.461 153.169 143.601 153.48C143.741 153.792 143.743 154.1 143.615 154.409C143.483 154.717 143.204 154.976 142.771 155.191C142.412 155.37 142.077 155.458 141.767 155.458C141.704 155.458 141.644 155.455 141.584 155.447C141.225 155.403 140.847 155.246 140.449 154.971L137.566 152.935C137.322 152.764 137.081 152.676 136.84 152.676C136.829 152.676 136.821 152.676 136.81 152.676C136.557 152.684 136.3 152.753 136.034 152.885L135.121 153.34L136.593 156.328C136.834 156.819 136.895 157.262 136.774 157.662C136.653 158.061 136.338 158.386 135.828 158.639C135.519 158.794 135.228 158.871 134.954 158.871C134.795 158.871 134.644 158.846 134.496 158.794C134.096 158.653 133.776 158.339 133.534 157.849L129.196 149.038C128.949 148.536 128.894 148.085 129.037 147.682C129.177 147.28 129.489 146.958 129.977 146.716L134.063 144.683C134.987 144.223 135.839 143.994 136.626 143.994M134.052 151.169L136.078 150.161C136.664 149.869 137.056 149.531 137.251 149.142C137.445 148.754 137.423 148.316 137.182 147.826C136.952 147.357 136.623 147.082 136.196 146.997C136.1 146.977 135.998 146.969 135.894 146.969C135.535 146.969 135.13 147.082 134.675 147.308L132.649 148.316L134.055 151.169M136.629 143.443C135.76 143.443 134.817 143.694 133.822 144.19L129.739 146.223C129.122 146.528 128.714 146.958 128.524 147.501C128.335 148.046 128.398 148.644 128.711 149.28L133.049 158.091C133.354 158.714 133.784 159.124 134.321 159.311C134.524 159.383 134.74 159.419 134.96 159.419C135.316 159.419 135.691 159.322 136.075 159.132C136.722 158.81 137.136 158.369 137.3 157.821C137.462 157.284 137.391 156.7 137.086 156.083L135.859 153.591L136.281 153.381C136.472 153.285 136.659 153.235 136.829 153.23H136.842C136.969 153.23 137.106 153.282 137.254 153.387L140.137 155.422C140.611 155.75 141.074 155.94 141.521 155.992C141.603 156.003 141.685 156.006 141.767 156.006C142.159 156.006 142.579 155.896 143.014 155.681C143.563 155.408 143.935 155.05 144.119 154.621C144.311 154.174 144.305 153.698 144.103 153.249C143.922 152.847 143.62 152.494 143.201 152.205L141.63 151.114C141.225 150.817 140.8 150.613 140.372 150.506C140.775 149.9 141.008 149.236 141.063 148.531C141.126 147.718 140.951 146.886 140.54 146.055C139.901 144.757 138.969 143.928 137.772 143.598C137.407 143.496 137.021 143.443 136.629 143.443ZM133.384 148.567L134.918 147.804C135.294 147.616 135.623 147.523 135.897 147.523C135.965 147.523 136.031 147.528 136.092 147.542C136.253 147.575 136.492 147.663 136.694 148.074C136.908 148.511 136.837 148.754 136.766 148.897C136.626 149.175 136.314 149.434 135.839 149.671L134.305 150.434L133.386 148.567H133.384Z" fill="black"/>
<path d="M146.281 152.339C146.018 152.339 145.777 152.284 145.563 152.177C145.248 152.017 145.002 151.78 144.829 151.469C144.662 151.166 144.577 150.841 144.582 150.505C144.588 150.158 144.7 149.838 144.919 149.557C145.141 149.271 145.481 149.078 145.928 148.982C146.421 148.885 146.934 148.717 147.463 148.475C147.994 148.232 148.469 147.957 148.869 147.662C149.628 147.103 149.885 146.726 149.965 146.508C150.102 146.136 150.006 145.938 149.921 145.822C149.803 145.663 149.655 145.585 149.455 145.583C149.277 145.583 148.945 145.64 148.332 145.919L146.309 146.833C145.435 147.233 144.626 147.436 143.905 147.436C143.678 147.436 143.456 147.417 143.242 147.376C142.343 147.208 141.573 146.695 140.956 145.85C140.553 145.296 140.296 144.698 140.192 144.076C140.088 143.454 140.131 142.82 140.318 142.192C140.501 141.572 140.817 140.961 141.255 140.371C141.694 139.787 142.261 139.234 142.946 138.73C143.475 138.339 144.064 137.997 144.697 137.711C145.339 137.421 145.958 137.245 146.542 137.187C146.624 137.173 146.72 137.168 146.813 137.168C147.079 137.168 147.328 137.231 147.556 137.353C147.852 137.512 148.088 137.735 148.258 138.016C148.43 138.303 148.51 138.611 148.499 138.934C148.485 139.264 148.367 139.567 148.142 139.834C147.92 140.099 147.575 140.291 147.115 140.402C146.75 140.482 146.369 140.616 145.98 140.809C145.585 141.005 145.221 141.225 144.897 141.462C144.555 141.715 144.289 141.972 144.111 142.222C143.946 142.454 143.853 142.677 143.84 142.883C143.826 143.079 143.875 143.25 143.99 143.407C144.094 143.55 144.237 143.624 144.437 143.635H144.475C144.64 143.635 144.958 143.58 145.539 143.316L147.548 142.415C148.471 142.002 149.315 141.793 150.058 141.793C150.253 141.793 150.442 141.806 150.623 141.834C151.522 141.974 152.284 142.465 152.889 143.291C153.292 143.845 153.55 144.434 153.654 145.051C153.758 145.665 153.717 146.293 153.533 146.91C153.352 147.522 153.032 148.13 152.582 148.717C152.136 149.298 151.555 149.857 150.85 150.378C150.445 150.676 149.995 150.965 149.513 151.232C149.028 151.502 148.54 151.73 148.063 151.91C147.581 152.091 147.117 152.224 146.684 152.303C146.547 152.328 146.41 152.342 146.284 152.342L146.281 152.339Z" fill="white"/>
<path d="M146.817 137.438C147.039 137.438 147.241 137.488 147.428 137.59C147.68 137.728 147.88 137.915 148.022 138.155C148.168 138.394 148.233 138.65 148.223 138.918C148.212 139.185 148.116 139.433 147.932 139.653C147.748 139.873 147.455 140.033 147.049 140.129C146.666 140.212 146.268 140.355 145.857 140.556C145.446 140.76 145.071 140.986 144.734 141.234C144.366 141.507 144.084 141.779 143.887 142.055C143.689 142.33 143.583 142.597 143.566 142.856C143.547 143.115 143.615 143.349 143.769 143.561C143.922 143.771 144.139 143.886 144.418 143.903C144.438 143.903 144.454 143.903 144.473 143.903C144.75 143.903 145.145 143.787 145.649 143.559L147.655 142.658C148.546 142.259 149.346 142.058 150.053 142.058C150.234 142.058 150.41 142.071 150.577 142.096C151.404 142.226 152.101 142.675 152.662 143.446C153.043 143.966 153.282 144.514 153.378 145.087C153.476 145.663 153.438 146.241 153.265 146.823C153.093 147.404 152.791 147.977 152.358 148.541C151.928 149.106 151.369 149.64 150.681 150.147C150.283 150.442 149.845 150.72 149.374 150.985C148.899 151.249 148.428 151.469 147.959 151.646C147.491 151.822 147.047 151.949 146.627 152.026C146.504 152.048 146.389 152.059 146.277 152.059C146.057 152.059 145.857 152.015 145.682 151.924C145.416 151.789 145.21 151.59 145.065 151.329C144.92 151.067 144.849 150.792 144.854 150.503C144.86 150.216 144.953 149.954 145.134 149.72C145.315 149.486 145.597 149.329 145.983 149.247C146.493 149.147 147.025 148.974 147.576 148.72C148.127 148.467 148.612 148.189 149.031 147.88C149.689 147.396 150.086 146.969 150.22 146.6C150.357 146.23 150.33 145.916 150.141 145.655C149.974 145.423 149.746 145.308 149.459 145.302C149.453 145.302 149.448 145.302 149.445 145.302C149.16 145.302 148.751 145.423 148.217 145.663L146.194 146.575C145.353 146.96 144.588 147.153 143.903 147.153C143.692 147.153 143.487 147.134 143.292 147.098C142.459 146.944 141.754 146.47 141.176 145.68C140.795 145.159 140.56 144.608 140.464 144.024C140.368 143.44 140.406 142.854 140.581 142.264C140.757 141.675 141.053 141.096 141.478 140.532C141.9 139.967 142.445 139.438 143.111 138.945C143.629 138.562 144.196 138.234 144.813 137.956C145.43 137.678 146.016 137.513 146.573 137.455C146.655 137.441 146.737 137.436 146.817 137.436M146.817 136.885C146.715 136.885 146.611 136.893 146.504 136.907C145.896 136.97 145.252 137.152 144.588 137.452C143.936 137.747 143.33 138.099 142.785 138.499C142.078 139.019 141.489 139.592 141.036 140.198C140.576 140.813 140.247 141.454 140.055 142.107C139.858 142.776 139.814 143.451 139.924 144.115C140.033 144.782 140.307 145.418 140.738 146.007C141.398 146.911 142.226 147.462 143.196 147.643C143.424 147.685 143.665 147.707 143.909 147.707C144.671 147.707 145.517 147.495 146.427 147.079L148.447 146.167C149.047 145.894 149.332 145.856 149.45 145.856C149.571 145.856 149.639 145.892 149.705 145.983C149.741 146.032 149.815 146.134 149.713 146.409C149.659 146.558 149.456 146.891 148.713 147.437C148.327 147.721 147.872 147.985 147.356 148.222C146.847 148.456 146.353 148.618 145.887 148.709C145.364 148.822 144.972 149.048 144.712 149.387C144.457 149.718 144.323 150.092 144.317 150.5C144.312 150.885 144.405 151.254 144.599 151.602C144.797 151.96 145.084 152.235 145.449 152.42C145.701 152.546 145.986 152.612 146.29 152.612C146.436 152.612 146.586 152.599 146.743 152.568C147.192 152.486 147.669 152.348 148.165 152.161C148.656 151.976 149.157 151.742 149.653 151.467C150.146 151.191 150.604 150.896 151.018 150.593C151.744 150.059 152.344 149.483 152.805 148.88C153.274 148.266 153.611 147.627 153.803 146.985C154 146.324 154.044 145.658 153.931 144.999C153.819 144.341 153.545 143.71 153.117 143.123C152.468 142.234 151.646 141.708 150.673 141.556C150.478 141.526 150.273 141.509 150.064 141.509C149.283 141.509 148.401 141.727 147.441 142.157L145.435 143.057C144.865 143.316 144.594 143.355 144.481 143.355H144.46C144.325 143.347 144.265 143.303 144.218 143.236C144.142 143.132 144.111 143.024 144.12 142.898C144.131 142.743 144.205 142.567 144.339 142.377C144.501 142.151 144.747 141.914 145.065 141.68C145.375 141.452 145.726 141.239 146.107 141.052C146.477 140.87 146.836 140.741 147.173 140.669C147.705 140.543 148.099 140.319 148.36 140.008C148.623 139.694 148.762 139.333 148.779 138.942C148.793 138.565 148.699 138.204 148.499 137.871C148.305 137.546 148.033 137.29 147.694 137.105C147.428 136.962 147.134 136.888 146.822 136.888L146.817 136.885Z" fill="black"/>
</g>
<defs>
<clipPath id="clip0_760_589">
<rect width="220" height="192.877" fill="white"/>
</clipPath>
</defs>
</svg>
