<svg width="29" height="28" viewBox="0 0 29 28" fill="none" xmlns="http://www.w3.org/2000/svg">
<g clip-path="url(#clip0_1_986)">
<path d="M22.7171 3.40894C18.1719 -1.13631 10.8295 -1.13631 6.34254 3.40894C1.79728 7.95419 1.79728 15.2382 6.34254 19.7835L14.5007 27.9999L22.6589 19.8418C27.2041 15.2965 27.2041 7.95419 22.7171 3.40894Z" fill="#B34B1E"/>
<path d="M20.0919 17.1582C17.0035 20.2467 12.0503 20.2467 8.96183 17.1582C5.8734 14.0698 5.8734 9.11665 8.96183 6.02823C12.0503 2.93981 17.0035 2.93981 20.0919 6.02823C23.122 9.11665 23.122 14.1281 20.0919 17.1582Z" fill="#F6B900"/>
<path d="M8.08789 11.7431L13.3324 12.792L14.3813 18.0365L18.8101 7.31445L8.08789 11.7431Z" fill="#B34B1E"/>
</g>
<defs>
<clipPath id="clip0_1_986">
<rect width="28" height="27.9999" fill="white" transform="translate(0.5)"/>
</clipPath>
</defs>
</svg>
