<svg width="32" height="32" viewBox="0 0 32 32" fill="none" xmlns="http://www.w3.org/2000/svg">
<g clip-path="url(#clip0_1_2774)">
<path d="M25.6044 2.93359H7.47109C6.58896 2.93359 5.87109 3.65146 5.87109 4.53359V5.60026C5.87109 5.74171 5.92728 5.87736 6.0273 5.97738C6.12732 6.0774 6.26298 6.13359 6.40443 6.13359H26.6711C26.8125 6.13359 26.9482 6.0774 27.0482 5.97738C27.1482 5.87736 27.2044 5.74171 27.2044 5.60026V4.53359C27.2044 3.65146 26.4866 2.93359 25.6044 2.93359Z" fill="#F2BE22"/>
<path d="M29.3372 24.2664H2.67057C1.20017 24.2664 0.00390625 23.0701 0.00390625 21.5997V10.9331C0.00390625 7.69841 2.63591 5.06641 5.87057 5.06641H26.1372C29.3719 5.06641 32.0039 7.69841 32.0039 10.9331V21.5997C32.0039 23.0701 30.8076 24.2664 29.3372 24.2664ZM5.87057 6.13307C3.22417 6.13307 1.07057 8.28614 1.07057 10.9331V21.5997C1.07057 22.4819 1.78844 23.1997 2.67057 23.1997H29.3372C30.2194 23.1997 30.9372 22.4819 30.9372 21.5997V10.9331C30.9372 8.28614 28.7836 6.13307 26.1372 6.13307H5.87057Z" fill="white"/>
<path d="M24.5372 24.2664C24.3958 24.2664 24.2601 24.2102 24.1601 24.1102C24.0601 24.0102 24.0039 23.8745 24.0039 23.7331V5.59974C24.0039 5.45829 24.0601 5.32264 24.1601 5.22262C24.2601 5.1226 24.3958 5.06641 24.5372 5.06641C24.6787 5.06641 24.8143 5.1226 24.9144 5.22262C25.0144 5.32264 25.0706 5.45829 25.0706 5.59974V23.7331C25.0706 23.8745 25.0144 24.0102 24.9144 24.1102C24.8143 24.2102 24.6787 24.2664 24.5372 24.2664Z" fill="white"/>
<path d="M31.4701 17.8677H24.5367C23.8375 17.8565 23.8343 16.8128 24.5367 16.801H31.4701C32.1687 16.8117 32.173 17.856 31.4701 17.8677ZM9.07005 7.73438H16.0034V15.7344H9.07005V7.73438ZM5.33672 7.73438C4.48803 7.73438 3.67409 8.07152 3.07398 8.67163C2.47386 9.27175 2.13672 10.0857 2.13672 10.9344V14.6677C2.13672 14.9506 2.2491 15.2219 2.44914 15.422C2.64918 15.622 2.92049 15.7344 3.20339 15.7344H8.53672V7.73438H5.33672ZM21.8701 7.73438H16.5367V15.7344H21.8701C22.153 15.7344 22.4243 15.622 22.6243 15.422C22.8243 15.2219 22.9367 14.9506 22.9367 14.6677V8.80104C22.9367 8.51814 22.8243 8.24683 22.6243 8.04679C22.4243 7.84676 22.153 7.73438 21.8701 7.73438ZM11.7367 23.7344C11.7367 24.7245 11.3434 25.6741 10.6433 26.3742C9.94312 27.0744 8.99353 27.4677 8.00339 27.4677C3.05672 27.2848 3.05779 20.1834 8.00339 20.001C8.99353 20.001 9.94312 20.3944 10.6433 21.0945C11.3434 21.7946 11.7367 22.7442 11.7367 23.7344Z" fill="white"/>
<path d="M8.00495 27.9995C5.65241 27.9995 3.73828 26.0854 3.73828 23.7329C3.97295 18.0726 12.038 18.0742 12.2716 23.7329C12.2716 26.0854 10.3575 27.9995 8.00495 27.9995ZM8.00495 20.5329C6.24015 20.5329 4.80495 21.9681 4.80495 23.7329C4.95481 27.9681 11.0556 27.9675 11.2049 23.7329C11.2049 21.9681 9.76975 20.5329 8.00495 20.5329ZM27.2049 23.7329C27.2049 24.723 26.8116 25.6726 26.1115 26.3727C25.4113 27.0729 24.4618 27.4662 23.4716 27.4662C18.5249 27.2833 18.526 20.1819 23.4716 19.9995C24.4618 19.9995 25.4113 20.3929 26.1115 21.093C26.8116 21.7932 27.2049 22.7427 27.2049 23.7329Z" fill="white"/>
<path d="M23.4723 28.0016C21.1197 28.0016 19.2056 26.0874 19.2056 23.7349C19.4403 18.0746 27.5053 18.0762 27.7389 23.7349C27.7389 26.0874 25.8248 28.0016 23.4723 28.0016ZM23.4723 20.5349C21.7075 20.5349 20.2723 21.9701 20.2723 23.7349C20.4221 27.9701 26.5229 27.9696 26.6723 23.7349C26.6723 21.9701 25.2371 20.5349 23.4723 20.5349ZM14.4056 29.0682H1.07228C0.375746 29.0576 0.367746 28.0138 1.07228 28.0016H14.4056C15.1021 28.0122 15.1101 29.056 14.4056 29.0682ZM26.6723 29.0682H19.2056C18.5069 29.0576 18.5027 28.0133 19.2056 28.0016H26.6723C27.3709 28.0122 27.3752 29.0565 26.6723 29.0682ZM29.8723 29.0682H28.8056C28.1048 29.0565 28.1043 28.0133 28.8056 28.0016H29.8723C30.5731 28.0133 30.5736 29.0565 29.8723 29.0682ZM31.4723 10.9349V17.3349H24.5389V5.60156H26.1389C29.0829 5.60156 31.4723 7.9909 31.4723 10.9349Z" fill="white"/>
</g>
<defs>
<clipPath id="clip0_1_2774">
<rect width="32" height="32" fill="white"/>
</clipPath>
</defs>
</svg>
