<svg width="14" height="14" viewBox="0 0 14 14" fill="none" xmlns="http://www.w3.org/2000/svg">
<g clip-path="url(#clip0_1_2740)">
<path d="M7.00288 11.0117L3.83874 7.84765C3.67814 7.68689 3.48171 7.60669 3.24947 7.60669C3.01727 7.60669 2.82093 7.68691 2.66034 7.84765L2.17198 8.33586C2.01144 8.49637 1.93115 8.69283 1.93115 8.92497C1.93115 9.15711 2.01144 9.35347 2.17198 9.51423L6.41035 13.7591C6.57096 13.9197 6.76736 14 6.99962 14C7.23187 14 7.42812 13.9197 7.5888 13.7591L11.8272 9.51426C11.9878 9.35349 12.0681 9.15715 12.0681 8.92499C12.0681 8.69282 11.9878 8.49639 11.8272 8.33588L11.3389 7.84768C11.1784 7.68691 10.9831 7.60671 10.7529 7.60671C10.5229 7.60671 10.3254 7.68694 10.1605 7.84768L7.00288 11.0117Z" fill="#727272"/>
<path d="M7.00288 2.98834L3.83874 6.15235C3.67814 6.31311 3.48171 6.39331 3.24947 6.39331C3.01727 6.39331 2.82093 6.31309 2.66034 6.15235L2.17198 5.66414C2.01144 5.50363 1.93115 5.30717 1.93115 5.07503C1.93115 4.84289 2.01144 4.64653 2.17198 4.48577L6.41035 0.240943C6.57096 0.0803145 6.76736 2.11398e-07 6.99962 2.2155e-07C7.23187 2.31702e-07 7.42812 0.0802918 7.5888 0.240943L11.8272 4.48574C11.9878 4.64651 12.0681 4.84285 12.0681 5.07501C12.0681 5.30718 11.9878 5.50361 11.8272 5.66412L11.3389 6.15232C11.1784 6.31309 10.9831 6.39329 10.7529 6.39329C10.5229 6.39329 10.3254 6.31306 10.1605 6.15232L7.00288 2.98834Z" fill="#727272"/>
</g>
<defs>
<clipPath id="clip0_1_2740">
<rect width="14" height="14" fill="white" transform="translate(0 14) rotate(-90)"/>
</clipPath>
</defs>
</svg>
