<svg width="14" height="14" viewBox="0 0 14 14" fill="none" xmlns="http://www.w3.org/2000/svg">
<path d="M7.00288 6.90497L3.83874 3.74097C3.67814 3.5802 3.48171 3.5 3.24947 3.5C3.01727 3.5 2.82093 3.58022 2.66034 3.74097L2.17198 4.22917C2.01144 4.38968 1.93115 4.58614 1.93115 4.81828C1.93115 5.05042 2.01144 5.24678 2.17198 5.40754L6.41035 9.65237C6.57096 9.813 6.76736 9.89331 6.99962 9.89331C7.23187 9.89331 7.42812 9.81302 7.5888 9.65237L11.8272 5.40757C11.9878 5.2468 12.0681 5.05046 12.0681 4.8183C12.0681 4.58614 11.9878 4.3897 11.8272 4.22919L11.3389 3.74099C11.1784 3.58022 10.9831 3.50002 10.7529 3.50002C10.5229 3.50002 10.3254 3.58025 10.1605 3.74099L7.00288 6.90497Z" fill="#727272"/>
</svg>
