<svg width="261" height="124" viewBox="0 0 261 124" fill="none" xmlns="http://www.w3.org/2000/svg">
<path d="M10.175 9.31557C9.6425 9.36346 9.12887 9.28306 8.63409 9.07436C8.13931 8.86566 7.71638 8.49858 7.36529 7.97312C7.02424 7.44676 6.81486 6.75158 6.73716 5.88757L6.56639 3.98877L2.31668 4.37096L2.16217 2.653L12.6358 1.71105L12.961 5.32783C13.0333 6.13156 12.9536 6.82235 12.722 7.40021C12.5014 7.98722 12.1672 8.43758 11.7194 8.75131C11.2725 9.07508 10.7577 9.26317 10.175 9.31557ZM8.13866 5.76153C8.19739 6.41456 8.38689 6.88872 8.70715 7.184C9.03746 7.47839 9.47388 7.60119 10.0164 7.55239C11.1617 7.44939 11.6761 6.74988 11.5595 5.45387L11.3888 3.55506L7.96789 3.86272L8.13866 5.76153Z" fill="#727272"/>
<path d="M4.19732 18.8824C4.04957 18.1096 4.08942 17.3779 4.31685 16.6874C4.55419 15.9951 4.95581 15.4099 5.52171 14.932C6.09752 14.4522 6.8065 14.1318 7.64866 13.9708C8.48091 13.8117 9.25407 13.8538 9.96816 14.0973C10.6822 14.3408 11.2733 14.7464 11.7413 15.3142C12.2093 15.882 12.5181 16.5572 12.6677 17.3399C12.8174 18.1227 12.7794 18.8642 12.5539 19.5646C12.3284 20.265 11.9286 20.86 11.3547 21.3497C10.7808 21.8395 10.0777 22.1639 9.24548 22.323C8.41324 22.4821 7.63912 22.435 6.92314 22.1816C6.20716 21.9282 5.60832 21.5087 5.12663 20.923C4.65673 20.3453 4.34697 19.6651 4.19732 18.8824ZM5.66862 18.6011C5.75196 19.037 5.93366 19.4233 6.2137 19.76C6.49563 20.1067 6.86739 20.3591 7.32898 20.5173C7.79056 20.6755 8.31859 20.6978 8.91305 20.5842C9.50751 20.4705 9.98606 20.2609 10.3487 19.9554C10.7213 19.648 10.9756 19.2861 11.1117 18.8698C11.2478 18.4536 11.2741 18.0275 11.1908 17.5915C11.1074 17.1556 10.9257 16.7693 10.6457 16.4325C10.3675 16.1057 9.99957 15.8731 9.54178 15.7347C9.09389 15.5944 8.57271 15.5811 7.97825 15.6947C7.09647 15.8633 6.45546 16.2169 6.05522 16.7556C5.66678 17.3023 5.53792 17.9174 5.66862 18.6011Z" fill="#727272"/>
<path d="M17.6256 36.0481L8.89636 36.0291L8.36195 34.2938L13.7531 30.8762L7.37331 31.0836L6.83891 29.3483L14.0407 24.4073L14.5573 26.0848L8.66339 29.7206L15.5904 29.4396L16.1204 31.1604L10.2421 34.7439L17.1268 34.4285L17.6256 36.0481Z" fill="#727272"/>
<path d="M18.3924 47.6711C18.1055 47.7954 17.8383 47.8891 17.5908 47.9523L15.0599 42.1066C14.469 42.4174 14.0766 42.8566 13.8826 43.4242C13.6887 43.9918 13.72 44.5718 13.9765 45.1643C14.3452 46.0159 14.9621 46.4633 15.8272 46.5064L16.5666 48.2143C15.7629 48.2875 15.002 48.1168 14.2839 47.7022C13.5791 47.2929 13.0323 46.6393 12.6435 45.7414C12.3269 45.0101 12.2043 44.2827 12.2758 43.5593C12.3606 42.8411 12.627 42.1871 13.0752 41.5974C13.5366 41.0129 14.1607 40.5503 14.9476 40.2096C15.7344 39.869 16.4922 39.7278 17.2209 39.786C17.9628 39.8495 18.62 40.098 19.1925 40.5317C19.769 40.9746 20.2195 41.5709 20.5442 42.3207C20.8568 43.0428 20.978 43.7543 20.9077 44.4552C20.8374 45.1561 20.5835 45.7882 20.1458 46.3514C19.7174 46.9106 19.133 47.3505 18.3924 47.6711ZM18.1769 45.8024C18.7561 45.5406 19.1334 45.13 19.3088 44.5704C19.4842 44.0108 19.4416 43.4301 19.1811 42.8284C18.9447 42.2823 18.5664 41.891 18.0463 41.6545C17.5355 41.414 16.9678 41.385 16.3433 41.5674L18.1769 45.8024Z" fill="#727272"/>
<path d="M23.8147 52.0121C24.3074 52.0317 24.7543 52.1679 25.1555 52.4207C25.5703 52.6776 25.9148 53.0588 26.1891 53.5641L24.6198 54.4157L24.4105 54.03C24.0882 53.436 23.6921 53.0656 23.2223 52.9189C22.7572 52.781 22.1524 52.9141 21.4076 53.3183L17.551 55.4111L16.7283 53.895L24.056 49.9187L24.8786 51.4348L23.8147 52.0121Z" fill="#727272"/>
<path d="M29.6086 66.5599C29.3481 66.7327 29.1016 66.8721 28.8691 66.9779L25.3476 61.6698C24.8207 62.0798 24.5118 62.5813 24.421 63.1742C24.3301 63.7671 24.4631 64.3326 24.82 64.8705C25.3331 65.6438 26.0191 65.9755 26.8783 65.8655L27.9071 67.4163C27.1289 67.63 26.3498 67.5961 25.5699 67.3146C24.804 67.0359 24.1505 66.4889 23.6096 65.6735C23.1691 65.0095 22.9202 64.3151 22.8631 63.5904C22.82 62.8685 22.967 62.1778 23.3042 61.5183C23.6554 60.8616 24.1882 60.2963 24.9027 59.8223C25.6172 59.3483 26.3382 59.0757 27.0657 59.0046C27.8073 58.9364 28.498 59.0652 29.138 59.3912C29.7835 59.7255 30.3321 60.2331 30.7838 60.914C31.2187 61.5696 31.4634 62.2486 31.5178 62.951C31.5722 63.6533 31.4336 64.3202 31.102 64.9518C30.7789 65.5777 30.2811 66.1138 29.6086 66.5599ZM29.0671 64.7584C29.5911 64.3986 29.8901 63.9279 29.9642 63.3461C30.0382 62.7644 29.894 62.2003 29.5315 61.654C29.2025 61.158 28.7612 60.8395 28.2076 60.6984C27.6624 60.5517 27.0985 60.6232 26.5159 60.9128L29.0671 64.7584Z" fill="#727272"/>
<path d="M31.9573 69.9301C32.6038 69.3981 33.2852 69.0594 34.0017 68.9141C34.7245 68.7765 35.4113 68.8253 36.0621 69.0606C36.727 69.2972 37.2935 69.6998 37.7613 70.2684C38.1074 70.689 38.3537 71.1788 38.5 71.7376C38.6605 72.2979 38.6883 72.8237 38.5832 73.3151L41.6911 70.7578L42.7967 72.1015L34.1506 79.2158L33.045 77.8721L34.0148 77.0742C33.5238 77.1124 33.0168 77.0202 32.4938 76.7974C31.9772 76.5823 31.5138 76.2256 31.1036 75.727C30.6422 75.1662 30.3594 74.5368 30.2552 73.8387C30.1653 73.142 30.2613 72.449 30.5433 71.7598C30.8394 71.0719 31.3108 70.462 31.9573 69.9301ZM36.2698 75.2187C36.7138 74.8534 37.0224 74.4426 37.1957 73.9865C37.3755 73.5382 37.4292 73.0955 37.3571 72.6585C37.2849 72.2215 37.1078 71.8316 36.8258 71.4889C36.5437 71.1462 36.1953 70.8973 35.7804 70.7424C35.3732 70.581 34.9292 70.5414 34.4482 70.6236C33.9815 70.7073 33.5261 70.9317 33.0821 71.2971C32.6381 71.6624 32.3224 72.0724 32.1348 72.5272C31.9537 72.9897 31.8954 73.4427 31.9598 73.8861C32.0384 74.3309 32.2155 74.7207 32.4911 75.0557C32.7731 75.3984 33.1215 75.6473 33.5364 75.8022C33.9514 75.9572 34.3961 75.9897 34.8707 75.8997C35.3594 75.811 35.8258 75.584 36.2698 75.2187Z" fill="#727272"/>
<path d="M49.8661 84.796C50.3512 84.6818 50.867 84.694 51.4135 84.8327C51.9743 84.9704 52.4914 85.2436 52.9648 85.6523C53.5222 86.1335 53.9107 86.7022 54.1305 87.3584C54.3502 88.0145 54.3757 88.7028 54.2068 89.4232C54.0445 90.136 53.6898 90.8093 53.1427 91.443C52.5955 92.0767 51.9746 92.5335 51.28 92.8132C50.5919 93.0854 49.8968 93.165 49.1948 93.052C48.507 92.9379 47.8883 92.6436 47.3385 92.1689C46.8499 91.747 46.4971 91.2759 46.2801 90.7554C46.0708 90.2415 45.984 89.7401 46.0196 89.2511L45.2286 90.1674L43.923 89.0401L51.2401 80.5651L52.5457 81.6923L49.8661 84.796ZM51.8141 90.296C52.1899 89.8608 52.4213 89.4075 52.5083 88.9363C52.6095 88.464 52.5805 88.0191 52.4212 87.6017C52.276 87.1832 52.0355 86.829 51.6996 86.5389C51.3713 86.2555 50.9857 86.0692 50.5429 85.9801C50.1077 85.8975 49.6601 85.9375 49.2 86.1C48.7475 86.2691 48.3334 86.5712 47.9577 87.0064C47.5819 87.4416 47.3401 87.8992 47.2323 88.3791C47.1387 88.858 47.1644 89.3067 47.3095 89.7251C47.4623 90.1502 47.7028 90.5045 48.0311 90.7879C48.3671 91.078 48.7526 91.2642 49.1878 91.3468C49.6372 91.4282 50.0914 91.3806 50.5505 91.2039C51.0172 91.0338 51.4384 90.7312 51.8141 90.296Z" fill="#727272"/>
<path d="M65.4164 95.1175L54.2075 102.239L52.7435 101.217L56.4542 98.8625L58.4563 90.2587L60.0319 91.3586L58.3173 97.9119L63.9524 94.0955L65.4164 95.1175Z" fill="#727272"/>
<path d="M85.0262 102.99L76.9513 110.799L75.1468 109.943L76.0719 98.7429L77.7397 99.534L76.8078 108.772L83.3857 102.212L85.0262 102.99Z" fill="#727272"/>
<path d="M88.8882 105.507C88.5953 105.398 88.3867 105.206 88.2625 104.934C88.1383 104.661 88.131 104.378 88.2405 104.086C88.35 103.793 88.5411 103.584 88.8137 103.46C89.0863 103.336 89.3691 103.328 89.662 103.438C89.9454 103.544 90.1492 103.733 90.2735 104.006C90.3977 104.278 90.405 104.561 90.2955 104.854C90.1859 105.147 89.9949 105.356 89.7222 105.48C89.4496 105.604 89.1716 105.613 88.8882 105.507ZM89.2949 106.838L86.3746 114.647L84.759 114.043L87.6793 106.234L89.2949 106.838Z" fill="#727272"/>
<path d="M101.106 114.633C101.02 114.934 100.924 115.2 100.816 115.431L94.6881 113.693C94.5549 114.347 94.6468 114.929 94.9637 115.438C95.2806 115.948 95.7496 116.29 96.3706 116.467C97.2634 116.72 98.0002 116.525 98.5809 115.883L100.371 116.39C99.9196 117.059 99.306 117.54 98.5306 117.834C97.7677 118.121 96.9156 118.131 95.9743 117.864C95.2076 117.647 94.5668 117.281 94.0518 116.768C93.5492 116.248 93.2113 115.628 93.0381 114.908C92.8774 114.181 92.914 113.405 93.1479 112.58C93.3819 111.755 93.7519 111.079 94.258 110.552C94.7766 110.017 95.3849 109.665 96.0829 109.496C96.7906 109.33 97.5375 109.358 98.3235 109.581C99.0805 109.796 99.7081 110.152 100.207 110.65C100.705 111.148 101.034 111.745 101.193 112.44C101.355 113.125 101.326 113.856 101.106 114.633ZM99.5222 113.617C99.6859 113.003 99.6066 112.451 99.2842 111.961C98.9618 111.471 98.4852 111.137 97.8544 110.958C97.2818 110.796 96.7395 110.841 96.2273 111.094C95.7179 111.338 95.3363 111.759 95.0825 112.358L99.5222 113.617Z" fill="#727272"/>
<path d="M108.139 113.425L107.277 117.959C107.219 118.266 107.246 118.502 107.358 118.667C107.482 118.824 107.718 118.936 108.065 119.002L109.105 119.199L108.837 120.612L107.499 120.357C106.736 120.212 106.185 119.923 105.847 119.489C105.508 119.055 105.415 118.437 105.568 117.634L106.429 113.1L105.463 112.917L105.726 111.534L106.692 111.718L107.079 109.681L108.788 110.006L108.401 112.043L110.393 112.421L110.13 113.804L108.139 113.425Z" fill="#727272"/>
<path d="M131.615 122.492L129.891 122.443L124.925 114.446L124.703 122.296L122.979 122.247L123.277 111.72L125.001 111.769L129.967 119.751L130.189 111.916L131.913 111.965L131.615 122.492Z" fill="#727272"/>
<path d="M136.609 118.096C136.541 117.262 136.652 116.509 136.941 115.837C137.24 115.165 137.672 114.629 138.237 114.229C138.81 113.817 139.459 113.582 140.183 113.523C140.836 113.47 141.415 113.554 141.919 113.776C142.432 113.987 142.85 114.272 143.173 114.63L143.074 113.424L144.809 113.282L145.487 121.591L143.753 121.733L143.652 120.496C143.392 120.912 143.022 121.271 142.541 121.574C142.059 121.876 141.497 122.054 140.853 122.106C140.14 122.165 139.471 122.037 138.849 121.724C138.225 121.4 137.711 120.926 137.305 120.301C136.909 119.666 136.677 118.931 136.609 118.096ZM143.413 117.571C143.366 116.998 143.205 116.51 142.929 116.107C142.663 115.704 142.33 115.407 141.93 115.217C141.53 115.027 141.109 114.95 140.667 114.987C140.224 115.023 139.821 115.167 139.457 115.419C139.092 115.662 138.807 116.004 138.6 116.446C138.402 116.877 138.327 117.379 138.374 117.952C138.42 118.525 138.577 119.018 138.844 119.432C139.12 119.844 139.459 120.151 139.86 120.351C140.27 120.54 140.691 120.617 141.124 120.581C141.566 120.545 141.969 120.401 142.333 120.149C142.697 119.896 142.977 119.549 143.174 119.108C143.38 118.656 143.46 118.144 143.413 117.571Z" fill="#727272"/>
<path d="M159.334 110.462C159.976 110.328 160.576 110.342 161.136 110.503C161.705 110.663 162.187 110.975 162.582 111.438C162.988 111.9 163.268 112.501 163.422 113.242L164.426 118.056L162.752 118.404L161.801 113.842C161.648 113.112 161.349 112.592 160.904 112.283C160.456 111.964 159.916 111.87 159.284 112.002C158.652 112.134 158.19 112.436 157.897 112.91C157.612 113.371 157.545 113.967 157.698 114.698L158.649 119.26L156.975 119.609L156.024 115.046C155.872 114.316 155.573 113.796 155.127 113.487C154.679 113.168 154.139 113.075 153.507 113.206C152.875 113.338 152.413 113.641 152.12 114.114C151.835 114.575 151.769 115.171 151.921 115.902L152.872 120.464L151.183 120.816L149.482 112.654L151.171 112.302L151.365 113.236C151.572 112.842 151.868 112.507 152.253 112.231C152.639 111.955 153.073 111.767 153.557 111.666C154.209 111.53 154.82 111.547 155.392 111.716C155.963 111.886 156.441 112.203 156.827 112.669C156.971 112.124 157.274 111.653 157.738 111.258C158.2 110.853 158.732 110.587 159.334 110.462Z" fill="#727272"/>
<path d="M173.973 109.208C173.575 108.259 173.437 107.316 173.558 106.38C173.689 105.439 174.044 104.601 174.622 103.867C175.205 103.119 175.948 102.556 176.851 102.178C177.883 101.745 178.907 101.617 179.921 101.794C180.941 101.957 181.828 102.427 182.58 103.206L180.669 104.007C180.203 103.6 179.694 103.365 179.142 103.301C178.591 103.237 178.022 103.328 177.435 103.574C176.794 103.843 176.282 104.227 175.9 104.726C175.519 105.224 175.297 105.804 175.235 106.465C175.182 107.121 175.305 107.808 175.606 108.524C175.906 109.24 176.308 109.81 176.814 110.232C177.328 110.651 177.899 110.904 178.526 110.991C179.149 111.069 179.782 110.974 180.424 110.704C181.01 110.459 181.474 110.117 181.815 109.679C182.156 109.24 182.345 108.713 182.382 108.096L184.294 107.294C184.321 108.377 184.035 109.339 183.436 110.18C182.847 111.018 182.036 111.653 181.003 112.086C180.091 112.468 179.171 112.608 178.242 112.505C177.309 112.393 176.461 112.053 175.699 111.487C174.946 110.917 174.37 110.157 173.973 109.208Z" fill="#727272"/>
<path d="M189.455 98.3524C190.01 98.044 190.57 97.8889 191.135 97.8872C191.708 97.8806 192.247 98.0425 192.754 98.3728C193.269 98.6983 193.71 99.1918 194.077 99.8533L196.464 104.153L194.969 104.983L192.707 100.908C192.345 100.255 191.905 99.8475 191.388 99.6847C190.866 99.513 190.323 99.5838 189.758 99.8971C189.194 100.21 188.842 100.636 188.702 101.175C188.567 101.7 188.68 102.289 189.043 102.942L191.304 107.017L189.796 107.854L184.362 98.0637L185.871 97.2267L187.728 100.574C187.813 100.123 188.003 99.7063 188.298 99.3233C188.601 98.9355 188.987 98.6118 189.455 98.3524Z" fill="#727272"/>
<path d="M205.288 92.941C205.467 93.1974 205.612 93.4406 205.724 93.6705L200.501 97.3168C200.923 97.8338 201.432 98.1307 202.027 98.2075C202.621 98.2843 203.184 98.1379 203.713 97.7683C204.474 97.2371 204.789 96.5434 204.659 95.6871L206.185 94.6218C206.417 95.3947 206.401 96.1744 206.139 96.9608C205.878 97.7331 205.347 98.3993 204.544 98.9594C203.891 99.4155 203.203 99.6807 202.48 99.755C201.759 99.8153 201.065 99.6846 200.398 99.3631C199.733 99.0276 199.155 98.5083 198.664 97.8053C198.173 97.1022 197.884 96.3879 197.795 95.6622C197.71 94.9225 197.822 94.2289 198.133 93.5814C198.452 92.9282 198.946 92.3677 199.616 91.9C200.261 91.4496 200.934 91.1889 201.635 91.1179C202.336 91.0469 203.006 91.1697 203.645 91.4862C204.279 91.7944 204.826 92.2794 205.288 92.941ZM203.5 93.5251C203.128 93.0098 202.65 92.722 202.067 92.6617C201.484 92.6015 200.923 92.759 200.386 93.1344C199.898 93.475 199.59 93.9238 199.462 94.4806C199.328 95.0291 199.413 95.5912 199.716 96.1667L203.5 93.5251Z" fill="#727272"/>
<path d="M214.721 85.0283C214.924 85.2657 215.093 85.4932 215.226 85.711L210.39 89.8567C210.861 90.3293 211.397 90.5744 211.997 90.5919C212.596 90.6094 213.141 90.408 213.631 89.9879C214.336 89.3839 214.581 88.6623 214.366 87.8232L215.779 86.6119C216.087 87.3581 216.149 88.1355 215.965 88.944C215.782 89.7383 215.319 90.4539 214.577 91.0907C213.972 91.6093 213.313 91.9414 212.601 92.087C211.889 92.2183 211.186 92.157 210.49 91.9032C209.795 91.6352 209.169 91.1757 208.611 90.5247C208.053 89.8737 207.694 89.1916 207.534 88.4782C207.376 87.7507 207.419 87.0493 207.664 86.3743C207.917 85.6926 208.353 85.0859 208.973 84.5542C209.571 84.0421 210.215 83.716 210.905 83.576C211.595 83.4359 212.274 83.4917 212.942 83.7433C213.603 83.9873 214.196 84.4156 214.721 85.0283ZM212.999 85.7865C212.578 85.3106 212.074 85.0716 211.488 85.0694C210.901 85.0672 210.359 85.2795 209.861 85.7062C209.409 86.0936 209.147 86.5706 209.075 87.1373C208.997 87.6964 209.137 88.2473 209.495 88.79L212.999 85.7865Z" fill="#727272"/>
<path d="M217.268 78.5714C217.141 78.095 217.139 77.6278 217.262 77.1698C217.385 76.6976 217.647 76.2558 218.049 75.8444L219.326 77.0919L219.02 77.4058C218.547 77.8893 218.311 78.3772 218.309 78.8694C218.315 79.3544 218.621 79.8929 219.227 80.4849L222.366 83.5506L221.161 84.7847L215.197 78.9598L216.402 77.7257L217.268 78.5714Z" fill="#727272"/>
<path d="M230.016 75.1684C229.599 75.6747 229.135 76.0567 228.622 76.3143C228.109 76.5578 227.6 76.6681 227.096 76.6454C226.584 76.6163 226.127 76.4493 225.725 76.1444L226.859 74.7658C227.151 74.9667 227.487 75.0273 227.866 74.9474C228.244 74.8534 228.58 74.6272 228.875 74.2689C229.183 73.895 229.35 73.5491 229.376 73.2312C229.401 72.8991 229.301 72.6402 229.075 72.4543C228.833 72.2556 228.558 72.225 228.249 72.3626C227.946 72.4923 227.52 72.7488 226.969 73.1319C226.44 73.5059 225.987 73.7935 225.613 73.9947C225.238 74.1959 224.829 74.3038 224.387 74.3181C223.95 74.3247 223.521 74.155 223.101 73.8089C222.758 73.5269 222.53 73.1692 222.416 72.736C222.295 72.2963 222.306 71.8222 222.45 71.3138C222.6 70.7975 222.877 70.294 223.281 69.8033C223.884 69.0711 224.555 68.6368 225.294 68.5005C226.032 68.35 226.733 68.5219 227.397 69.0163L226.301 70.3483C225.994 70.1345 225.668 70.0622 225.323 70.1315C224.979 70.2009 224.659 70.4147 224.364 70.773C224.076 71.1235 223.921 71.4467 223.9 71.7426C223.878 72.0385 223.977 72.2762 224.195 72.4556C224.366 72.5966 224.562 72.6529 224.781 72.6244C225 72.5959 225.219 72.5209 225.436 72.3995C225.646 72.2716 225.946 72.074 226.335 71.8068C226.845 71.442 227.287 71.1661 227.663 70.9791C228.038 70.7779 228.439 70.6707 228.868 70.6577C229.297 70.6447 229.721 70.8042 230.14 71.1361C230.506 71.4373 230.75 71.8078 230.871 72.2474C230.993 72.6871 230.982 73.1612 230.838 73.6696C230.7 74.1703 230.426 74.6699 230.016 75.1684Z" fill="#727272"/>
<path d="M234.907 48.689L244.004 53.9644L243.138 55.4566L239.159 53.1491L236.677 57.4292L240.656 59.7367L239.791 61.2289L230.694 55.9534L231.559 54.4613L235.46 56.7233L237.942 52.4432L234.042 50.1812L234.907 48.689Z" fill="#727272"/>
<path d="M247.902 46.0041C247.58 46.7216 247.127 47.2977 246.544 47.7324C245.952 48.163 245.287 48.4114 244.55 48.4777C243.803 48.5398 243.038 48.395 242.256 48.0432C241.484 47.6956 240.875 47.2171 240.43 46.6077C239.985 45.9984 239.734 45.3269 239.677 44.5933C239.62 43.8597 239.755 43.1295 240.082 42.4028C240.409 41.6761 240.866 41.0908 241.453 40.6469C242.04 40.203 242.709 39.9454 243.46 39.874C244.211 39.8027 244.973 39.9408 245.745 40.2884C246.518 40.6361 247.125 41.1192 247.565 41.7378C248.006 42.3563 248.255 43.0437 248.313 43.7998C248.366 44.5426 248.229 45.2774 247.902 46.0041ZM246.536 45.3895C246.718 44.9847 246.792 44.5641 246.756 44.1277C246.724 43.682 246.564 43.2618 246.277 42.8672C245.99 42.4727 245.571 42.1512 245.019 41.9029C244.467 41.6546 243.955 41.5514 243.483 41.5933C243.001 41.631 242.585 41.7812 242.235 42.0439C241.884 42.3065 241.618 42.6402 241.436 43.045C241.254 43.4497 241.181 43.8704 241.216 44.3068C241.256 44.7341 241.424 45.1358 241.719 45.512C242.006 45.8841 242.425 46.1943 242.977 46.4426C243.795 46.8109 244.523 46.8895 245.16 46.6784C245.792 46.4539 246.251 46.0242 246.536 45.3895Z" fill="#727272"/>
<path d="M252.288 34.679C252.077 35.2999 251.778 35.8215 251.39 36.2437C250.995 36.653 250.558 36.9362 250.079 37.0931C249.59 37.2468 249.103 37.2522 248.619 37.1093L249.193 35.4185C249.537 35.5033 249.872 35.4413 250.199 35.2325C250.519 35.0109 250.754 34.6804 250.903 34.241C251.058 33.7825 251.092 33.3999 251.004 33.0932C250.91 32.7737 250.725 32.567 250.448 32.473C250.152 32.3725 249.884 32.4412 249.643 32.6792C249.406 32.9076 249.097 33.2983 248.718 33.8513C248.355 34.3885 248.033 34.8174 247.754 35.1381C247.475 35.4588 247.131 35.7041 246.722 35.8742C246.316 36.0347 245.855 36.0275 245.339 35.8525C244.919 35.7098 244.579 35.456 244.319 35.091C244.05 34.7227 243.893 34.2753 243.848 33.7487C243.806 33.2126 243.887 32.6436 244.091 32.0418C244.396 31.1439 244.87 30.5005 245.513 30.1116C246.15 29.7099 246.867 29.6228 247.663 29.8504L247.109 31.4838C246.745 31.3925 246.415 31.4402 246.117 31.6268C245.82 31.8134 245.596 32.1265 245.447 32.5659C245.301 32.9957 245.271 33.3528 245.355 33.6372C245.44 33.9215 245.616 34.1091 245.884 34.1998C246.094 34.2711 246.296 34.2547 246.492 34.1504C246.687 34.0462 246.864 33.8988 247.025 33.7083C247.176 33.5145 247.386 33.2238 247.656 32.836C248.004 32.3148 248.32 31.9002 248.606 31.5923C248.885 31.2716 249.223 31.0294 249.619 30.8656C250.016 30.7019 250.469 30.7011 250.978 30.8633C251.427 31.0156 251.786 31.2759 252.055 31.6442C252.324 32.0125 252.482 32.4599 252.527 32.9865C252.575 33.5035 252.495 34.0677 252.288 34.679Z" fill="#727272"/>
<path d="M248.41 22.6072L252.89 23.7134C253.194 23.7883 253.431 23.7742 253.602 23.6709C253.766 23.5555 253.89 23.3263 253.975 22.9836L254.228 21.9553L255.624 22.2999L255.298 23.6219C255.111 24.376 254.792 24.9103 254.341 25.2247C253.889 25.5392 253.267 25.5985 252.473 25.4027L247.993 24.2965L247.757 25.2513L246.391 24.914L246.627 23.9592L244.614 23.4623L245.031 21.773L247.044 22.2699L247.53 20.3015L248.896 20.6388L248.41 22.6072Z" fill="#727272"/>
<path d="M253.668 8.18315C253.977 8.23096 254.253 8.29407 254.496 8.3725L253.522 14.6677C254.188 14.7196 254.754 14.5571 255.221 14.1802C255.687 13.8032 255.97 13.2958 256.069 12.6578C256.21 11.7407 255.927 11.0333 255.218 10.5358L255.502 8.69658C256.222 9.06299 256.774 9.61294 257.161 10.3464C257.539 11.0684 257.654 11.9129 257.504 12.8798C257.382 13.6673 257.098 14.3481 256.652 14.9222C256.198 15.4847 255.624 15.8961 254.93 16.1562C254.228 16.4049 253.454 16.4637 252.606 16.3326C251.759 16.2016 251.043 15.9172 250.457 15.4796C249.863 15.0305 249.439 14.4699 249.186 13.7979C248.934 13.1159 248.871 12.3711 248.996 11.5637C249.116 10.7861 249.393 10.1195 249.826 9.56388C250.259 9.00823 250.811 8.60874 251.481 8.36541C252.142 8.12054 252.871 8.05979 253.668 8.18315ZM252.854 9.87928C252.225 9.7921 251.687 9.93852 251.24 10.3185C250.793 10.6986 250.52 11.2125 250.42 11.8605C250.329 12.4486 250.44 12.9814 250.754 13.4586C251.058 13.9344 251.523 14.2615 252.149 14.4399L252.854 9.87928Z" fill="#727272"/>
<path d="M247.344 1.30905L258.511 2.11426L258.387 3.8347L247.22 3.02948L247.344 1.30905Z" fill="#727272"/>
</svg>
