<svg width="16" height="16" viewBox="0 0 16 16" fill="none" xmlns="http://www.w3.org/2000/svg">
<g clip-path="url(#clip0_781_539)">
<circle cx="6" cy="11" r="4" fill="#F6B900"/>
<path d="M8 0C6.41775 0 4.87103 0.469192 3.55544 1.34824C2.23985 2.22729 1.21447 3.47672 0.608967 4.93853C0.0034663 6.40034 -0.15496 8.00887 0.153721 9.56072C0.462403 11.1126 1.22433 12.538 2.34315 13.6569C3.46197 14.7757 4.88743 15.5376 6.43928 15.8463C7.99113 16.155 9.59966 15.9965 11.0615 15.391C12.5233 14.7855 13.7727 13.7602 14.6518 12.4446C15.5308 11.129 16 9.58225 16 8C16 5.87827 15.1571 3.84344 13.6569 2.34315C12.1566 0.842855 10.1217 0 8 0ZM4.748 1.50182L5.18182 1.80291C5.27777 1.86976 5.35551 1.9595 5.408 2.064L5.51709 2.28218C5.57496 2.39814 5.66401 2.49567 5.77423 2.56382C5.88446 2.63197 6.0115 2.66805 6.14109 2.668H6.91673C7.1018 2.668 7.27929 2.74152 7.41016 2.87239C7.54103 3.00325 7.61455 3.18074 7.61455 3.36582V3.37964C7.61464 3.50924 7.57858 3.6363 7.51042 3.74653C7.44226 3.85676 7.34471 3.9458 7.22873 4.00364L5.368 4.93454C5.34196 4.94725 5.31681 4.96171 5.29273 4.97782L4.34037 5.61273C4.23929 5.68024 4.15747 5.77284 4.10291 5.88145L3.96146 6.16582C3.91256 6.26249 3.88709 6.3693 3.88709 6.47764C3.88709 6.58597 3.91256 6.69278 3.96146 6.78945C4.02685 6.92057 4.04936 7.06893 4.0258 7.21354C4.00224 7.35815 3.93381 7.49169 3.83018 7.59527L3.80946 7.61636C3.69943 7.72641 3.55576 7.79649 3.4013 7.81547C3.24685 7.83445 3.09049 7.80122 2.95709 7.72109L1.74 6.99018C1.59724 6.90436 1.48981 6.77038 1.43709 6.61236L1.13782 5.71418C1.124 5.71418 1.11419 5.70982 1.10146 5.70945C1.71181 3.87935 3.02324 2.36612 4.748 1.50182ZM8.75673 10.5902C8.75678 10.6407 8.74868 10.6909 8.73273 10.7389L8.41091 11.704C8.38794 11.7733 8.34909 11.8363 8.29746 11.888L7.71564 12.4698C7.6498 12.5355 7.60499 12.6193 7.58691 12.7105L7.27891 14.2495C7.26467 14.3195 7.23463 14.3854 7.19109 14.4421C7.14755 14.4988 7.09165 14.5449 7.02764 14.5767L6.77527 14.7033C6.68679 14.7472 6.58677 14.7623 6.48926 14.7464C6.39175 14.7306 6.30166 14.6846 6.23164 14.6149L5.764 14.1473C5.72827 14.1113 5.69844 14.07 5.67564 14.0247L5.37855 13.4305C5.3461 13.3651 5.32918 13.293 5.32909 13.22V11.7196C5.32893 11.6322 5.30451 11.5465 5.25854 11.4721C5.21257 11.3977 5.14687 11.3375 5.06873 11.2982L4.67891 11.1036C4.60534 11.0671 4.54265 11.012 4.49709 10.9436L3.88364 10.0233C3.83199 9.94599 3.8044 9.85513 3.80437 9.76218V9.43491C3.8046 9.34751 3.82905 9.26189 3.87501 9.18755C3.92098 9.11322 3.98665 9.05308 4.06473 9.01382L4.42582 8.832C4.51704 8.78659 4.59095 8.71267 4.63637 8.62145L4.81818 8.26036C4.85736 8.18244 4.91733 8.11688 4.99146 8.07093C5.06558 8.02498 5.15097 8.00043 5.23818 8H5.89491C5.95677 7.99995 6.01802 8.0121 6.07518 8.03575C6.13233 8.05939 6.18426 8.09408 6.228 8.13782L6.33309 8.24291C6.4215 8.33117 6.54126 8.38085 6.66618 8.38109H6.76364C6.8887 8.38157 7.00847 8.43159 7.09673 8.52019C7.18499 8.60879 7.23455 8.72876 7.23455 8.85382C7.23474 8.94118 7.25915 9.02677 7.30504 9.1011C7.35094 9.17544 7.41653 9.2356 7.49455 9.27491L8.49818 9.77636C8.57625 9.8157 8.64188 9.87592 8.68778 9.95032C8.73368 10.0247 8.75805 10.1104 8.75818 10.1978L8.75673 10.5902ZM10.6731 3.67782C10.7055 3.59926 10.7531 3.52785 10.8131 3.46764L11.4644 2.81673C11.5134 2.76769 11.57 2.72681 11.632 2.69564L12.3156 2.35382C12.3754 2.32533 12.4392 2.30631 12.5047 2.29745C13.29 2.91656 13.9396 3.69052 14.4131 4.57127H14.0916C13.9202 4.57128 13.7558 4.50327 13.6345 4.38218L13.556 4.30364C13.4347 4.18244 13.2704 4.11431 13.0989 4.11418H12.6051C12.5041 4.1139 12.4045 4.13731 12.3142 4.18254L11.6735 4.50327C11.5831 4.54835 11.4835 4.57164 11.3825 4.57127H11.2673C11.161 4.5712 11.0564 4.54494 10.9628 4.49483C10.8691 4.44472 10.7892 4.3723 10.7302 4.28397C10.6711 4.19564 10.6348 4.09412 10.6243 3.9884C10.6139 3.88268 10.6296 3.77601 10.6702 3.67782H10.6731ZM13.4145 12.8433L13.3673 12.7273C13.3415 12.6495 13.3284 12.5681 13.3284 12.4862V11.6465C13.3283 11.5283 13.3008 11.4116 13.248 11.3058L12.6465 10.1036C12.5937 9.99781 12.5662 9.88117 12.5662 9.76291V9.65164C12.5662 9.52182 12.533 9.39416 12.4698 9.28077C12.4065 9.16739 12.3154 9.07203 12.205 9.00377C12.0946 8.9355 11.9685 8.89658 11.8389 8.8907C11.7092 8.88482 11.5801 8.91218 11.464 8.97018L11.2033 9.10073C11.0976 9.15348 10.9811 9.18099 10.8629 9.18109H10.8298C10.6699 9.18082 10.5141 9.13034 10.3844 9.03678C10.2547 8.94322 10.1576 8.8113 10.1069 8.65963L9.93891 8.15527C9.91297 8.07754 9.89971 7.99613 9.89964 7.91418V7.30291C9.89962 7.17749 9.93058 7.05401 9.98976 6.94344C10.049 6.83287 10.1345 6.73863 10.2389 6.66909L10.9327 6.20654C11.0054 6.15808 11.0858 6.12253 11.1705 6.10145L12.3509 5.80618C12.4916 5.77105 12.6395 5.77672 12.7771 5.82254L13.5916 6.09418C13.6695 6.12011 13.751 6.13337 13.8331 6.13345H15.0218C15.3374 7.29698 15.3556 8.52115 15.0748 9.69356C14.794 10.866 14.2231 11.949 13.4145 12.8433Z" fill="#B34B1E"/>
</g>
<defs>
<clipPath id="clip0_781_539">
<rect width="16" height="16" fill="white"/>
</clipPath>
</defs>
</svg>
