<svg width="123" height="32" viewBox="0 0 123 32" fill="none" xmlns="http://www.w3.org/2000/svg">
<path d="M70.7419 16.6203C70.7016 16.7952 70.5858 16.9418 70.4801 16.9418L70.4146 16.9748C70.0471 17.1687 69.6444 17.3105 69.2416 17.4523L69.1057 17.4996C68.9698 17.5752 68.713 17.6981 68.5318 17.7738C68.3505 17.8494 67.9075 18.0291 67.7413 18.0905C67.5752 18.152 67.2127 18.3978 67.1271 18.412C67.0416 18.4262 66.7194 18.6436 66.4425 18.7334C66.1656 18.8233 65.5262 19.2109 65.4456 19.2062C65.3651 19.2014 65.1385 19.3338 65.0731 19.3905C65.0076 19.4473 64.7358 19.6033 64.6552 19.6316C64.5747 19.66 64.2525 19.7971 64.1266 19.868C64.0007 19.9389 63.5325 20.2178 63.3261 20.3029C63.1197 20.388 62.4803 20.6244 62.3847 20.7095L62.3243 20.7284L62.0826 20.7993C61.8661 20.9364 61.4181 21.1822 61.0858 21.3477L60.7837 21.5037C60.6427 21.5746 60.5068 21.6597 60.3507 21.707L60.0436 21.8062C59.7416 21.9953 59.4294 22.1372 59.3539 22.1135C59.2784 22.0899 59.067 22.2884 59.0015 22.3499C58.9361 22.4113 58.6541 22.539 58.5534 22.5532C58.4527 22.5674 58.0752 22.6572 57.8436 22.6572L57.8335 22.8935C57.8335 22.9455 57.612 23.0023 57.4811 23.0306L57.4408 23.0401C57.3552 23.0306 57.1639 23.1394 57.0129 23.2859C56.8619 23.4325 56.1419 23.6641 56.001 23.7397C55.86 23.8154 55.5781 24.1038 55.5579 24.0565C55.5378 24.0092 55.4522 23.9903 55.4069 24.0848C55.3616 24.1794 55.0243 24.2645 55.0293 24.2976C55.0343 24.3307 54.979 24.3921 54.8984 24.359L54.8179 24.3401C54.7927 24.3354 54.7423 24.3401 54.7222 24.359C54.6316 24.4441 54.5661 24.5907 54.4604 24.6096L54.2993 24.6332C54.1634 24.6947 53.9117 24.8176 53.7405 24.9027C53.5693 24.9878 52.8242 25.3754 52.497 25.5882L52.1848 25.7678C52.1194 25.8056 52.0439 25.8482 51.9633 25.8623C51.8576 25.8813 51.7317 25.8529 51.6361 25.886C51.5807 25.9049 51.5857 26.0089 51.5303 26.0514L51.4699 26.1034C51.3793 26.146 51.2736 26.2264 51.2333 26.2736H51.193L51.037 26.2831C50.9413 26.3729 50.8205 26.5005 50.7651 26.5715C50.7097 26.6424 50.3573 26.5573 50.2415 26.5951L50.2264 26.6471L50.1811 26.8267C49.9848 26.874 49.7834 26.9544 49.733 27.0064C49.6827 27.0584 49.4209 27.1198 49.2749 27.1387L49.2246 27.29L49.1742 27.4413C48.9728 27.5406 48.7966 27.6162 48.7765 27.6115C48.7564 27.6068 48.6708 27.5689 48.6154 27.5453C48.56 27.5217 48.3737 27.6966 48.3033 27.7628C48.2328 27.8289 47.8199 28.0369 47.5783 28.1457L47.3819 28.2875L47.1806 28.4293C46.8936 28.5286 46.5764 28.6799 46.4657 28.7697C46.3549 28.8595 45.9219 28.9351 45.8968 28.973C45.8716 29.0108 45.489 29.2472 45.1315 29.441L44.8043 29.5213C44.7036 29.545 44.5526 29.5261 44.4972 29.5733L44.3361 29.7246C44.1246 29.857 43.8377 29.8948 43.6967 29.8144L43.6212 30.0177L43.591 30.1028C43.4551 30.1737 43.2789 30.2541 43.2084 30.2777C43.1379 30.3014 42.71 30.4148 42.4331 30.4905C42.1562 30.5661 41.396 30.9632 41.2349 31.0436L41.0788 31.0861L40.4646 31.2516C39.8202 31.4879 39.1002 31.7243 38.8687 31.7763C38.6371 31.8283 38.0178 31.989 37.9927 31.9701C37.9675 31.9512 37.8366 31.9418 37.756 31.9465C37.6755 31.9512 37.4288 31.9418 37.4137 31.8945C37.3986 31.8472 37.2677 31.7101 37.1569 31.7527C37.0462 31.7952 36.7793 31.8283 36.7894 31.7338C36.7995 31.6392 36.4269 31.7669 36.296 31.7196C36.1651 31.6723 35.7825 31.6108 35.7422 31.6959L35.6768 31.7054L35.2891 31.7669C34.8562 31.7858 34.4836 31.7952 34.4635 31.7905C34.4434 31.7858 34.3427 31.7054 34.2671 31.6392C34.1916 31.573 33.668 31.5541 33.3458 31.3603L33.3257 31.1287C33.3257 31.0956 33.4767 30.6228 33.4969 30.5945L33.5321 30.5377C33.5674 30.4715 33.6127 30.3392 33.6328 30.2446C33.6529 30.1501 33.6529 29.8428 33.5825 29.7766C33.512 29.7104 33.225 29.7483 33.225 29.6064C33.225 29.4646 33.0891 29.0628 32.9229 29.0061C32.7568 28.9493 32.4598 28.557 32.2383 28.5144L32.3641 28.2733L32.4245 28.1551C32.3943 27.9944 32.3188 27.6918 32.2584 27.4791C32.198 27.2664 31.7549 26.406 31.5636 25.9711L31.3572 25.5834L31.3371 25.5456C31.3774 25.4842 31.4327 25.2998 31.4629 25.1296C31.4932 24.9594 31.3371 24.515 31.3371 24.4914C31.3371 24.4678 31.3723 24.3969 31.4176 24.3307C31.4629 24.2645 31.4831 24.0187 31.3673 23.9808C31.2515 23.943 30.9796 24.2692 30.7833 24.3732C30.5869 24.4772 29.7361 24.9263 29.3082 25.1438C28.8803 25.3612 27.7324 26.0183 27.6317 26.0562C27.531 26.094 27.0175 26.3304 26.7104 26.4674C26.4033 26.6045 25.5525 27.1104 25.3863 27.1813C25.2202 27.2522 24.6916 27.5642 24.5204 27.6304C24.3492 27.6966 23.8156 27.9093 23.725 27.9519C23.6343 27.9944 23.2568 28.1788 23.0755 28.2591C22.8943 28.3395 22.2197 28.557 22.0233 28.6279C21.827 28.6988 21.2077 28.9257 21.0869 28.973C20.9661 29.0202 20.3821 28.8737 20.3317 28.8548C20.2814 28.8359 20.1505 28.8926 20.2159 28.9115C20.2814 28.9304 20.4072 29.0486 20.3217 29.1101H20.2864L20.0347 29.1526C19.7477 29.181 19.4809 29.1952 19.4406 29.1904C19.4004 29.1857 19.1235 29.1148 18.917 29.0628C18.7106 29.0108 18.1468 28.8501 18.177 28.6468L17.9102 28.5097L17.749 28.4246C17.6282 28.2449 17.5829 28.1079 17.6433 28.1268C17.7037 28.1457 17.9152 28.1599 17.9202 28.1031C17.9253 28.0464 17.895 27.8904 17.8346 27.8951L17.8145 27.9093L17.6786 28.0039C17.5275 27.9566 17.2355 27.7722 17.0291 27.5973L16.8831 27.4177L16.8277 27.3515C16.868 27.2333 16.8328 27.1151 16.7522 27.0915C16.6717 27.0678 16.7975 26.8976 16.7975 26.8787C16.7975 26.8598 16.6163 26.7558 16.4048 26.6518L16.435 26.4438C16.4552 26.3162 16.4048 26.2122 16.2689 26.1318L16.1682 26.0703C16.0373 25.9616 16.0424 25.8529 16.1884 25.8245C16.3344 25.7962 16.6566 25.6165 16.7119 25.5456C16.7673 25.4747 17.0039 25.3376 17.155 25.3612L17.2355 25.3234C17.3664 25.2667 17.457 25.1532 17.5829 25.0776L17.6635 25.0256C17.7742 24.9925 18.0713 24.931 18.323 24.8885L18.3431 24.5623V24.4961C18.3431 24.4299 18.4136 24.411 18.4992 24.4536C18.5848 24.4961 18.8264 24.3779 18.7962 24.1983H19.1285C19.1839 24.1983 19.2544 24.1085 19.2896 24.0518L19.3047 24.0234C19.2594 23.9714 19.204 23.943 19.1788 23.9619C19.1537 23.9808 19.0278 23.9619 19.0681 23.8012L19.1184 23.7067C19.1436 23.6594 19.1939 23.6074 19.3148 23.6688L19.4004 23.7161C19.5413 23.7019 19.8535 23.5837 20.085 23.4514L20.075 23.2292V23.1866C20.075 23.1394 20.1152 23.0732 20.1606 23.0448C20.2059 23.0165 20.3569 22.9786 20.3619 23.0448L20.3921 23.111C20.4072 23.1488 20.4677 23.1961 20.513 23.2008C20.5583 23.2008 20.6489 23.163 20.6539 23.1346L20.6841 22.9834C20.81 22.8557 20.9208 22.7234 20.9359 22.6903V22.5059C21.1171 22.4255 21.3034 22.3404 21.3537 22.3215C21.4041 22.3026 21.5954 22.2743 21.6659 22.2695C21.7363 22.2648 21.7112 22.1277 21.6659 22.1041C21.6206 22.0804 21.4645 21.8866 21.5803 21.811C21.6961 21.7353 22.1592 21.759 22.1995 21.6691C22.2398 21.5793 22.6275 21.4328 22.7181 21.3477L22.8288 21.291C22.9648 21.22 22.9899 21.1491 22.8439 21.064C22.8339 21.0593 22.8993 20.9411 22.9547 20.9269L23.1108 20.8797C23.3121 20.8466 23.4883 20.8655 23.5034 20.9222C23.5186 20.9789 23.6243 20.9979 23.7099 20.8277L23.5437 20.6622L23.4581 20.5771C23.5941 20.5866 23.8911 20.5015 24.1177 20.3927L24.1881 20.2131L24.2032 20.1706C24.0824 20.0902 24.0321 20.0004 24.0975 19.9673C24.163 19.9342 24.2989 19.7924 24.1982 19.7593L24.163 19.7782L23.9465 19.8869C23.7149 20.0146 23.4682 20.1847 23.3927 20.2698C23.3172 20.3549 23.005 20.4589 22.9849 20.4258C22.9648 20.3927 22.8641 20.3171 22.8087 20.3833C22.7533 20.4495 22.6023 20.5866 22.5771 20.5724C22.5519 20.5582 22.562 20.6197 22.6526 20.7568C22.7432 20.8939 22.1895 20.9931 22.2146 20.9459C22.2398 20.8986 22.2851 20.7331 22.2499 20.7379C22.2146 20.7426 21.8521 20.9175 21.4695 21.1113C21.0869 21.3051 19.7779 22.0095 19.4054 22.2317L19.0429 22.4066L18.7157 22.5626C18.3834 22.7564 17.8799 23.0259 17.598 23.1583L17.3916 23.3426L17.1852 23.5317C16.8831 23.6925 16.5106 23.8816 16.3545 23.9525C16.1984 24.0234 15.695 24.3212 15.4986 24.4016C15.3023 24.4819 14.4917 24.95 14.0688 25.1769L13.6913 25.3849L13.51 25.4841C13.3187 25.522 13.0267 25.6922 12.8706 25.8671H12.7297L12.3017 25.8529C12.0047 26.0562 11.5818 26.2831 11.3704 26.354C11.1589 26.4249 10.5498 26.8173 10.3584 26.8551C10.1671 26.8929 9.74927 27.3089 9.5932 27.4082C9.43714 27.5075 8.833 27.6115 8.74741 27.654L8.70714 27.7108L8.56114 27.9188C8.27417 28.018 7.89155 28.1457 7.71031 28.2071C7.52907 28.2686 6.99542 28.5664 6.85949 28.6373L6.72859 28.6941C6.65811 28.7271 6.56245 28.7319 6.497 28.7697C6.28556 28.8879 6.10432 29.0722 5.87273 29.1195L5.64114 29.1668C5.41963 29.2519 5.03701 29.3937 4.79032 29.4741C4.54363 29.5544 3.8086 29.4741 3.75322 29.5166C3.69784 29.5592 3.45618 29.6348 3.34543 29.5875C3.23467 29.5403 2.83191 29.4126 2.68591 29.3464C2.53991 29.2802 1.94081 29.5875 1.59343 29.6584L1.25612 29.6726L0.97419 29.6868C0.712398 29.6112 0.395226 29.4126 0.274398 29.2472L0.30964 29.129L0.370053 28.921C0.435502 28.6941 0.495915 28.4246 0.50095 28.3159C0.505984 28.2071 0.128399 28.0748 0.0931573 28.0559C0.0579162 28.0369 -0.11829 27.966 -0.198842 27.9235C-0.279393 27.8809 -0.324704 27.6115 -0.324704 27.5217C-0.324704 27.4318 -0.359945 27.1813 -0.400221 27.1576H-0.415324L-0.551255 27.186C-0.702289 27.2191 -0.787875 27.1671 -0.747599 27.0773L-0.878495 26.9733L-1.01443 26.8645C-1.07484 26.6849 -1.26615 26.2216 -1.43732 25.8387L-1.61353 25.4936L-1.67394 25.3754C-1.7998 25.2667 -1.97098 25.0918 -2.05153 24.9925C-2.13208 24.8932 -2.34856 24.5103 -2.3838 24.3685L-2.42911 24.2408C-2.46939 24.1321 -2.59022 24.0565 -2.56504 23.9147L-2.54994 23.8154C-2.65063 23.6925 -2.75132 23.5601 -2.78153 23.527L-2.77146 23.5034L-2.70601 23.371C-2.69594 23.215 -2.69594 23.0212 -2.70601 22.9361C-2.71608 22.851 -2.54994 22.4586 -2.45428 22.1608L-2.17739 21.9528C-2.12704 21.915 -2.19753 21.7873 -2.14718 21.7448L-2.06663 21.6739C-1.93573 21.6266 -1.84511 21.5746 -1.86525 21.5557C-1.88539 21.5368 -1.88036 21.4753 -1.78973 21.4706C-1.69911 21.4659 -1.6236 21.1728 -1.56318 21.064C-1.50277 20.9553 -1.42222 20.7662 -1.48263 20.6764L-1.35677 20.6149L-1.28125 20.5771C-1.26615 20.5157 -1.22084 20.4448 -1.17553 20.4164L-1.13525 20.3927L-0.994288 20.3124C-1.07987 20.2084 -1.01946 20.0807 -0.868426 20.0382C-0.717392 19.9956 -0.571393 19.6269 -0.526083 19.5182C-0.480772 19.4095 -0.153532 19.2345 -0.0377388 19.2014L-0.173669 19.0974C-0.198842 19.0785 -0.158566 18.9651 -0.148498 18.9651L0.148537 18.9509C0.188812 18.7665 0.30964 18.516 0.410329 18.3883C0.511019 18.2607 0.717432 17.8778 0.767776 17.8967C0.818121 17.9156 1.0346 17.8825 1.14536 17.788C1.25612 17.6934 1.52295 17.3861 1.4575 17.353C1.39205 17.3199 1.1655 17.2301 1.14033 17.2632C1.11516 17.2963 0.959086 17.3341 0.903707 17.2065L0.833225 17.1781L0.742604 17.145C0.606674 17.1592 0.395226 17.1828 0.269364 17.2065C0.143502 17.2301 -0.304566 17.0599 -0.521048 17.0458C-0.73753 17.0316 -1.39201 17.1828 -1.49774 17.2112C-1.60346 17.2396 -1.89042 16.9181 -1.65884 16.6487L-1.95084 16.3461L-2.01125 16.2799C-1.98104 16.1523 -2.01125 16.0388 -2.08173 16.0341C-2.15222 16.0294 -2.32339 16.001 -2.33849 15.9821C-2.3536 15.9632 -2.36366 15.8686 -2.3687 15.8025C-2.37373 15.7363 -2.35863 15.4999 -2.34856 15.4243C-2.33849 15.3486 -2.59525 15.1832 -2.59022 15.0792L-2.65063 15.0413C-2.73622 14.9846 -2.89228 14.9893 -3.00808 14.9562L-3.10373 14.9279C-3.21952 14.8759 -3.31015 14.6821 -3.30008 14.5024C-3.29001 14.3228 -3.67766 13.902 -3.68773 13.8737L-3.67263 13.8595L-3.39573 13.5806C-3.69276 13.4482 -4.07538 13.2213 -4.23649 13.0842L-4.25663 12.9187L-4.2818 12.7155C-4.27173 12.4791 -4.30194 12.3042 -4.34725 12.3184C-4.39256 12.3325 -4.50331 12.2995 -4.51338 12.2144L-4.47814 12.2002C-4.36738 12.1529 -4.04518 12.1624 -4.46304 12.0773C-4.48318 12.0773 -4.50835 12.0584 -4.51338 12.0442C-4.55869 11.7416 -4.59394 11.4438 -4.36738 11.1696C-4.32207 11.1129 -4.20125 11.094 -4.13076 11.042C-4.04518 10.9805 -3.89918 10.8671 -3.91428 10.8481C-4.11063 10.6307 -3.76828 10.7725 -3.74311 10.6969C-3.7129 10.5881 -3.66759 10.47 -3.57697 10.3896C-3.4058 10.243 -3.20946 10.1201 -3.00808 9.99721L-2.88725 9.92157C-2.81677 9.81284 -2.57511 9.53866 -2.3536 9.30701L-1.9458 9.36374H-1.91056C-1.86022 9.32119 -1.76456 9.21719 -1.69408 9.14628C-1.6236 9.07537 -1.36684 8.95246 -1.3316 8.87209C-1.29636 8.79173 -0.903668 8.79173 -0.777806 8.72554C-0.651944 8.65936 -0.4556 8.43244 -0.329738 8.53645L-0.198842 8.37572L-0.188773 8.36626C-0.284428 8.29535 -0.279393 8.23389 -0.173669 8.23389C-0.0679455 8.23389 0.16364 8.15826 0.133433 8.06371L0.16364 8.01171L0.244192 7.87461C0.420398 7.88407 0.576467 7.84152 0.581501 7.78006C0.586536 7.71861 0.777845 7.58151 0.903707 7.52006C1.02957 7.4586 1.48267 7.37824 1.62364 7.34514C1.7646 7.31205 2.03143 7.08041 2.10191 7.0615C2.17239 7.04259 2.39391 7.02368 2.38888 6.92913L2.39895 6.86295V6.83459C2.42915 6.80149 2.6557 6.76367 2.90239 6.74949V6.5084C3.12894 6.47058 3.44612 6.36185 3.61225 6.26257L3.77336 6.18221L3.87404 6.1302C4.00998 6.1302 4.21136 6.08766 4.32715 6.03093L4.43791 5.98365C4.5688 5.93165 4.70473 5.88438 4.8306 5.82765C4.94135 5.77565 5.03701 5.70474 5.14777 5.65746C5.21825 5.6291 5.3139 5.6291 5.39949 5.61965C5.65121 5.59128 5.87776 5.54873 5.98852 5.33127C6.03383 5.24145 6.15969 5.16582 6.27549 5.11381C6.3208 5.09018 6.39128 5.25091 6.51714 5.13272L6.61783 5.03818C6.76383 4.95781 6.98535 4.95308 7.10618 5.02399L7.20686 4.8869C7.23707 4.84908 7.27231 4.81126 7.29749 4.77344L7.31762 4.74508C7.33776 4.71199 7.44852 4.68362 7.55928 4.67889C7.67004 4.67417 7.957 4.51344 8.04259 4.53235C8.12817 4.55125 8.32452 4.39052 8.41514 4.41416L8.50072 4.36689C8.53093 4.34798 8.60141 4.35743 8.62155 4.33852L8.89845 3.98869C9.40189 3.80433 9.8701 3.62469 9.93051 3.59159C9.99093 3.5585 10.2829 3.49705 10.4491 3.44032C10.6152 3.38359 10.9928 3.14722 11.0633 3.18504C11.1338 3.22286 11.3905 3.2985 11.5164 3.17558L11.6674 3.12831L11.8184 3.08104C12.0349 3.09995 12.186 3.08104 12.1507 3.03376C12.1155 2.98649 12.1557 2.83994 12.337 2.83521L12.4226 2.78321L12.5333 2.7123C12.6089 2.75485 12.8203 2.7123 13.0116 2.61302L13.1878 2.52793L13.2432 2.49957C13.3389 2.51375 13.3842 2.56102 13.3389 2.59884L13.3086 2.64139C13.3086 2.64139 13.364 2.69812 13.3892 2.69339H13.4496C13.51 2.66502 13.5956 2.52793 13.6409 2.38138L13.8473 2.32465C14.2048 2.22538 14.6126 2.22065 14.8844 1.9701C14.9046 1.95119 14.97 1.96537 15.0153 1.9701L15.1664 1.98428C15.3325 2.00319 15.5288 1.98428 15.5943 1.95119C15.6597 1.9181 15.987 1.81409 16.1582 1.76682C16.3293 1.71955 16.7472 1.55882 16.8076 1.59663C16.868 1.63445 17.0644 1.71955 17.0694 1.68173C17.0744 1.64391 17.2607 1.58718 17.4268 1.57772C17.593 1.56827 18.1115 1.41699 18.2525 1.37917C18.3935 1.34135 18.7408 1.521 18.7861 1.51627C18.8315 1.51154 19.1436 1.65809 19.3752 1.79046C19.6068 1.92282 20.6036 1.70536 20.9057 1.63918L21.2228 1.70536L21.4645 1.75737C21.7716 1.70064 22.0888 1.64391 22.1693 1.63445C22.2499 1.625 22.5368 1.71482 22.6174 1.68173C22.6979 1.64864 22.9144 1.62973 22.9194 1.71955C22.9245 1.80937 23.2819 1.70064 23.3373 1.68645L23.3726 1.70064L23.5991 1.79991C23.8106 1.94173 24.0673 2.12137 24.168 2.20647C24.2687 2.29156 24.606 2.42393 24.5758 2.45229C24.5456 2.48066 24.5607 2.65084 24.6664 2.78321L24.752 2.91085L24.9383 3.17558C25.2756 3.39304 25.4971 3.61996 25.4266 3.67196C25.3561 3.72396 25.2454 3.92251 25.3511 3.98397L25.4568 4.0076H25.482C25.5575 3.91306 25.7186 3.9036 25.8394 3.98869L25.9301 4.07379C25.9603 4.10215 25.9401 4.16361 25.9452 4.21088C25.9552 4.31016 25.5928 4.16361 25.769 4.35743C25.8848 4.48507 25.769 4.53235 25.6985 4.61271L25.628 4.68835C25.5777 4.81126 25.6129 4.96254 25.7136 5.02399C25.8143 5.08545 25.8596 5.39273 25.8848 5.43055C25.9099 5.46837 26.1868 5.82292 26.4285 6.13493L26.3681 6.48949C26.3379 6.68331 26.353 6.86295 26.6047 6.99059L26.6852 7.02841C26.7305 7.11823 26.791 7.25532 26.8262 7.33096C26.8614 7.4066 27.2441 7.5106 27.38 7.54369L27.4001 7.60042C27.4605 7.77061 27.5562 7.77534 27.7223 7.68552C27.7425 7.67606 27.8079 7.6997 27.8381 7.71388L27.8935 7.74697C27.959 7.8037 27.9741 7.86516 27.9187 7.88879C27.8633 7.91243 27.7727 8.04953 27.8331 8.14407L27.8683 8.21026L27.9086 8.2859C27.9439 8.37099 27.9841 8.46554 27.9942 8.49863C28.0043 8.53172 27.8683 8.83427 27.7173 9.15574L27.38 9.37792L27.2088 9.49138C27.1283 9.71357 27.0276 9.95467 26.9772 10.0303C26.9269 10.1059 26.5493 10.3754 26.4134 10.5361L26.2472 10.5787C25.9603 10.6496 26.2724 10.7205 26.212 10.7678C26.1365 10.834 26.0559 10.8954 25.9703 10.9521L25.7589 11.094C25.5223 11.25 25.2705 11.4485 25.195 11.5336C25.1195 11.6187 24.8124 11.8314 24.8426 11.9165C24.8728 12.0016 24.4248 12.1434 24.2637 12.2522L24.1277 12.3656L23.9767 12.4933C23.7451 12.6682 23.6595 12.7958 23.7854 12.7769C23.9112 12.758 24.4449 12.5311 24.8527 12.3609L25.2554 12.2616L25.477 12.2049C25.4619 12.0442 25.4619 11.8882 25.477 11.8551H25.5021C25.5424 11.8362 25.6179 11.8314 25.633 11.8504L25.6783 11.9024C25.7236 11.9969 25.8294 12.0016 25.9099 11.9165L25.9754 11.8504C26.0106 11.8125 26.0509 11.7463 26.0811 11.7511L26.4184 11.7842C26.5845 11.5903 26.7809 11.3634 26.8463 11.2783C26.9118 11.1932 27.4253 11.1412 27.6116 11.042L27.8281 11.0136C27.9237 10.9994 28.0194 10.9474 28.0999 10.8954L28.115 10.886C28.0647 10.8151 28.0747 10.7583 28.1352 10.7583C28.1956 10.7583 28.4221 10.73 28.4624 10.6874C28.5027 10.6449 28.6839 10.4321 28.7393 10.3376L28.9507 10.3801C29.0514 10.399 29.2478 10.2525 29.3485 10.1485L29.4341 10.0587C29.5549 9.99249 29.6707 9.93576 29.7009 9.9263C29.7311 9.91685 29.862 9.91212 29.9677 9.89321C30.0734 9.8743 30.4208 9.71357 30.5366 9.60957L30.6172 9.49611C30.7027 9.37792 30.8387 9.69939 30.8739 9.47247C30.9092 9.2361 31.0552 9.48665 31.1005 9.43938L31.2012 9.3401C31.2817 9.40156 31.3572 9.38265 31.3774 9.29756L31.4277 9.2361L31.4629 9.19355C31.5536 9.17465 31.7549 9.14628 31.916 9.1321C32.0772 9.11792 32.4598 8.85318 32.5655 8.74918L32.6763 8.66881L32.7014 8.6499C32.8072 8.68772 32.9028 8.67827 32.9129 8.62627C32.9229 8.57427 33.0085 8.39463 33.0488 8.46081C33.0891 8.52699 33.2502 8.5979 33.3408 8.54117C33.4314 8.48445 33.6026 8.38044 33.6278 8.27644L33.8241 8.29062L33.955 8.30008C34.101 8.23389 34.2823 8.10153 34.3527 8.00698L34.5138 7.96916C34.5944 7.95025 34.6296 7.89352 34.7152 7.96916L34.7454 7.99752C34.826 7.99752 34.9921 7.91716 35.1129 7.81788L35.3042 7.78006L35.4805 7.74697C35.6466 7.62879 35.9587 7.46806 36.1853 7.39242C36.4118 7.31678 37.2073 7.16078 37.4338 7.12296L37.6 6.98586L37.7762 6.83931C38.0581 6.79204 38.3249 6.83459 38.3702 6.92913C38.4156 7.02368 38.5565 7.27896 38.5767 7.27423C38.5968 7.26951 38.627 7.21278 38.6119 7.15605C38.5968 7.09932 38.5313 6.88186 38.5162 6.79677L38.8183 6.63603C39.065 6.50367 39.4678 6.57931 39.5936 6.30039C39.5987 6.29094 39.6993 6.28148 39.7245 6.30039C39.946 6.45167 39.9158 6.55567 39.6188 6.69276H39.6087C39.6087 6.69276 39.8504 6.69749 40.1424 6.65967L40.2733 6.61713C40.4092 6.57458 40.5703 6.54621 40.7113 6.5604L40.9479 6.58876C40.9932 6.44694 41.0637 6.3713 41.0989 6.41857C41.1342 6.46585 41.2953 6.60767 41.3154 6.5604C41.3355 6.51312 41.3607 6.25784 41.3658 6.05929L41.7635 5.78038L41.8289 5.7331C41.8994 5.67637 41.985 5.71419 42.0202 5.81347C42.0555 5.91274 42.3827 6.09238 42.569 6.00256C42.7553 5.91274 43.3594 5.84183 43.3594 5.77565C43.3594 5.70947 43.3141 5.51564 43.2537 5.60546C43.1933 5.69528 42.8761 5.67637 42.8509 5.63383V5.59128C42.866 5.52037 42.7754 5.336 43.0422 5.48728L43.0875 5.51092C43.304 5.37382 43.5054 5.336 43.5306 5.42582V5.48728L43.5457 5.55346C43.5457 5.63856 43.591 5.70947 43.6514 5.70947C43.7118 5.70947 43.9182 5.61965 43.9635 5.50619C44.0088 5.39273 44.2203 5.08545 44.3008 5.16582C44.3814 5.24618 44.6986 5.388 44.8144 5.29818L44.9251 5.25091L45.0711 5.18945C45.2473 5.14691 45.4991 5.0949 45.63 5.076L45.7558 5.09963C45.932 5.13272 46.1032 5.0949 46.2442 5.00036C46.2995 4.96254 46.3499 4.92472 46.4053 4.8869L46.803 4.6458L46.8785 4.62217C46.9641 4.5938 47.2309 4.52289 47.4776 4.46143C47.7243 4.39998 48.409 4.24397 48.5953 4.22034C48.7815 4.1967 49.3655 4.18252 49.4561 4.1967C49.5468 4.21088 49.5669 4.44252 49.4159 4.49453C49.2648 4.54653 49.1793 4.8869 49.2548 4.83963C49.3303 4.79235 49.6021 4.78762 49.7381 4.90581L49.879 4.9909L50.0049 5.06654C50.1861 5.10909 50.463 5.232 50.6191 5.34073L50.3674 5.47782L50.317 5.50619C50.3422 5.69056 50.4077 5.7851 50.4731 5.70947C50.5386 5.63383 50.6896 5.52982 50.6644 5.66219C50.6392 5.79456 50.4731 6.00256 50.599 6.01675C50.7248 6.03093 51.1226 5.97893 51.2686 5.95529C51.4146 5.93165 51.5152 5.6291 51.5807 5.67637C51.6461 5.72365 51.8425 5.74728 51.9482 5.66219C52.0539 5.5771 52.4366 5.43528 52.5272 5.43055C52.6178 5.42582 52.799 5.26036 52.8997 5.284L52.9954 5.29818L53.0558 5.30764C53.1263 5.30764 53.1615 5.27455 53.1414 5.23673C53.1212 5.19891 53.237 5.10909 53.3981 5.03345C53.5592 4.95781 54.0778 4.77344 54.1684 4.73562C54.259 4.6978 54.3345 4.46616 54.3547 4.44725C54.3748 4.42834 54.4755 4.41416 54.5359 4.45671L54.5863 4.49925L54.6114 4.52289C54.6316 4.56071 54.7524 4.45198 54.8783 4.28179L54.9991 4.13524C55.0293 4.10215 55.1048 4.06433 55.1552 4.07379L55.4119 4.10688C55.5881 3.97924 55.8097 3.82324 55.9053 3.75705H56.0211L56.1822 3.76651C56.3282 3.71451 56.4843 3.65305 56.5296 3.62469C56.5749 3.59632 56.59 3.44032 56.7008 3.37413L56.8165 3.3505C56.9625 3.31741 57.1236 3.32213 57.2797 3.32213C57.3854 3.32213 57.1941 3.04322 57.4811 3.19922C57.5012 3.2134 57.6422 3.09995 57.7227 3.04322C57.7781 3.0054 57.8234 2.95812 57.8889 2.92976C58.0147 2.87303 58.1507 2.82576 58.2765 2.7643L58.3873 2.70757C58.5132 2.70757 58.7196 2.63666 58.8404 2.54211L58.9512 2.45702L59.0619 2.37193C59.1576 2.30102 59.2935 2.24429 59.369 2.24901C59.4445 2.25374 59.5603 2.20174 59.4949 2.12137L59.6258 2.03628C59.7818 1.94173 59.8473 2.02683 59.9631 2.0741L60.0185 2.09774C60.1343 2.03628 60.3306 1.91337 60.4514 1.82828L60.6226 1.95592C60.683 2.00319 60.7485 1.94173 60.6679 1.79991L60.6327 1.74318C60.6579 1.71482 60.8391 1.625 61.0354 1.54463L61.2368 1.521C61.2771 1.521 61.2821 1.35554 61.4734 1.34608H61.554C61.6446 1.34608 61.8963 1.32245 62.1178 1.29408C62.3394 1.26572 62.6616 0.802432 62.8227 0.774068C62.9838 0.745703 63.5426 0.636973 63.7087 0.547153C63.8749 0.457332 64.1065 0.358057 64.1467 0.391149C64.187 0.424241 64.3632 0.495152 64.4035 0.447878L64.3934 0.419513L64.3683 0.362785C64.3179 0.306056 64.3431 0.22569 64.4236 0.183144C64.5042 0.140597 64.7811 0.107505 65.0127 0.0838684L65.214 0.055504L65.3349 0.0365944C65.4456 -0.0201343 65.8434 0.112233 66.2209 0.324965L66.5633 0.528243L66.6187 0.561335C66.669 0.608609 66.8301 0.684247 66.966 0.726794C67.102 0.76934 67.5148 0.665338 67.7313 0.599154L67.9377 0.684247C68.1693 0.778795 68.3908 0.87807 68.6727 0.840251C68.7432 0.830796 69.3473 1.13808 69.438 1.18062C69.5084 1.21372 69.6293 1.18062 69.7048 1.20899C69.8004 1.24208 69.8709 1.34135 69.9666 1.35081C70.1931 1.37917 70.1126 1.50209 70.1076 1.58718V1.64391C70.0371 1.70536 69.9515 1.82828 69.9162 1.9181C69.881 2.00792 70.2435 2.29156 70.178 2.32938C70.1126 2.3672 70.0119 2.55629 70.0622 2.68393C70.1126 2.81157 70.5153 3.03376 70.465 3.11413C70.4147 3.19449 70.3089 3.43086 70.3542 3.45923C70.3996 3.48759 70.47 3.60578 70.4499 3.65778C70.4298 3.70978 70.3744 3.86578 70.3442 3.88942C70.314 3.91306 70.168 3.92724 70.1126 3.98869L70.1327 4.01233L70.2334 4.13524C70.3643 4.25816 70.4952 4.34798 70.5153 4.33379C70.5355 4.31961 70.6613 4.28652 70.6563 4.3527C70.6513 4.41889 70.611 4.57489 70.5909 4.58907C70.5707 4.60326 70.5556 4.71199 70.5909 4.80181C70.6261 4.89163 70.7016 5.30291 70.757 5.50619L70.908 5.6811L70.9936 5.77565C70.9533 5.94584 71.0792 6.13966 71.2705 6.21057L71.4367 6.27675L71.4769 6.29094C71.6179 6.40439 71.6783 6.5273 71.6078 6.56512C71.5373 6.60294 71.5021 6.73058 71.5122 6.82986C71.5222 6.92913 71.2755 7.31205 71.2 7.51533H70.7822C70.6764 7.62406 70.7167 7.77061 70.8678 7.85098L70.9836 7.90298C71.0389 7.92661 71.0389 7.92189 71.0993 7.78479C71.1245 7.73279 71.1799 7.6477 71.2302 7.64297C71.5222 7.62406 71.7085 7.25532 72.071 7.48697L72.7003 7.15605L72.7255 7.13241C72.7557 7.10877 72.8765 7.07096 72.9973 7.04732C73.1182 7.02368 73.4102 6.86768 73.4555 6.82513C73.5008 6.78258 73.9388 6.7684 74.0898 6.65967L74.2207 6.56512L74.7997 6.46112L74.9004 6.57458C75.0061 6.5084 75.2075 6.37603 75.3535 6.27675C75.4995 6.17748 75.9425 5.80874 76.0079 5.64328L76.2697 5.80401C76.4258 5.90329 76.6775 5.75201 76.8286 5.91274L76.8487 5.93638C76.9544 5.90802 77.1558 5.79456 77.2968 5.6811L77.5032 5.61492C78.1224 5.4211 78.2382 5.34546 78.5151 5.46364L78.7668 5.56764C79.0538 5.55346 79.2602 5.49673 79.225 5.43528C79.1897 5.37382 79.2653 5.17054 79.4515 5.06654C79.6378 4.96254 80.3426 4.73562 80.4081 4.71671L80.4836 4.75926C80.5793 4.81599 80.7051 4.82072 80.7152 4.69308C80.7253 4.55598 80.8713 4.56071 80.9518 4.58907L81.2891 4.71199C81.6466 4.65053 81.9335 4.52289 81.9335 4.42834C81.9335 4.33379 82.4219 4.22506 82.729 4.17779L82.9606 4.07379C83.1015 4.01233 83.2777 3.9887 83.4439 3.96033L83.5798 3.93669C83.6956 3.83742 83.8215 3.80433 83.8617 3.85633C83.902 3.90833 84.053 4.0407 84.0984 4.02179L84.1235 4.00288L84.2544 3.90833C84.3904 3.7996 84.6219 3.77123 84.7679 3.8516L84.8636 3.66723C84.8787 3.63887 85.065 3.65778 85.1707 3.66723L85.2311 3.67669C85.2915 3.67669 85.4476 3.63887 85.5785 3.58214C85.7094 3.52541 86.238 3.53959 86.4948 3.58214L86.676 3.40723C86.7414 3.34577 86.7868 3.32686 86.8774 3.39777L86.9176 3.42614C87.0183 3.40723 87.1845 3.35995 87.2852 3.32213C87.3859 3.28431 87.8692 3.27013 88.0605 3.20395L88.1108 3.24177L88.3323 3.4025C88.4834 3.28904 88.7452 3.14722 88.9113 3.09049L89.0674 3.04794C89.0674 3.04794 89.1328 3.06685 89.163 3.08104C89.4752 3.22286 89.4953 3.24177 89.6262 3.13304L89.7873 3.00067C89.9434 3.06685 90.1296 3.13776 90.2001 3.1614C90.2706 3.18504 90.4418 2.99122 90.4972 2.92976H90.5475C90.7237 2.93449 90.6432 3.05267 90.6633 3.12831L90.6734 3.1614C90.6885 3.18977 90.9251 3.11413 91.202 2.99594L91.4587 2.89667C91.7457 2.78321 91.6349 2.83048 91.786 3.07631L91.9269 3.30795C91.7507 3.30322 91.7054 3.36468 91.8162 3.44977L91.8917 3.43559C92.0226 3.41195 92.2089 3.25122 92.234 3.27013C92.375 3.35995 92.5412 3.38832 92.657 3.31268C92.7979 3.21813 92.8281 3.30795 92.9087 3.34104L92.9439 3.35522C93.0194 3.31268 92.9993 3.23231 92.8986 3.18504L93.0698 3.14722C93.11 3.13776 93.2208 3.19922 93.2409 3.24649C93.2762 3.32213 93.2812 3.38359 93.3819 3.28904L93.4021 3.27013C93.392 3.19922 93.5883 3.18504 93.8451 3.24649C94.1018 3.30795 94.5499 3.70032 94.4694 3.7476C94.3888 3.79487 94.3133 3.99342 94.3989 4.08324C94.4845 4.17306 94.8016 4.37161 94.9074 4.34325C95.0131 4.31489 95.29 4.20143 95.29 4.15415C95.29 4.10688 95.4561 4.00288 95.6625 4.03597L95.441 4.24397L95.3303 4.34798C95.4863 4.48034 95.6625 4.62217 95.728 4.65998C95.7934 4.6978 95.5568 4.91054 95.5065 4.87272C95.4561 4.8349 95.3202 4.75453 95.3101 4.77344C95.3 4.79235 95.29 4.88217 95.29 4.97672C95.29 5.07127 95.7632 5.19891 95.9495 5.29346L95.728 5.48728L95.6726 5.53455C95.7834 5.69056 95.9394 5.85129 96.02 5.89856C96.1005 5.94584 96.1509 6.14439 96.2214 6.19166C96.2918 6.23893 96.1056 6.43748 96.0703 6.48003C96.0351 6.52258 96.0451 6.65967 96.0905 6.63603L96.1257 6.6124L96.176 6.57931C96.2465 6.52258 96.3522 6.52731 96.4076 6.58876C96.463 6.65022 96.5234 6.86295 96.4429 6.94804C96.3623 7.03314 95.9696 7.10405 95.8337 7.10405C95.6978 7.10405 95.29 7.1655 95.29 7.23641C95.29 7.30732 95.2245 7.50115 95.149 7.47751L95.1842 7.32623C95.1994 7.15605 95.149 7.01895 95.0685 7.01895C94.9879 7.01895 94.7815 7.03314 94.7865 7.04732C94.7916 7.0615 94.8318 7.17023 94.8671 7.24587C94.9023 7.32151 94.4895 7.48224 94.5549 7.42551V7.39242C94.565 7.29787 94.6003 7.14659 94.5398 7.12296C94.3687 7.04259 94.3737 7.18441 94.3032 7.26005C94.2076 7.35933 94.0364 7.42078 93.8854 7.48224C93.8249 7.50588 93.7343 7.48224 93.6588 7.46806L93.5783 7.4586C93.4977 7.43969 93.2309 7.5106 92.9892 7.61461L92.7878 7.72806C92.7023 7.77534 92.4405 7.81788 92.6771 7.97389C92.6418 8.00698 92.4505 8.07316 92.2542 8.12516C92.0578 8.17717 91.6903 8.52699 91.6501 8.54117C91.6098 8.55536 91.3732 8.51281 91.1567 8.47026L91.0711 8.65463L90.9855 8.839C90.8093 8.80591 90.6482 8.82009 90.618 8.86736C90.5878 8.91464 90.4619 9.05646 90.4166 9.08482H90.3814C89.9635 9.00919 89.6514 9.16992 89.4903 9.41574L89.3896 9.57175C89.2234 9.64738 89.0674 9.67575 89.0422 9.63793C89.017 9.60011 88.725 9.56229 88.4381 9.63793L88.1863 9.71357L88.136 9.72775C88.1007 9.7703 87.9799 9.90739 87.8692 10.035C87.7584 10.1627 87.6426 10.4841 87.6628 10.3896C87.6829 10.295 87.552 10.0776 87.4463 10.1154C87.3405 10.1532 87.1593 10.4747 87.114 10.3754L87.0485 10.347C86.9428 10.2998 86.8472 10.3281 86.827 10.451C86.822 10.4841 86.7062 10.5361 86.6357 10.5361H86.2229C85.9611 10.7678 85.508 11.0561 85.2261 11.1743L84.929 11.2169C84.929 11.2169 84.9089 11.302 84.929 11.3114C85.0952 11.3965 85.0348 11.4627 84.9139 11.5383C84.8586 11.5714 84.8233 11.6282 84.7679 11.6423L84.6974 11.6613C84.6068 11.6518 84.5565 11.5714 84.5766 11.4816H84.7981C84.7679 11.3682 84.6773 11.302 84.5968 11.3303C84.5162 11.3587 84.2897 11.4958 84.2393 11.5336C84.189 11.5714 83.9826 11.4911 83.9372 11.51C83.8919 11.5289 83.4892 11.7274 83.1569 11.9024L82.8599 12.0631L82.7592 12.1151C82.6484 12.0914 82.5226 12.0962 82.4772 12.1245C82.4319 12.1529 82.4168 12.2285 82.5377 12.2333C82.6585 12.238 82.9908 12.2569 83.026 12.3089C83.0612 12.3609 83.1166 12.5642 83.0361 12.5878L82.9757 12.6162L82.9203 12.6398C82.8599 12.6824 82.7944 12.6824 82.7692 12.6446C82.7441 12.6067 82.5679 12.602 82.442 12.7438L82.3464 12.8715C82.3212 12.9046 82.3665 12.9613 82.3816 13.0086L82.3917 13.0464C82.4068 13.0889 82.3615 13.122 82.2809 13.1267L82.2356 13.1031C82.1299 13.0464 82.004 13.0086 81.9235 13.0275L81.8781 13.0369C81.8278 13.0369 81.7019 13.018 81.5962 12.9991C81.4905 12.9802 81.3445 12.7391 81.1481 12.7107L81.0021 12.7533L80.7101 12.8384C80.5188 13.0653 80.3024 13.1551 80.2319 13.0417H80.1815C80.0909 13.0417 79.965 13.1031 79.9197 13.1646L79.8342 13.2733C79.7838 13.4104 79.7637 13.5806 79.7888 13.6515H79.9499C79.9852 13.7271 79.9902 13.8311 79.965 13.8831C79.9399 13.9351 79.7989 14.058 79.7335 14.0013C79.668 13.9446 79.5573 13.7413 79.4918 13.6609H79.2854C79.2703 13.6042 79.2552 13.5428 79.2552 13.5238C79.2552 13.5049 79.1847 13.4624 79.084 13.4718V13.486L79.0588 13.7697C78.7517 13.7886 78.5504 13.8737 78.6108 13.954C78.6712 14.0344 79.0286 14.077 79.0538 14.1573C79.079 14.2377 79.0739 14.4835 78.9783 14.5071C78.8826 14.5308 78.641 14.1668 78.495 14.0155L78.2231 14.2377L78.1627 14.285C78.0469 14.318 77.9966 14.3559 78.0469 14.3701C78.0973 14.3842 78.1174 14.4741 77.9915 14.5355C77.8657 14.597 78.0268 14.9137 77.9261 14.9846L77.8657 14.9704L77.7297 14.9421C77.5586 14.8522 77.4327 14.8239 77.4528 14.8806C77.473 14.9373 77.473 15.0933 77.4075 15.1028C77.3421 15.1123 77.1357 15.2021 77.2011 15.2683C77.2666 15.3344 77.3219 15.5424 77.1709 15.5566L77.1004 15.5188L77.0148 15.4715C77.0048 15.3581 76.9846 15.2257 76.9645 15.1784C76.9444 15.1312 76.9947 14.9137 77.1256 14.8002C77.2565 14.6868 77.1759 14.3275 77.0853 14.3748C76.9947 14.4221 76.7782 14.6111 76.8034 14.6915C76.8286 14.7719 76.8135 14.9704 76.7178 14.9326C76.6222 14.8948 76.1137 15.1879 76.0029 15.1643L75.9073 15.1312L75.8116 15.1028C75.6958 15.0839 75.5498 15.0933 75.4844 15.1217C75.4189 15.1501 75.3736 15.3959 75.3585 15.4952H75.3384C75.0514 15.4999 75.1471 15.6701 75.1017 15.7835L75.0766 15.845C74.9759 15.9065 74.8752 15.9159 74.8551 15.8686C74.8349 15.8214 74.7292 15.7552 74.6637 15.8166C74.5983 15.8781 74.3617 16.0341 74.261 16.0246C74.1603 16.0152 74.2157 16.2326 74.2459 16.2563C74.2761 16.2799 74.3063 16.3886 74.3214 16.4501C74.3365 16.5116 74.6486 16.5967 74.7191 16.6345C74.7896 16.6723 74.8349 16.8567 74.6587 16.9654L74.4825 16.7621L74.4221 16.6912C74.2811 16.6487 74.1452 16.6156 74.12 16.6203C74.0948 16.625 73.8935 16.6628 73.7223 16.7101L73.7525 16.8945L73.7726 17.0127C73.677 16.9559 73.4958 16.8897 73.3649 16.8661L73.3498 17.0127C73.3447 17.0741 73.3095 17.1356 73.2642 17.1828L73.2541 17.1923C73.1635 17.1639 73.0829 17.0978 73.0729 17.0458C73.0628 16.9938 73.1433 16.8047 73.2088 16.729L73.2843 16.6676C73.2843 16.6676 73.385 16.6723 73.4102 16.6581C73.4504 16.625 73.4907 16.573 73.4857 16.5352C73.4807 16.5021 73.4051 16.4596 73.3598 16.4548L73.234 16.4454C73.0678 16.4454 72.9571 16.5068 72.9873 16.573C73.0175 16.6392 72.796 16.729 72.6651 16.7196L72.5442 16.7054C72.5442 16.7054 72.5493 16.6723 72.5442 16.6581L72.4486 16.4596C72.212 16.3981 71.9602 16.365 71.8847 16.3839L71.8746 16.417C71.8595 16.4548 71.8897 16.521 71.93 16.5494L72.2321 16.7621C72.3328 16.9559 72.4637 17.1403 72.5191 17.1781H72.5694C72.6147 17.1687 72.6651 17.1214 72.6802 17.0836L72.7104 17.0174C72.7305 16.885 72.9118 17.0505 73.1081 17.3861L73.4001 17.5658C73.4958 17.6272 73.6015 17.6272 73.6418 17.5043L73.6518 17.4665C73.6921 17.4287 73.7777 17.3814 73.8431 17.3578C73.9086 17.3341 74.115 17.3389 74.1402 17.2869C74.1653 17.2349 74.3315 17.1687 74.4473 17.2727C74.5631 17.3767 74.7745 17.6414 74.6738 17.6272C74.5731 17.613 74.3113 17.8494 74.1402 17.9014L74.0093 17.9865L73.9942 17.996C73.9337 17.9771 73.9086 17.9251 73.9287 17.8778C73.9489 17.8305 73.964 17.7123 73.8985 17.7123C73.8331 17.7123 73.7223 17.84 73.7424 17.996L73.6921 18.1141L73.6418 18.2276C73.7022 18.2465 73.6971 18.3174 73.6367 18.3836C73.5763 18.4498 73.3044 18.5254 73.1484 18.4309L73.0275 18.4403C72.7658 18.464 72.8664 18.2702 72.7456 18.2229C72.5694 18.1567 72.5644 18.152 72.6298 18.1047C72.7557 18.0149 72.8312 17.873 73.093 17.996L73.1987 18.048C73.2793 17.873 73.1987 17.7265 73.0124 17.7218C72.8262 17.717 72.3831 17.892 72.2069 17.996L72.1515 18.1189L72.1062 18.2181C72.1818 18.3552 72.2875 18.516 72.3429 18.5774C72.3982 18.6389 72.1666 18.7996 71.9401 18.7382L71.7287 18.6814H71.7236C71.6682 18.4545 71.638 18.2607 71.6481 18.256L71.5726 18.3505C71.4518 18.5018 71.492 18.5018 71.6733 18.5538C71.7488 18.5774 71.8344 18.6578 71.92 18.62L71.9703 18.6011C71.9804 18.5207 71.9552 18.36 71.9149 18.2465C71.8746 18.1331 71.925 17.8494 71.8344 17.8872L71.7689 17.8967L71.6682 17.9109C71.638 18.1047 71.5978 18.3694 71.5776 18.4971C71.5575 18.6247 71.5776 18.8374 71.7488 18.8942L71.8797 18.9462C72.0509 19.0124 72.0408 19.0313 71.8293 19.1542L71.7991 19.1731C71.784 19.2109 71.7589 19.2913 71.7387 19.348C71.7186 19.4047 71.6229 19.5229 71.5625 19.5182C71.5021 19.5135 71.2504 19.5844 71.1447 19.6836L70.9735 19.6742L70.8426 19.6647C70.7922 19.7356 70.6865 19.8538 70.6009 19.92C70.5153 19.9862 70.1831 20.0666 70.0773 20.0571C69.9716 20.0476 69.8508 19.8633 69.9011 19.8349C69.9515 19.8066 70.0673 19.6742 69.9716 19.6269L69.9062 19.5844C69.8105 19.5276 69.7501 19.4567 69.8609 19.3716L69.9515 19.3054C70.0824 19.2865 70.2938 19.3007 70.4146 19.3291C70.5355 19.3575 70.7822 19.036 70.8124 19.0076C70.8426 18.9793 71.0993 18.8942 71.2453 18.8374L71.0893 18.7193C71.044 18.6862 70.9936 18.6531 70.9332 18.6294L70.8829 18.6058C70.8124 18.5916 70.7922 18.5538 70.8426 18.516C70.8929 18.4782 71.0188 18.3316 70.9735 18.3127C70.9282 18.2938 70.7369 18.3127 70.6563 18.3883C70.5758 18.464 70.3996 18.9131 70.2787 18.932C70.1579 18.9509 69.8156 18.9793 69.8508 18.932C69.886 18.8847 69.9364 18.7098 69.9213 18.6483L69.881 18.6342C69.8357 18.62 69.73 18.6342 69.7098 18.6673L69.6293 18.7807C69.5638 18.9131 69.3927 18.9887 69.2416 18.9556H69.1057C69.0755 18.9462 69.01 19.0407 69.005 19.0974V19.1447C69.0453 19.2014 69.005 19.2345 68.9144 19.2204L68.854 19.1873L68.7634 19.14C68.6778 19.0691 68.6576 18.9887 68.718 18.9603C68.7785 18.932 68.8741 18.7523 68.8942 18.6342L68.859 18.5396L68.8187 18.4403C68.8691 18.36 68.9144 18.2796 68.9093 18.2607C68.9043 18.2418 69.01 18.1425 69.1258 18.0432C69.2416 17.944 69.7954 17.6603 69.9666 17.5563C70.1378 17.4523 70.606 17.2018 70.6362 17.2254V17.249L70.606 17.353C70.5707 17.4618 70.5808 17.5138 70.6261 17.4665C70.6714 17.4192 70.8929 17.353 70.9282 17.3389C70.9634 17.3247 71.1698 17.2916 71.3209 17.3152V16.9512C71.4719 16.781 71.6229 16.6203 71.6632 16.5919C71.7035 16.5636 71.6884 16.5257 71.6531 16.5352C71.6179 16.5447 71.4215 16.5494 71.3209 16.5636C71.2202 16.5777 71.0943 16.8236 70.9987 16.8614L70.9785 16.8425L70.7167 16.6392L70.7419 16.6203ZM69.8961 18.36C69.8357 18.3789 69.6494 18.3978 69.4883 18.4025L69.3776 18.3931L69.1913 18.3789C69.1107 18.4876 69.0704 18.6105 69.1007 18.6578C69.1309 18.7051 69.297 18.7618 69.3876 18.6909C69.4782 18.62 69.6444 18.1283 69.6746 18.2512C69.7048 18.3742 69.9565 18.3363 69.8961 18.3552V18.36ZM25.039 19.192C24.4801 19.4756 24.4801 19.5513 25.0037 19.764C25.0138 19.5891 25.0239 19.4284 25.039 19.192Z" fill="#EE6529" fill-opacity="0.39"/>
<path d="M61.8078 28.3959C61.7373 28.3912 61.5862 28.3439 61.4704 28.2872C61.3547 28.2304 60.9771 28.1075 60.8713 28.1264C60.7656 28.1453 60.5542 28.3202 60.5038 28.3392C60.4535 28.3581 59.9802 28.4762 59.95 28.5708L60.0457 28.585C60.0809 28.5897 60.1414 28.4762 60.2018 28.4242L60.2773 28.3581C60.3729 28.2919 60.3931 28.1973 60.3226 28.1548C60.2521 28.1122 59.9802 28.2635 59.9249 28.2966C59.8695 28.3297 60.0507 28.4668 60.1162 28.5424C60.1816 28.6181 60.237 28.7315 59.94 28.6937C59.6429 28.6559 59.1143 28.2446 59.0891 28.2068C59.064 28.169 58.8928 28.0933 58.7921 28.1122L58.8626 27.9893L58.9331 27.8617C59.0086 27.6962 58.9885 27.5591 58.8978 27.5544H58.8173L58.5756 27.578C58.48 27.4315 58.2836 27.0108 58.1376 26.6373L57.9967 26.3016L57.9715 26.2449C57.9362 26.2071 57.9916 26.1173 58.1024 26.0416C58.2131 25.966 58.4498 25.7391 58.3944 25.6965C58.339 25.654 58.5907 25.5216 58.6965 25.4791L58.7871 25.4413H58.8022C58.8072 25.4176 58.8324 25.3278 58.8576 25.238C58.8827 25.1482 59.1445 24.8834 59.215 24.8078C59.2855 24.7322 59.4265 24.4863 59.4013 24.4485V24.302C59.5422 24.302 59.8292 24.2783 60.0356 24.2547L60.0256 24.1318V24.0703C59.8695 23.9947 59.804 23.9096 59.8796 23.8812C59.9551 23.8529 60.1917 23.7961 60.2269 23.7772C60.2622 23.7583 60.2571 23.6401 60.3276 23.6023L60.378 23.6118L60.4837 23.6307C60.6297 23.6401 60.6901 23.5692 60.6146 23.4699C60.5391 23.3707 60.4031 23.1343 60.4837 23.1721C60.5642 23.2099 60.8713 23.2194 60.9318 23.1248L60.9871 23.0397C61.0224 22.9877 61.0375 22.9074 61.0929 22.8837L61.1885 22.8412C61.2993 22.8034 61.3748 22.7419 61.3597 22.7088C61.3446 22.6757 61.3496 22.5481 61.4855 22.6143C61.6215 22.6805 61.8279 22.8648 61.7121 22.9121L61.6869 22.9783L61.6668 23.035C61.5762 23.0917 61.3798 23.2336 61.2338 23.3612L61.2691 23.4936C61.2791 23.5361 61.3194 23.5976 61.3597 23.6023L61.41 23.6118C61.4805 23.5834 61.6718 23.5172 61.8329 23.4605L61.8128 23.2903L61.7826 23.0492C61.556 23.087 61.3446 23.1107 61.3144 23.1012C61.2842 23.0917 61.6316 23.1296 61.7876 23.1343C61.9437 23.139 62.1249 23.3281 62.1753 23.347C62.2256 23.3659 62.3263 23.5408 62.286 23.7205L61.994 23.7299H61.9739C61.9588 23.8292 61.8833 23.9569 61.8027 24.0136C61.7222 24.0703 61.3245 24.1081 61.2238 24.0987C61.1231 24.0892 60.9116 24.2121 60.9016 24.2027C60.8915 24.1932 60.8663 24.1412 60.8562 24.0987C60.8462 24.0561 60.6851 23.9049 60.5038 23.9096L60.4636 23.9616C60.3629 24.0987 60.5491 24.1034 60.6649 24.1365L60.7002 24.146C60.7102 24.2169 60.6398 24.2925 60.5491 24.3161L60.4837 24.2972L60.1665 24.2169C60.096 24.3871 60.086 24.5336 60.1363 24.5336C60.1867 24.5336 60.3528 24.5147 60.4082 24.5005C60.4636 24.4863 60.7707 24.4391 60.967 24.4154L61.2137 24.6376C61.3496 24.7605 61.4755 24.8645 61.3496 25.0347L61.3043 25.0962C61.2791 25.1718 61.41 25.1623 61.5963 25.0725L61.6567 24.9591C61.692 24.8929 61.5812 24.7842 61.5359 24.6943L61.4906 24.6045C61.4402 24.5052 61.4805 24.4485 61.5812 24.4721C61.6819 24.4958 61.8883 24.5951 61.8682 24.6471C61.848 24.6991 61.8631 24.7936 61.9387 24.7747C62.0142 24.7558 62.0998 24.5667 62.13 24.4201C62.1602 24.2736 62.0696 23.9427 62.2156 23.9805C62.3616 24.0183 62.8046 24.1034 62.7291 24.042C62.6535 23.9805 62.6737 23.8009 62.865 23.7158L62.9556 23.5976L63.0462 23.4841C63.1671 23.3754 63.157 23.2903 63.016 23.2903C62.8751 23.2903 62.4069 23.2619 62.3011 23.2241C62.1954 23.1863 61.9991 23.0019 62.0444 22.9925C62.0897 22.983 62.1652 22.8554 62.1149 22.7466C62.0645 22.6379 61.7071 22.5056 61.7775 22.4772C61.848 22.4488 62.0494 22.4063 62.0645 22.4441L62.0947 22.4772C62.1249 22.5103 62.1753 22.5576 62.2206 22.5623C62.2659 22.5623 62.3565 22.5197 62.3565 22.4914L62.3716 22.3543C62.3716 22.2125 62.3867 22.0754 62.4169 22.047H62.432C62.432 22.047 62.4622 22.0706 62.4824 22.0801C62.4975 22.0943 62.5277 22.1179 62.5277 22.1132C62.6233 22.0612 62.724 22.0092 62.8197 21.9524L62.9607 21.8674C62.8801 21.7775 62.8147 21.6735 62.8197 21.6357H62.8398C62.8801 21.6168 62.9455 21.6073 62.9657 21.6263C63.006 21.6593 63.0261 21.7066 63.0462 21.7492L63.1016 21.8626C63.2073 21.8248 63.3533 21.7255 63.4289 21.6404C63.5044 21.5553 63.6604 21.2906 63.6302 21.215L63.6151 21.1393C63.6151 21.1393 63.7611 21.0873 63.7813 21.1015L64.0028 21.2764C64.0783 21.1252 64.1589 20.9408 64.1891 20.8651C64.2193 20.7895 64.3904 20.5957 64.5062 20.6193C64.622 20.643 64.9342 20.643 64.9493 20.5815C64.9644 20.52 65.0298 20.364 65.06 20.416C65.0902 20.468 65.2564 20.5768 65.3571 20.5484L65.3923 20.5011L65.5534 20.2837C65.8102 20.3404 66.0266 20.416 66.0417 20.4491C66.0569 20.4822 66.2028 20.572 66.3086 20.5295C66.4143 20.487 66.7063 20.3073 66.7466 20.2411L66.7315 20.2317L66.6711 20.1939C66.5855 20.1749 66.4797 20.1844 66.4344 20.2128C66.3891 20.2411 66.1877 20.2648 66.1122 20.1229L65.9964 20.0662L65.8806 20.0142C65.6038 20.0237 65.5282 20.0095 65.7145 19.9811C65.9008 19.9528 65.9813 19.6644 66.0266 19.6691C66.072 19.6738 66.1676 19.688 66.1475 19.7069C66.1273 19.7258 66.1324 19.8109 66.1978 19.8393C66.2633 19.8677 66.4797 20.0142 66.5452 20.0804L66.6207 19.9859L66.656 19.9433C66.666 19.8866 66.656 19.8109 66.6308 19.7731C66.6056 19.7353 66.7365 19.5935 66.7919 19.5557C66.8473 19.5178 66.7919 19.2342 66.8573 19.2295C66.9228 19.2247 67.1594 19.2673 67.1242 19.3382C67.0889 19.4091 67.0335 19.5888 67.0637 19.5982C67.094 19.6077 67.1795 19.532 67.245 19.4517C67.3104 19.3713 67.6528 19.1113 67.8139 19.1207L67.9599 19.1727C68.0757 19.2106 68.1512 19.2531 68.2368 19.1633C68.2569 19.1396 68.2569 19.0829 68.2368 19.064L68.1663 19.012C68.0807 18.9742 67.9649 18.9269 67.9095 18.908C67.8542 18.8891 67.7988 18.8182 67.9045 18.7662L67.9599 18.7L67.98 18.6716C67.9045 18.5913 67.9901 18.5251 68.1713 18.5156C68.3526 18.5062 68.7352 18.2462 68.9315 18.3313L68.705 18.492C68.6597 18.5251 68.5539 18.5487 68.5187 18.5298L68.413 18.4778C68.3224 18.5156 68.1814 18.6433 68.1059 18.7709L68.3022 18.9127L68.5388 19.0876C68.5036 19.2578 68.2317 19.2957 67.9297 19.1727L67.7786 19.5131C67.7786 19.5131 67.6931 19.5131 67.6528 19.5273L67.3809 19.5935C67.5118 19.7306 67.688 19.7968 67.7686 19.7353C67.8491 19.6738 68.1311 19.5367 68.2166 19.5698C68.3022 19.6029 68.408 19.7117 68.262 19.74C68.116 19.7684 67.9397 20.2695 67.9045 20.3735V20.468C67.9045 20.5295 67.9599 20.6099 68.0253 20.643L68.0656 20.6666C68.1613 20.6382 68.2922 20.5248 68.3626 20.4113L68.5036 20.3546C68.564 20.3309 68.6546 20.2648 68.6446 20.2364L68.5842 20.0048C68.559 19.7542 68.569 19.5462 68.6043 19.5415C68.6395 19.5367 68.7654 19.5651 68.8006 19.6124C68.8359 19.6597 68.9416 19.8109 68.9617 19.8393C68.9819 19.8677 69.1178 19.9197 69.2185 19.8913L69.2487 19.844L69.3544 19.6738C69.4702 19.4186 69.6565 19.3004 69.7572 19.4044C69.8579 19.5084 69.8327 19.8393 69.7723 19.844C69.7119 19.8488 69.2839 20.156 69.3997 20.1608L69.4853 20.1513L69.6162 20.1371C69.7874 20.104 69.8881 20.1371 69.8428 20.208C69.7975 20.2789 69.6414 20.4728 69.6263 20.4302C69.6112 20.3877 69.4753 20.3309 69.3393 20.364L69.2235 20.4113C69.2235 20.4113 69.2537 20.5248 69.2739 20.5815L69.294 20.6382C69.3343 20.7281 69.2638 20.7753 69.143 20.747C69.0222 20.7186 68.7402 20.7942 68.6748 20.8557C68.6093 20.9171 68.2871 21.0826 68.126 21.0637C67.9649 21.0448 67.5168 21.1441 67.4665 21.0826C67.4162 21.0212 67.3306 20.8084 67.4313 20.799L67.4917 20.7848C67.5672 20.7659 67.6427 20.7422 67.6981 20.7044L67.7132 20.6902C67.6679 20.6288 67.5571 20.539 67.4715 20.4917C67.3859 20.4444 67.1997 20.3026 67.2198 20.2506C67.2399 20.1986 67.2349 20.0709 67.1242 20.1277C67.0134 20.1844 66.8775 20.5248 66.9228 20.643L66.9329 20.7517V20.8037C66.9329 20.8557 66.8724 20.9313 66.807 20.9691L66.7919 20.9597L66.7264 20.9219C66.6761 20.8651 66.6308 20.7848 66.6257 20.7375C66.6207 20.6902 66.51 20.6004 66.4848 20.6193C66.4596 20.6382 66.3589 20.7091 66.3237 20.7328C66.2884 20.7564 65.9209 20.8226 65.9008 20.8699L65.9159 20.9266L65.926 20.9739C65.8857 21.0353 65.8353 21.0684 65.8102 21.0542C65.785 21.0401 65.6642 21.0448 65.6642 21.1441C65.6642 21.2433 65.5534 21.4986 65.4225 21.5128C65.2916 21.527 64.9241 21.3237 64.8083 21.2622L64.6875 21.3615L64.6724 21.371C64.6019 21.3426 64.5264 21.2859 64.5012 21.2433C64.476 21.2008 64.3602 21.3473 64.4358 21.475L64.6271 21.5033C64.8133 21.5317 64.9996 21.5695 65.1809 21.6073H65.206C65.206 21.6073 65.1708 21.683 65.1154 21.735C65.06 21.787 64.8435 21.8437 64.6623 21.8343L64.5818 21.8721L64.5062 21.9099C64.471 22.0044 64.325 22.1415 64.179 22.2125L64.0129 22.1652L63.9827 22.1557C63.9323 22.1557 63.892 22.2077 63.8971 22.2834C63.9021 22.359 64.0179 22.5765 64.1387 22.5245C64.2595 22.4725 64.7026 22.3495 64.763 22.3968C64.8234 22.4441 64.9996 22.5292 65.0399 22.4961C65.0802 22.463 65.1758 22.3306 65.1305 22.2834C65.0852 22.2361 64.9744 22.0754 65.0097 22.0612C65.0449 22.047 65.2111 22.0423 65.3772 22.047L65.5232 22.0186L65.7649 21.9714C65.6742 22.3543 65.5886 22.8081 65.5735 22.9783C65.5584 23.1485 65.7598 23.0114 65.8655 22.8837C65.9713 22.7561 66.5251 22.6379 66.5804 22.6285L66.5905 22.6096C66.6106 22.567 66.6157 22.4819 66.6006 22.4772C66.4999 22.4536 66.374 22.4677 66.2935 22.4299C66.2029 22.3874 66.1525 22.2928 66.072 22.2314C66.0619 22.2219 65.9461 22.2645 65.9461 22.2786V22.3779C65.8504 22.4157 65.7195 22.4961 65.6591 22.5576L65.6793 22.5906C65.7246 22.6568 65.8454 22.6899 65.7044 22.7797L65.5484 22.8743C65.5786 22.7608 65.6491 22.5197 65.7145 22.3401C65.78 22.1605 65.9713 21.8626 66.0871 21.7775L66.2079 21.7113C66.2381 21.6972 66.3086 21.7208 66.3388 21.7066C66.3992 21.6735 66.4344 21.6215 66.4898 21.5884L66.7113 21.4561C66.8473 21.2528 67.0537 21.1062 67.1644 21.1252C67.2752 21.1441 67.688 21.2433 67.824 21.3048L67.6226 21.4277L67.5722 21.4608C67.6175 21.5932 67.6427 21.7019 67.6326 21.7019C67.6226 21.7019 67.4564 21.683 67.2953 21.6546L67.3054 21.8248C67.3155 21.9572 67.4615 21.9099 67.5571 21.9146H67.7585C68.0304 21.7303 68.2972 21.5364 68.3576 21.475C68.418 21.4135 68.6345 21.4561 68.5942 21.5317C68.554 21.6073 68.408 22.0943 68.413 22.1841C68.418 22.2739 68.5187 22.2786 68.5842 22.2314C68.6496 22.1841 68.6949 21.9383 68.6244 21.8201H68.6093L68.418 21.8815C68.2267 21.9666 68.0002 22.0706 67.9045 22.1179C67.8088 22.1652 67.5873 22.3401 67.6276 22.4016C67.6679 22.463 67.8139 22.6285 67.834 22.5859C67.8542 22.5434 67.9297 22.4583 67.9649 22.4725C68.0002 22.4866 68.1109 22.5008 68.121 22.4441C68.1311 22.3874 68.5338 22.0139 68.6798 21.9903C68.8258 21.9666 69.2638 21.7539 69.3595 21.6641C69.4551 21.5743 69.8629 21.5601 69.873 21.5223C69.883 21.4844 69.9837 21.3568 70.0794 21.3095C70.175 21.2622 70.3815 21.0968 70.321 21.0495C70.2606 21.0022 70.0794 20.9124 70.0643 20.9597C70.0492 21.007 69.9636 21.1015 69.9233 21.163C69.8831 21.2244 69.8478 21.3946 69.7824 21.3899C69.7169 21.3852 69.5105 21.2622 69.4501 21.2244C69.3897 21.1866 69.2638 21.0212 69.3142 20.9502C69.3645 20.8793 69.6716 20.8935 69.8478 20.903L69.8931 20.7848C69.9334 20.6808 69.8579 20.5342 70.1197 20.5484H70.1801C70.2506 20.5295 70.3714 20.5248 70.4469 20.539C70.5224 20.5531 70.7238 20.6761 70.6584 20.7564H70.603C70.4419 20.7753 70.4016 20.8604 70.4721 20.9266C70.5224 20.9739 70.6835 20.9881 70.7742 20.9691L70.905 20.9361C70.9101 20.7233 70.895 20.4917 70.8698 20.4208L70.8144 20.3782L70.7641 20.3404C70.603 20.2979 70.603 20.2648 70.7691 20.2695C70.9353 20.2742 71.2172 20.572 71.3531 20.6288L71.4236 20.7281C71.4437 20.7564 71.5595 20.7801 71.5998 20.7611C71.7659 20.6855 71.922 20.5957 72.073 20.5059C72.0982 20.4917 72.0932 20.435 72.073 20.4066C72.0579 20.383 72.0026 20.3451 71.9774 20.3499L71.8465 20.383C71.6602 20.4397 71.5495 20.4302 71.5897 20.3593C71.63 20.2884 71.776 20.1891 71.8314 20.2459C71.8868 20.3026 72.1536 20.104 72.2493 20.0379C72.3449 19.9717 72.7326 19.8488 72.8937 19.8629L73.0397 19.8818H73.0699C73.1051 19.8913 73.3115 19.8062 73.523 19.6928L73.679 19.5651L73.7697 19.4895C73.7344 19.3335 73.7898 19.1917 73.8855 19.168C73.9811 19.1444 74.3637 19.1113 74.5198 19.0829C74.6759 19.0546 74.7514 18.7425 74.701 18.7L74.4544 18.8607C74.3637 18.7 74.2781 18.6149 74.2681 18.6669C74.258 18.7189 74.1422 18.8891 74.0516 18.8891C73.961 18.8891 73.7193 18.9316 73.7747 18.9836C73.8301 19.0356 73.6086 19.22 73.4777 19.2342L73.4676 19.2673C73.4525 19.3287 73.5683 19.4422 73.5381 19.4706C73.4072 19.5888 73.3266 19.4564 73.2209 19.4091L73.1706 19.3855C73.09 19.3949 73.0648 19.3618 73.1101 19.3146C73.1555 19.2673 73.2209 19.1302 73.1756 19.0924C73.1303 19.0546 73.0598 18.8465 73.1101 18.7047L73.3367 18.8513C73.377 18.8749 73.5129 18.8607 73.5582 18.8276C73.6287 18.7756 73.6488 18.6858 73.7143 18.6244L73.7294 18.6102C73.82 18.6385 73.9157 18.6007 73.9408 18.5204L73.9761 18.4494L74.107 18.2084C74.3537 18.3313 74.5802 18.44 74.6104 18.4494C74.6406 18.4589 74.7866 18.3124 74.842 18.1138L74.6205 17.9625L74.555 17.9153C74.5349 17.816 74.6255 17.8018 74.7514 17.8822L74.8772 17.9342L74.9175 17.9531C74.9981 17.9483 75.0736 17.972 75.0786 18.0098C75.0837 18.0476 75.2045 18.1185 75.3102 18.0193L75.3303 17.9436L75.3958 17.712C75.5116 17.6127 75.6777 17.5276 75.7633 17.5276C75.8489 17.5276 76.0805 17.4709 76.0805 17.3952C76.0805 17.3196 76.1208 17.1163 76.2315 17.1541C76.3423 17.192 76.7501 17.2251 76.881 17.1447C77.0119 17.0643 76.8709 16.6719 76.9011 16.6341C76.9313 16.5963 76.9867 16.5679 76.9665 16.6247C76.9464 16.6814 77.3643 16.5821 77.4901 16.4923C77.616 16.4025 78.0792 16.5632 78.1748 16.5396L78.1899 16.5018L78.2252 16.3978C78.3359 16.3788 78.4769 16.3221 78.5423 16.2701C78.6078 16.2181 78.6783 16.0858 78.5524 16.0858C78.4265 16.0858 78.2252 16.0479 78.351 16.0243C78.4769 16.0007 78.6481 15.8116 78.6934 15.8777C78.7387 15.9439 78.9803 16.0527 79.076 16.0527C79.1716 16.0527 79.4133 15.9487 79.2723 15.821C79.1314 15.6934 79.0559 15.1592 79.2723 14.9323L79.4788 14.729C79.4788 14.729 79.5643 14.7101 79.6046 14.7195H79.6348C79.66 14.7526 79.6952 14.8944 79.7103 15.0363L79.6952 15.1639V15.2112C79.6801 15.3057 79.6046 15.2774 79.5291 15.1497H79.4636L79.3831 15.1355C79.2824 15.2017 79.1918 15.2774 79.1817 15.3057C79.1717 15.3341 79.2019 15.4286 79.2623 15.4665C79.3227 15.5043 79.4838 15.7265 79.6399 15.8163L79.7959 15.6603C79.7959 15.6603 79.9419 15.7076 80.0124 15.7454C80.0879 15.7785 80.1534 15.8588 80.2188 15.8588H80.3598C80.5108 15.821 80.5914 15.7737 80.536 15.7407C80.4806 15.7076 80.2339 15.6367 80.1332 15.613C80.0325 15.5894 79.7607 15.4712 79.806 15.4145L79.8261 15.353L79.8463 15.2915C79.8362 15.2112 79.8815 15.1639 79.9419 15.1923C80.0023 15.2206 80.1836 15.2112 80.239 15.1875C80.2943 15.1639 80.4655 15.1072 80.5159 15.0599C80.5662 15.0126 80.5813 14.8283 80.4353 14.8708C80.2893 14.9134 79.8966 14.9985 79.8463 14.9937C79.8463 14.9417 79.8463 14.8897 79.8765 14.8519C79.8865 14.833 79.957 14.8377 79.9973 14.8283L80.2792 14.7668C80.2239 14.6392 80.1987 14.469 80.2239 14.3933L80.2843 14.4217L80.4001 14.4737C80.5008 14.4453 80.5914 14.4548 80.5964 14.5021C80.6014 14.5493 80.7223 14.7763 80.8079 14.9228C80.8934 15.0694 81.115 15.5374 81.1754 15.6272L81.261 15.6556C81.3465 15.6839 81.4724 15.6461 81.5781 15.6272C81.5932 15.6272 81.6083 15.5657 81.6033 15.5374C81.563 15.4097 81.4271 15.4712 81.3264 15.457H81.3063C81.3063 15.457 81.261 15.3388 81.2559 15.2017C81.2509 15.0646 81.4875 14.7148 81.5127 14.6959C81.5378 14.677 81.85 14.6203 82.147 14.6155L82.288 14.3839C82.3484 14.2846 82.4491 14.2988 82.5548 14.365L82.7914 14.5115C82.9525 14.3744 83.018 14.2421 82.9374 14.209C82.8569 14.1759 82.6052 14.157 82.5699 14.2137C82.5347 14.2704 82.4743 14.0719 82.5196 14.0152L82.58 14.0057L82.7612 13.9821C82.8972 13.8875 83.0432 13.8213 83.0784 13.8261L83.1036 13.8402L83.3301 13.9773C83.4258 13.8639 83.5617 13.7599 83.6272 13.7457C83.6926 13.7315 83.9292 13.7031 84.0148 13.5991C84.1004 13.4951 84.3974 13.2682 84.3521 13.1973C84.3068 13.1264 84.191 12.89 84.1759 12.8428C84.1608 12.7955 84.3269 12.7908 84.3169 12.8333L84.337 12.8522L84.4176 12.9137C84.5132 12.9704 84.5988 13.0697 84.6089 13.1359C84.6189 13.202 84.6794 13.3817 84.7096 13.4006C84.7398 13.4195 84.8908 13.3533 84.9965 13.1973C85.1023 13.0413 85.3892 12.6726 85.4245 12.7009C85.4597 12.7293 85.5352 12.8191 85.5151 12.838C85.4949 12.8569 85.4597 12.9326 85.505 12.9609H85.5352C85.5906 12.9515 85.6863 12.9231 85.6913 12.8995L85.7064 12.786C85.7014 12.6678 85.5453 12.526 85.364 12.474C85.1828 12.422 84.8656 12.89 84.8556 12.9042C84.8455 12.9184 84.7347 12.9373 84.6693 12.8664C84.6038 12.7955 84.332 12.7198 84.337 12.6678C84.342 12.6158 84.3169 12.4693 84.3018 12.4457C84.2867 12.422 84.2867 12.3511 84.332 12.3511C84.3773 12.3511 84.6038 12.5118 84.7549 12.578L84.8757 12.4126L85.0167 12.2187C85.3338 12.1053 85.5503 12.0627 85.4899 12.1147C85.4295 12.1667 85.3691 12.3369 85.5151 12.3369H85.6208L85.7517 12.3227C85.8021 12.3984 85.8927 12.474 85.9481 12.4929C86.0034 12.5118 86.2249 12.4929 86.2249 12.3937C86.2249 12.2944 86.2652 12.0296 86.3105 12.0296C86.3558 12.0296 86.4414 12.0627 86.4213 12.1053V12.2046C86.4364 12.2707 86.3911 12.3984 86.3256 12.4882L86.4465 12.5308L86.527 12.5591C86.6579 12.526 86.7284 12.4362 86.6931 12.3606L86.6629 12.2897V12.2802C86.6629 12.2802 86.7032 12.2424 86.7234 12.2282H86.7385L86.8744 12.2566C87.0254 12.2897 87.1513 12.2566 87.1563 12.1951L87.1362 12.1384L87.116 12.0816C87.106 11.9918 87.1462 11.9493 87.2016 11.9871C87.257 12.0249 87.4735 12.0864 87.5238 12.0202C87.5742 11.954 87.5843 11.8169 87.5843 11.746C87.5843 11.6751 87.8561 11.6042 88.0223 11.5995C88.1884 11.5947 88.3294 11.2307 88.3847 11.1929H88.43C88.4754 11.1976 88.5307 11.2496 88.5458 11.2827C88.566 11.33 88.5307 11.3915 88.5559 11.434C88.576 11.4671 88.6767 11.5049 88.7069 11.4955L88.8328 11.4482C88.9536 11.382 89.0946 11.3158 89.15 11.3016C89.2054 11.2874 89.3312 11.2307 89.2809 11.2118C89.2305 11.1929 89.1147 11.122 89.1349 11.0936C89.155 11.0653 89.3665 10.9943 89.5376 10.9518C89.7088 10.9093 90.182 10.7249 90.3129 10.758L90.4287 10.7674L90.6603 10.7816C90.6251 10.654 90.6251 10.4885 90.6603 10.4129C90.6956 10.3372 90.9876 10.4223 91.048 10.3845L91.0832 10.342C91.1738 10.2285 91.2091 10.0158 91.4709 10.2332C91.496 10.2521 91.6622 10.2143 91.6773 10.186C91.7679 9.9685 91.8736 9.83614 92.1807 10.0394L92.2059 10.0583C92.3116 10.0063 92.6036 9.84559 92.8453 9.69904L93.0668 9.56668C93.102 9.54777 93.2329 9.42485 93.2329 9.41067V9.38704C93.2329 9.35867 93.2732 9.27358 93.3286 9.19794C93.384 9.1223 93.6911 9.0703 93.6609 9.15539V9.22158C93.6609 9.26885 93.686 9.32558 93.7213 9.36813C93.8018 9.4674 93.8924 9.38231 93.9076 9.33976L93.9982 9.04666C94.3405 8.97102 94.8742 8.77247 95.1813 8.60702L95.5438 8.59283C95.579 8.59283 95.6142 8.52665 95.6394 8.4841L95.7602 8.29028C95.8811 8.40374 96.017 8.41792 96.0623 8.31865C96.1076 8.21937 96.7269 8.08228 97.0289 7.96882L97.1346 7.86009C97.2001 7.7939 97.2655 7.72299 97.3411 7.66626L97.3612 7.64736C97.4468 7.65681 97.4971 7.70408 97.472 7.75608C97.4468 7.80809 97.4921 7.92627 97.628 7.87427C97.764 7.82227 98.1768 7.65208 98.2825 7.59063C98.3882 7.52917 98.7608 7.3448 98.9168 7.3448C99.0729 7.3448 99.4102 7.16989 99.6166 7.32117L99.3448 7.52917H99.3347C99.4354 7.62845 99.5512 7.5859 99.5965 7.44408C99.6418 7.30226 99.8331 6.98079 99.9288 7.02334C100.024 7.06589 100.201 7.23134 100.211 7.08479L100.472 7.1368C100.528 7.14625 100.608 7.08952 100.669 7.0517C100.684 7.04225 100.669 6.98079 100.639 6.96188C100.523 6.88624 100.437 6.9477 100.362 7.01388L100.352 7.02334C100.291 7.03279 100.271 6.97134 100.311 6.8957C100.352 6.82006 100.483 6.64988 100.523 6.67824C100.563 6.7066 100.709 6.65933 100.764 6.58369C100.82 6.50805 101.233 6.38987 101.323 6.23859H101.661C101.756 6.38041 101.867 6.47969 101.907 6.46078V6.45132C101.771 6.19605 102.124 6.11095 102.204 5.93131V5.91713C102.235 5.90767 102.37 5.86513 102.522 5.82258L102.688 5.88876C102.904 5.97386 102.954 5.82258 103.055 5.70912C103.126 5.62876 103.367 5.7564 103.438 5.52948C103.493 5.34511 103.836 5.32148 104.042 5.36875C104.178 5.39712 104.233 5.42075 104.223 5.52948L104.213 5.60985C104.213 5.73749 104.314 5.78476 104.435 5.71385L104.45 5.66185L104.505 5.49166C104.364 5.34511 104.43 5.14184 104.651 5.03783L104.858 4.93856C104.913 4.91492 104.973 4.85347 105.014 4.85819C105.582 4.94329 105.789 4.46582 106.252 4.38545H106.282C106.307 4.272 106.343 4.21999 106.368 4.272C106.393 4.324 106.62 4.40436 106.806 4.34291C106.992 4.28145 107.309 3.95053 107.334 3.9789L107.35 4.00726L107.365 4.03563C107.385 4.08763 107.47 4.07817 107.556 4.01199L107.626 3.95999C107.692 3.91271 107.747 3.85599 107.823 3.81817L107.838 3.80871C107.908 3.86544 107.984 3.84653 108.009 3.77089L108.07 3.7378L108.115 3.71416C108.21 3.7378 108.331 3.77562 108.382 3.79453C108.432 3.81344 108.734 3.67162 108.93 3.56289C109.127 3.45416 109.67 3.2367 109.832 3.17051L109.978 3.10433C110.033 3.07597 110.103 2.9956 110.119 3.00033L110.27 3.06178C110.436 3.05233 110.627 2.95778 110.692 2.84905L110.889 2.87269C110.949 2.88214 111.12 2.91523 111.201 2.95305L111.246 2.97669C111.322 2.97669 111.377 2.95305 111.367 2.93414C111.357 2.91523 111.317 2.82069 111.292 2.76396H111.488C111.563 2.76396 111.649 2.73087 111.72 2.7025C111.815 2.66468 111.896 2.60795 111.986 2.56541H112.001C112.037 2.56541 112.052 2.61268 112.037 2.66468C112.022 2.71668 111.991 2.85851 112.017 2.87269C112.042 2.88687 112.137 2.87269 112.173 2.80178L112.218 2.74505L112.48 2.42359C112.792 2.47086 113.124 2.48031 113.23 2.44249L113.285 2.47559C113.341 2.50868 113.336 2.61741 113.391 2.64105L113.482 2.67414C113.618 2.67414 113.728 2.61268 113.728 2.54177C113.728 2.47086 113.658 2.26285 113.567 2.2534C113.477 2.24394 113.235 2.2014 113.245 2.15885L113.265 2.1494L113.356 2.10685C113.456 2.07376 113.623 2.07376 113.733 2.10685C113.844 2.13994 114.191 2.09267 114.247 2.08321L114.292 2.09267C114.534 2.13994 114.624 2.24867 114.554 2.4094C114.544 2.43777 114.468 2.45668 114.463 2.48504V2.54177C114.473 2.60795 114.559 2.64577 114.65 2.62214L114.695 2.57959L114.876 2.41886C115.153 2.48504 115.385 2.55123 115.39 2.57013C115.395 2.58904 115.541 2.56541 115.692 2.46613H115.833L116.039 2.45195C116.271 2.50395 116.477 2.61268 116.497 2.69305C116.517 2.77341 116.824 2.78759 116.84 2.82069C116.855 2.85378 116.855 3.06178 116.819 3.20361L117.091 3.1847C117.101 3.27924 117.051 3.4967 116.981 3.67162L117.132 3.86071C117.207 3.95526 117.454 4.13963 117.157 4.29091C117.147 4.29563 117.202 4.376 117.217 4.42327C117.237 4.48 117.247 4.54146 117.262 4.60291L117.288 5.05674L117.368 5.24111C117.454 5.44439 117.529 5.69967 117.529 5.81313C117.529 5.92658 117.841 6.18659 117.872 6.24805C117.902 6.3095 117.902 6.48914 117.831 6.49387L117.776 6.51278C117.66 6.55533 117.539 6.59315 117.449 6.65933C117.403 6.68769 117.705 6.80115 117.398 6.83424L117.308 6.8437C117.217 6.92406 117.106 7.02334 117.056 7.06589C117.006 7.10843 116.865 7.26916 116.845 7.33535L116.804 7.3448L116.653 7.38735C116.477 7.3968 116.256 7.50553 116.16 7.63317L116.039 7.72299L115.903 7.82227C115.717 7.90736 115.435 8.035 115.279 8.11064C115.123 8.18628 114.473 8.52192 114.181 8.68265L113.92 8.8292L113.899 8.83866C113.899 8.83866 113.743 8.85284 113.592 8.83866C113.441 8.82448 113.114 9.13648 113.023 9.19794C112.933 9.2594 112.5 9.48631 112.273 9.56668C112.047 9.64704 111.523 10.0063 111.478 10.0205C111.433 10.0347 111.261 10.0583 111.186 10.0772C111.11 10.0961 110.899 10.2758 110.823 10.3231C110.748 10.3703 110.536 10.4034 110.541 10.6067H110.134C110.048 10.6351 109.993 10.6351 110.008 10.6067C110.023 10.5783 110.023 10.498 109.983 10.4791C109.942 10.4602 109.811 10.4838 109.716 10.5122C109.62 10.5405 109.655 10.8998 109.499 11.1314L109.192 11.1693L108.951 11.1976C108.774 11.3064 108.528 11.4198 108.407 11.4482C108.286 11.4765 108.08 11.6231 107.939 11.7176L107.828 11.7886L107.667 11.8878C107.48 11.9966 107.284 12.0769 107.234 12.0627L107.183 12.0533L107.123 12.0438C107.058 12.0344 106.902 12.0958 106.781 12.1809C106.66 12.266 106.302 12.5922 106.161 12.6537C106.02 12.7151 105.633 12.8711 105.628 12.8853C105.623 12.8995 105.718 12.9279 105.859 12.9137C106 12.8995 106.443 12.8144 106.544 12.7671L106.635 12.7246L107.022 12.5402C107.143 12.5686 107.264 12.6111 107.39 12.6111C107.44 12.6111 107.47 12.4929 107.536 12.4598C107.637 12.4031 107.757 12.3464 107.873 12.3417H108.105C108.341 12.2707 108.538 12.1006 108.548 11.954L108.734 12.0296L109.046 12.162C109.102 11.9729 109.212 11.8169 109.293 11.8169C109.373 11.8169 109.67 11.8075 109.766 11.798V11.7838L109.791 11.5664C110.018 11.5616 110.28 11.5427 110.37 11.5285C110.461 11.5144 110.748 11.4009 110.833 11.3867C110.919 11.3725 111.276 11.3725 111.412 11.3489C111.548 11.3253 111.845 11.0747 111.921 10.966L112.107 11.0747H112.117C112.238 10.9754 112.349 10.9093 112.364 10.9423C112.379 10.9754 112.5 10.9849 112.59 10.8573L112.706 10.8005C112.807 10.7533 112.963 10.7769 113.099 10.7722H113.29C113.421 10.6634 113.587 10.5783 113.653 10.5783L113.713 10.5878C113.764 10.5972 113.809 10.6351 113.859 10.6351C113.985 10.6351 113.97 10.3751 114.207 10.5311L114.252 10.5642C114.408 10.5074 114.645 10.4034 114.786 10.3372L114.896 10.2616C115.042 10.1576 115.133 10.4507 115.274 10.2852L115.364 10.1812C115.5 10.2143 115.777 10.2805 115.984 10.3372L116.049 10.1151L116.059 10.0867C116.105 10.0678 116.286 10.0158 116.457 9.97323C116.628 9.93069 117.101 9.85505 117.132 9.89759C117.162 9.94014 117.262 10.0347 117.273 9.97323C117.283 9.91178 117.479 9.79832 117.675 9.84087L117.796 9.80305C117.932 9.82668 118.053 9.85505 118.073 9.8645C118.093 9.87396 118.204 9.94487 118.315 9.98269C118.425 10.0205 118.556 10.3514 118.576 10.4176C118.597 10.4838 119.15 10.4838 119.352 10.498C119.553 10.5122 120.218 10.6351 120.384 10.7107C120.55 10.7863 120.832 11.2685 120.907 11.382L120.646 11.4056C120.615 11.4056 120.57 11.5238 120.59 11.5664L120.62 11.6325C120.585 11.6798 120.51 11.7555 120.459 11.798C120.409 11.8406 120.565 11.954 120.62 12.0107C120.676 12.0675 120.57 12.2897 120.479 12.3937L120.736 12.4504L120.938 12.4929C120.872 12.6395 120.777 12.8522 120.731 12.9609C120.686 13.0697 120.691 13.4668 120.515 13.5944L120.917 13.6039H120.938C120.953 13.6511 120.973 13.7788 120.983 13.897C120.993 14.0152 121.043 14.3508 121.058 14.3981L121.038 14.4217L120.872 14.5919C121.023 14.7148 121.225 14.8897 121.32 14.9748C121.416 15.0599 120.892 15.4381 120.691 15.5279L120.505 15.5988C120.288 15.6839 120.162 15.9203 120.031 16.1094C119.946 16.2323 120.107 16.3458 120.263 16.2512C120.449 16.1425 120.505 16.3978 120.651 16.289C120.771 16.1992 120.857 16.0668 121.089 16.081L121.235 16.0905C121.401 16.0574 121.637 16.0621 121.763 16.0952L121.859 16.0763C121.955 16.0574 122.01 15.9439 122.106 15.9061L122.196 15.873C122.322 15.873 122.544 15.9203 122.68 15.9676C122.815 16.0148 123.238 15.8825 123.289 15.8919C123.339 15.9014 123.586 15.977 123.772 16.0243C123.958 16.0716 124.532 15.9297 124.643 15.9865C124.754 16.0432 125.136 16.1756 125.192 16.133C125.247 16.0905 125.428 16.0432 125.494 16.0905C125.559 16.1378 125.705 16.2607 125.695 16.2701C125.685 16.2796 125.413 16.2843 125.136 16.2796L124.89 16.2985L124.759 16.3079C124.633 16.4119 124.759 16.5207 125.036 16.5443L125.252 16.4876C125.469 16.4309 125.62 16.6956 125.836 16.5065L125.917 16.4356C126.103 16.4687 126.289 16.5159 126.33 16.5349C126.37 16.5538 126.445 16.6389 126.486 16.6672C126.526 16.6956 126.732 16.6578 126.818 16.6247C126.903 16.5916 127.17 16.5632 127.216 16.5869C127.261 16.6105 127.316 16.7145 127.301 16.7476C127.286 16.7807 127.135 16.8469 127.009 16.828C126.883 16.809 126.747 17.1021 126.652 17.1305C126.556 17.1589 126.486 17.4 126.526 17.4141C126.566 17.4283 126.652 17.5371 126.617 17.608C126.581 17.6789 126.903 17.7309 127.009 17.7829L127.115 17.7971C127.16 17.8018 127.211 17.7876 127.261 17.7782L127.347 17.764C127.437 17.7498 127.553 17.7403 127.598 17.7403C127.644 17.7403 127.769 17.7971 127.749 17.868C127.729 17.9389 127.759 18.1374 127.694 18.1516C127.628 18.1658 127.372 18.1374 127.226 18.1185C127.08 18.0996 127.085 18.4022 127.14 18.3218C127.195 18.2414 127.493 18.3785 127.432 18.4494C127.372 18.5204 127.236 18.7473 127.286 18.7615C127.336 18.7756 127.618 18.8986 127.855 19.0451L128.132 19.0971H128.142C128.132 19.1538 128.056 19.2909 127.976 19.4044C127.895 19.5178 128.036 19.8488 127.991 19.8724C127.946 19.896 127.91 20.0284 128.021 20.0899L128.137 20.1324C128.182 20.1466 128.268 20.1229 128.313 20.0946C128.384 20.0568 128.469 20.0615 128.52 20.1182L128.54 20.1466C128.575 20.1749 128.459 20.2648 128.273 20.3404C128.087 20.416 127.543 20.2459 127.508 20.2506C127.472 20.2553 127.231 20.3782 127.029 20.4964C126.828 20.6146 126.068 20.7659 126.033 20.7659C125.997 20.7659 125.791 20.8651 125.64 20.9597L125.484 21.007L125.328 21.0542C125.136 21.0684 124.799 21.0921 124.578 21.1062L124.502 21.1866L124.321 21.3899C124.084 21.3237 123.802 21.2906 123.697 21.319C123.591 21.3473 123.228 21.3473 123.128 21.3615C123.027 21.3757 122.584 21.4703 122.312 21.5317C122.04 21.5932 120.988 21.7681 120.585 21.8295C120.182 21.891 119.05 22.0328 118.984 22.0517L118.924 22.0706L118.234 22.2219L117.66 22.2077C117.096 22.3874 116.497 22.5765 116.331 22.6285C116.165 22.6805 115.38 22.7939 114.962 22.8696L114.579 22.879L114.212 22.8885C113.849 22.983 113.537 23.0681 113.522 23.087C113.507 23.1059 113.371 23.1343 113.275 23.1532C113.18 23.1721 112.822 23.1343 112.736 23.1768C112.651 23.2194 112.037 23.295 111.563 23.3423L111.146 23.4227C111.005 23.451 110.758 23.3328 110.698 23.3801L110.511 23.5314C110.365 23.4416 110.204 23.4085 110.154 23.4558C110.103 23.503 109.857 23.4463 109.761 23.4888C109.665 23.5314 109.293 23.3423 109.097 23.3187L108.976 23.2525C108.789 23.1532 108.603 23.1674 108.412 23.1579H108.377C108.336 23.1296 108.155 23.0492 107.969 22.9783C107.783 22.9074 107.078 22.6946 106.836 22.6237L106.67 22.4819L106.509 22.3448C106.63 22.2172 106.735 22.099 106.745 22.0754C106.756 22.0517 106.695 21.9194 106.64 21.8012L106.745 21.6877L106.786 21.6452C106.776 21.5743 106.72 21.4372 106.655 21.3426C106.589 21.2481 106.554 20.8935 106.579 20.8037C106.604 20.7139 106.297 20.5862 106.287 20.5437C106.277 20.5011 106.227 20.1419 106.187 19.844L106.111 19.5793L106.096 19.5226C105.925 19.4989 105.688 19.5131 105.572 19.5509C105.457 19.5887 104.983 19.7495 104.787 19.8251C104.591 19.9008 103.936 20.156 103.81 20.3215L103.483 20.26L103.297 20.2222C103.045 20.331 102.693 20.4822 102.516 20.5531C102.34 20.6241 101.731 20.7895 101.58 20.8604C101.429 20.9313 100.855 21.1062 100.664 21.1535C100.472 21.2008 100.004 21.5175 99.9338 21.5743C99.8633 21.631 99.6217 21.4892 99.5915 21.4892C99.5613 21.4892 99.3297 21.5317 99.088 21.5743C98.8464 21.6168 98.2724 22.0801 98.061 22.1699C97.8495 22.2597 97.2655 22.3779 97.2756 22.4583C97.2857 22.5386 96.9433 22.4961 96.8829 22.515C96.8225 22.5339 96.6966 22.6521 96.6564 22.6426C96.6161 22.6332 96.304 22.7088 96.0472 22.7892L95.8207 22.8696L95.6847 22.9168C95.5589 22.9925 95.3877 23.0445 95.3071 23.035C95.2266 23.0256 94.99 23.1627 94.9245 23.2005C94.8591 23.2383 94.5167 23.3707 94.3204 23.4321L94.1391 23.4699C93.8471 23.5267 93.535 23.5408 93.4444 23.8292C93.3286 23.8245 93.0819 23.8245 92.9007 23.8339C92.7194 23.8434 92.4425 24.1743 92.4123 24.179C92.3821 24.1838 92.216 24.2121 92.1203 24.2216C92.0247 24.2311 91.5967 24.4012 91.3349 24.5147C91.0731 24.6282 90.2022 24.8834 90.0612 24.9449C89.9202 25.0063 89.4873 25.1954 89.4218 25.2474C89.3564 25.2994 88.9889 25.3325 88.9033 25.3845C88.8177 25.4365 88.4804 25.5594 88.3797 25.5784C88.279 25.5973 87.9518 25.6918 87.8712 25.7296C87.7907 25.7675 87.2117 25.9802 86.7636 26.122L86.3911 26.3111L86.3206 26.3442C86.23 26.3631 86.0034 26.3773 85.8121 26.3773L85.7819 26.5617V26.5806C85.6863 26.5947 85.4446 26.6515 85.2382 26.7082C85.0318 26.7649 84.4226 27.0202 84.2112 27.0628C83.9997 27.1053 83.3301 27.493 83.013 27.5875L82.7411 27.7246L82.3937 27.8995C81.9557 28.0271 81.4221 28.1973 81.2005 28.2777C80.979 28.3581 80.3447 28.6323 80.244 28.6748C80.1433 28.7173 79.6701 28.8639 79.4435 28.9254C79.217 28.9868 78.5373 29.2988 78.3762 29.3272C78.2151 29.3555 77.6361 29.5635 77.3542 29.6156L77.1226 29.7054L77.0874 29.7196C77.037 29.7148 76.6595 29.7857 76.2567 29.8756L75.9446 30.0363C75.7482 30.1356 75.5418 30.1687 75.3908 30.0977C75.1793 29.9985 75.0383 29.9796 74.8621 30.1119L74.837 30.1308C74.7564 30.1072 74.4342 29.9985 74.1271 29.885C73.82 29.7716 72.9138 29.6534 72.9944 29.5872L73.0095 29.5399L73.0195 29.4974C72.9843 29.4454 72.8836 29.417 72.798 29.4312L72.7426 29.469L72.7024 29.4974C72.6772 29.6014 72.647 29.5446 72.6319 29.3697C72.6168 29.1948 72.7678 28.793 72.647 28.7646L72.6117 28.7079C72.5664 28.637 72.5765 28.533 72.6067 28.4526L72.6772 28.2588C72.4808 28.2162 72.36 28.169 72.4053 28.1548C72.4506 28.1406 72.5664 28.0791 72.5513 28.0461L72.5261 28.0366C72.3399 27.961 72.1083 27.9184 71.9824 27.805C71.8968 27.7293 71.9522 27.5591 71.9623 27.4315C71.9623 27.3889 72.0579 27.3322 72.0428 27.3086L71.9573 27.1668C71.922 26.9966 71.7961 26.7366 71.6753 26.59L71.5394 26.4624L71.489 26.4151C71.3984 26.382 71.3733 26.3206 71.4337 26.2733C71.4941 26.226 71.4941 25.9376 71.333 25.7013L71.3531 25.4365L71.3632 25.2947C71.4689 25.2049 71.6652 24.9638 71.8062 24.7605L71.7659 24.6707C71.7508 24.6376 71.6703 24.5998 71.6199 24.6045C71.4639 24.614 71.5495 24.6565 71.5746 24.7227C71.5948 24.7652 71.479 24.8976 71.4437 24.8929L71.2021 24.8692C71.1819 25.0063 71.1215 25.0867 71.0712 25.0489C71.0208 25.0111 70.8597 25.0205 70.8396 25.1576C70.8195 25.2947 70.2556 25.3609 70.2002 25.5547L69.9636 25.6162C69.6464 25.6965 69.3746 25.8242 69.1631 26.0227L69.0574 26.1173C68.8963 26.1456 68.6244 26.2355 68.4583 26.3111C68.2922 26.3867 67.7484 26.5286 67.7182 26.59L67.6729 26.6373L67.5773 26.7318C67.4162 26.7602 67.2148 26.7177 67.1292 26.6373C67.0436 26.5569 66.7415 26.382 66.7365 26.4198C66.7315 26.4577 66.7869 26.5806 66.8322 26.6373L66.8674 26.694C66.8674 26.694 66.7768 26.7508 66.7667 26.7413C66.7013 26.7035 66.6358 26.6231 66.6056 26.7555C66.5955 26.7933 66.6409 26.8689 66.6761 26.8784L66.7818 26.8926C66.9077 26.8878 66.8926 26.902 66.7516 26.9257C66.6106 26.9493 66.374 27.1715 66.3388 27.1479L66.3035 27.1337L66.0619 27.0249C66.0569 27.1668 66.0468 27.2944 66.0417 27.3133C66.0367 27.3322 65.9914 27.3984 65.9612 27.4031C65.931 27.4079 65.6138 27.4315 65.3319 27.4599L65.1406 27.63C64.9694 27.7813 64.7781 27.9657 64.4861 27.734C64.4609 27.7151 64.32 27.7435 64.3149 27.753C64.3099 27.8097 64.325 27.8711 64.3451 27.9279V27.9515C64.3904 27.9988 64.2948 27.9846 64.1488 27.9279C64.0028 27.8711 63.6353 27.9941 63.6856 28.013C63.736 28.0319 63.7108 28.1737 63.5195 28.2919L63.2627 28.0413C63.2224 27.9988 63.1721 27.961 63.1167 27.9326L63.0865 27.9184C63.006 27.9231 62.9355 28.0319 62.9304 28.1548L62.9053 28.2635C62.9002 28.2966 62.8197 28.3392 62.7744 28.3392L62.6485 28.3486C62.6838 28.2872 62.7291 28.1548 62.7442 28.0555L62.6485 27.9846C62.6233 27.9657 62.568 27.9421 62.5579 27.9468L62.4622 27.9941C62.3918 28.0791 62.3414 28.169 62.3565 28.1973C62.3716 28.2257 62.3616 28.3486 62.3414 28.3959C62.3213 28.4432 62.1652 28.4337 62.1451 28.4195C62.1249 28.4053 61.8933 28.3628 61.8178 28.3581L61.8078 28.3959ZM78.0188 17.0596C78.0137 16.9414 78.0087 16.861 78.0188 16.88C78.0288 16.8989 78.2453 16.9603 78.5121 16.9745L78.6732 16.8941L78.8343 16.8138C78.93 16.6247 78.8595 16.5443 78.6833 16.6341L78.5323 16.705L78.3812 16.776C78.4165 16.9461 78.3158 17.0643 78.1547 17.0407L78.0439 16.984L77.9432 16.932C77.8526 16.8043 77.7771 16.7854 77.7771 16.8847C77.7771 16.984 78.0339 17.1731 78.0288 17.0549L78.0188 17.0596ZM60.1313 27.8995C60.1967 27.9421 60.2924 27.8995 60.3478 27.8144L60.4082 27.7482C60.4686 27.6868 60.8009 27.7199 60.8613 27.7861C60.9116 27.8381 60.962 27.8995 61.0325 27.9373C61.0778 27.961 61.1684 27.9751 61.2087 27.9515C61.2489 27.9279 61.2842 27.8428 61.264 27.8239C61.0929 27.6773 61.0274 27.578 61.3647 27.5213L61.4503 27.5071C61.5208 27.3889 61.4553 27.266 61.3093 27.2377C61.1633 27.2093 60.7354 27.2188 60.7455 27.3369L60.7203 27.4315L60.7102 27.4788C60.6347 27.5166 60.5089 27.5071 60.4283 27.4551L60.4988 27.37L60.524 27.3417C60.5642 27.318 60.5441 27.2708 60.4787 27.2471H60.4233C60.3729 27.2519 60.1061 27.8239 60.1262 27.8711L60.1413 27.8995H60.1313ZM63.5849 22.6521C63.3886 22.7419 63.3433 22.8223 63.4792 22.8365C63.6151 22.8507 63.8417 23.1296 63.892 23.1958C63.9424 23.2619 64.2092 23.3092 64.2142 23.3234C64.2193 23.3376 64.1991 23.3943 64.1538 23.4274C64.1085 23.4605 64.0984 23.5172 64.1135 23.5598C64.1286 23.6023 64.3099 23.5787 64.4609 23.3801L64.5213 23.2147L64.617 22.9641C64.3451 22.8365 63.9927 22.7277 63.8266 22.7277L63.6655 22.6805L63.5749 22.6521H63.5849ZM103.659 5.81785C103.549 5.79422 103.438 5.78003 103.418 5.79422C103.398 5.8084 103.272 5.90295 103.201 5.98331C103.131 6.06368 103.483 6.26223 103.684 6.18186L103.866 6.1015L103.941 6.06841C104.062 5.99277 103.77 5.84149 103.659 5.81785ZM112.56 3.06651C112.611 3.13269 112.731 3.1516 112.827 3.11378C112.923 3.07597 113.139 2.94833 113.149 2.92469C113.159 2.90105 113.129 2.8396 113.079 2.84432H113.034L112.958 2.85378C112.872 2.85851 112.842 2.82069 112.893 2.76396L112.908 2.71196L112.918 2.66941C112.888 2.61741 112.792 2.61268 112.696 2.65996C112.601 2.70723 112.515 3.00505 112.565 3.07124L112.56 3.06651ZM106.217 4.69273C106.141 4.62655 106.031 4.64073 105.97 4.7211C105.91 4.80146 105.502 4.99529 105.482 5.02365C105.462 5.05202 105.472 5.15129 105.552 5.18911L105.582 5.17493L105.713 5.10402C105.874 5.08984 106.081 5.05674 106.172 5.03783C106.262 5.01892 106.297 4.76364 106.222 4.69746L106.217 4.69273ZM95.1259 9.3634C95.1762 9.38704 95.2064 9.28303 95.1964 9.13176L95.4783 9.30194L95.6394 9.40122C95.725 9.3114 95.8005 9.19321 95.8106 9.14121C95.8206 9.08921 95.7854 8.94739 95.73 8.94739C95.6746 8.94739 95.4129 9.02303 95.282 9.1223L95.1057 9.15539C95.1057 9.15539 95.0806 9.26885 95.1057 9.32085L95.1259 9.3634ZM82.001 15.145C82.0816 15.2632 82.2125 15.2726 82.288 15.1686C82.3635 15.0646 82.6958 14.8424 82.7461 14.8094C82.7965 14.7763 82.6454 14.6581 82.5095 14.6203L82.4642 14.6534C82.2981 14.7763 82.142 14.9181 82.0463 15.0788L82.0061 15.145H82.001ZM66.8875 22.1935C66.9832 22.2455 67.0537 22.1699 67.0486 22.0281C67.0436 21.8863 66.8322 21.6924 66.7717 21.7066C66.7113 21.7208 66.5653 21.787 66.6409 21.8106C66.7164 21.8343 66.8171 21.8863 66.7466 21.9052C66.6761 21.9241 66.6459 22.0517 66.7113 22.1226L66.812 22.1652L66.8825 22.1935H66.8875ZM110.174 3.25088C110.139 3.22251 110.078 3.26979 110.033 3.35961L109.962 3.41161L109.862 3.49198C109.726 3.56289 109.595 3.64325 109.575 3.67162C109.555 3.69998 109.57 3.79453 109.655 3.82762H109.731L109.806 3.81817C109.882 3.77562 110.003 3.68107 110.073 3.61489C110.144 3.5487 110.209 3.27924 110.174 3.25561V3.25088ZM97.91 8.139C97.9452 8.16737 97.9855 8.11064 98.0056 8.01136C98.0257 7.91209 98.4889 8.03027 98.6551 8.01136L98.8061 7.983H98.8162C98.8061 7.92627 98.7155 7.85063 98.6148 7.81754C98.5141 7.78445 98.1868 7.827 98.0962 7.86954C98.0056 7.91209 97.8797 8.10591 97.915 8.13428L97.91 8.139ZM59.6681 25.1245C59.6228 24.8787 59.5221 24.7747 59.4416 24.8976C59.361 25.0205 59.3308 25.3042 59.5523 25.2616L59.6379 25.1623L59.6681 25.1245ZM108.8 4.12545C108.946 4.12545 109.066 4.06872 109.076 4.00253L109.112 3.96944C109.207 3.88908 109.308 3.80871 109.142 3.73307L109.097 3.71416C108.981 3.78035 108.764 3.93162 108.618 4.04981H108.402L108.362 4.04035C108.266 4.08763 108.654 4.13017 108.794 4.13017L108.8 4.12545ZM90.4841 11.1125C90.3582 11.3347 90.4237 11.4529 90.6402 11.3773L90.7006 11.0605C90.7006 11.0605 90.7358 11.0369 90.7459 11.0227L90.761 10.9896C90.7711 10.9471 90.7056 10.914 90.62 10.9093L90.6049 10.9329L90.4841 11.1125ZM62.1753 27.0628C62.1149 27.0675 62.13 27.1195 62.2105 27.1715C62.2911 27.2235 62.568 27.0864 62.6737 27.0533L62.7693 27.0391C62.8549 27.0249 62.9405 27.0202 63.016 27.0013C63.0362 26.9966 63.0462 26.9398 63.0362 26.9115L63.0261 26.8831C62.9909 26.8595 62.8348 26.8075 62.6838 26.7697C62.5327 26.7318 62.2357 27.058 62.1753 27.0628ZM63.3634 26.1598C63.3332 26.4592 63.5245 26.6846 63.9373 26.8358L63.3634 26.1598Z" fill="#EE6529" fill-opacity="0.39"/>
</svg>
