<svg width="14" height="14" viewBox="0 0 14 14" fill="none" xmlns="http://www.w3.org/2000/svg">
<g clip-path="url(#clip0_486_1543)">
<path d="M12.8329 5.83325H1.16703C0.522701 5.83325 0.000366211 6.35559 0.000366211 6.99992C0.000366211 7.64425 0.5227 8.16659 1.16703 8.16659H12.8329C13.4773 8.16659 13.9996 7.64425 13.9996 6.99992C13.9996 6.35559 13.4773 5.83325 12.8329 5.83325Z" fill="#284A0C"/>
<path d="M12.8329 1.75H1.16703C0.522701 1.75 0.000366211 2.27233 0.000366211 2.91667C0.000366211 3.561 0.5227 4.08333 1.16703 4.08333H12.8329C13.4773 4.08333 13.9996 3.561 13.9996 2.91667C13.9996 2.27233 13.4773 1.75 12.8329 1.75Z" fill="#284A0C"/>
<path d="M12.8329 9.91675H1.16703C0.522701 9.91675 0.000366211 10.4391 0.000366211 11.0834C0.000366211 11.7277 0.5227 12.2501 1.16703 12.2501H12.8329C13.4773 12.2501 13.9996 11.7277 13.9996 11.0834C13.9996 10.4391 13.4773 9.91675 12.8329 9.91675Z" fill="#284A0C"/>
</g>
<defs>
<clipPath id="clip0_486_1543">
<rect width="13.9992" height="14" fill="white" transform="translate(0.000366211)"/>
</clipPath>
</defs>
</svg>
