<svg width="14" height="14" viewBox="0 0 14 14" fill="none" xmlns="http://www.w3.org/2000/svg">
<g clip-path="url(#clip0_486_1512)">
<path d="M13.8156 5.65133L11.8197 3.96908V1.58103C11.8197 1.52238 11.8083 1.46429 11.7859 1.41008C11.7635 1.35588 11.7306 1.30662 11.6892 1.26512C11.6477 1.22362 11.5985 1.1907 11.5444 1.16824C11.4902 1.14578 11.4321 1.13421 11.3735 1.13421H9.95903C9.90033 1.13414 9.8422 1.14564 9.78796 1.16807C9.73372 1.1905 9.68443 1.22341 9.64293 1.26491C9.60143 1.30642 9.56852 1.3557 9.54609 1.40995C9.52367 1.46419 9.51216 1.52233 9.51224 1.58103V2.02376L7.38913 0.234173C7.28307 0.134257 7.14287 0.0786133 6.99717 0.0786133C6.85146 0.0786133 6.71126 0.134257 6.60521 0.234173L0.184532 5.65133C0.0995805 5.73042 0.0404054 5.83326 0.0147097 5.94645C-0.010986 6.05964 -0.00201213 6.17795 0.0404632 6.28597C0.083225 6.39332 0.15724 6.48536 0.252917 6.55015C0.348594 6.61495 0.461524 6.64951 0.577075 6.64937H1.50565V13.3469C1.50565 13.6636 1.7652 13.9238 2.08309 13.9238H11.9171C12.0701 13.9235 12.2168 13.8625 12.3251 13.7543C12.4333 13.6461 12.4942 13.4994 12.4945 13.3463V6.64995H13.4231C13.5394 6.65012 13.6531 6.61489 13.7489 6.54894C13.8448 6.48299 13.9183 6.38944 13.9597 6.28072C14.0018 6.17359 14.0105 6.05625 13.9848 5.94405C13.9591 5.83186 13.9002 5.72946 13.8156 5.65133ZM7.43579 11.8262C7.37759 11.9054 7.30157 11.9698 7.21387 12.0142C7.12617 12.0586 7.02926 12.0817 6.93096 12.0817C6.83267 12.0817 6.73576 12.0586 6.64806 12.0142C6.56036 11.9698 6.48434 11.9054 6.42614 11.8262C5.62997 10.7302 4.16479 8.57253 4.16479 7.46541C4.16603 6.7319 4.4583 6.02887 4.97744 5.51069C5.49657 4.99251 6.20012 4.70156 6.93359 4.70171C7.66706 4.70156 8.37061 4.99251 8.88974 5.51069C9.40888 6.02887 9.70115 6.7319 9.70239 7.46541C9.70239 8.57253 8.23721 10.7302 7.43579 11.8262Z" fill="#B34B1E"/>
<path d="M7.00003 9.02344C7.96647 9.02344 8.74993 8.23994 8.74993 7.27344C8.74993 6.30694 7.96647 5.52344 7.00003 5.52344C6.03358 5.52344 5.25012 6.30694 5.25012 7.27344C5.25012 8.23994 6.03358 9.02344 7.00003 9.02344Z" fill="#B34B1E"/>
</g>
<defs>
<clipPath id="clip0_486_1512">
<rect width="13.9992" height="14" fill="white" transform="translate(0.000366211)"/>
</clipPath>
</defs>
</svg>
