<svg width="15" height="14" viewBox="0 0 15 14" fill="none" xmlns="http://www.w3.org/2000/svg">
<g clip-path="url(#clip0_486_1537)">
<path d="M8.41993 8.57827C8.07164 8.81047 7.66709 8.93322 7.24998 8.93322C6.8329 8.93322 6.42835 8.81047 6.08006 8.57827L0.343576 4.75362C0.311908 4.73244 0.280827 4.7104 0.250366 4.68753L0.250366 10.9546C0.250366 11.6732 0.833439 12.2434 1.53909 12.2434H12.9608C13.6793 12.2434 14.2496 11.6603 14.2496 10.9546V4.6875C14.2191 4.71044 14.1879 4.73252 14.1562 4.75373L8.41993 8.57827Z" fill="#284A0C"/>
<path d="M0.798579 4.07088L6.53506 7.89556C6.75222 8.04034 7.00108 8.11272 7.24995 8.11272C7.49885 8.11272 7.74775 8.04031 7.9649 7.89556L13.7014 4.07088C14.0447 3.84214 14.2496 3.45933 14.2496 3.04617C14.2496 2.33575 13.6717 1.75781 12.9613 1.75781H1.53865C0.8283 1.75784 0.250367 2.33578 0.250367 3.04685C0.250154 3.24953 0.300103 3.4491 0.395758 3.62778C0.491413 3.80646 0.629801 3.95868 0.798579 4.07088Z" fill="#284A0C"/>
</g>
<defs>
<clipPath id="clip0_486_1537">
<rect width="13.9992" height="14" fill="white" transform="translate(0.250366)"/>
</clipPath>
</defs>
</svg>
