<svg width="15" height="14" viewBox="0 0 15 14" fill="none" xmlns="http://www.w3.org/2000/svg">
<g clip-path="url(#clip0_486_1518)">
<path d="M12.2888 7C10.9353 7 9.828 8.10739 9.828 9.46094C9.828 10.8145 10.9353 11.9219 12.2888 11.9219C13.6423 11.9219 14.7496 10.8145 14.7496 9.46094C14.7496 8.10739 13.6423 7 12.2888 7ZM12.2888 11.1016C11.3865 11.1016 10.6483 10.3633 10.6483 9.46094C10.6483 8.55862 11.3865 7.82031 12.2888 7.82031C13.1911 7.82031 13.9293 8.55862 13.9293 9.46094C13.9293 10.3633 13.1911 11.1016 12.2888 11.1016Z" fill="#284A0C"/>
<path d="M3.21117 7C1.8577 7 0.750366 8.10739 0.750366 9.46094C0.750366 10.8145 1.8577 11.9219 3.21117 11.9219C4.56464 11.9219 5.67197 10.8145 5.67197 9.46094C5.67197 8.10739 4.56464 7 3.21117 7ZM3.21117 11.1016C2.3089 11.1016 1.57063 10.3633 1.57063 9.46094C1.57063 8.55862 2.3089 7.82031 3.21117 7.82031C4.11343 7.82031 4.8517 8.55862 4.8517 9.46094C4.8517 10.3633 4.11343 11.1016 3.21117 11.1016Z" fill="#284A0C"/>
<path d="M4.03149 4.53906H8.18751V7H4.03149V4.53906ZM10.2382 2.89844H9.41792C9.19122 2.89844 9.00778 2.71499 9.00778 2.48828C9.00778 2.26157 9.19122 2.07812 9.41792 2.07812H10.2382C10.4649 2.07812 10.6483 2.26157 10.6483 2.48828C10.6483 2.71499 10.4649 2.89844 10.2382 2.89844Z" fill="#284A0C"/>
<path d="M12.5185 9.80389C12.4446 9.8449 12.3708 9.86954 12.2888 9.86954C12.1575 9.86954 12.0263 9.80389 11.9443 9.6891L10.0248 6.818C9.89361 6.6293 9.95103 6.37501 10.1315 6.24378C10.3201 6.12071 10.5744 6.16993 10.7056 6.3586L12.2888 8.71295L12.6332 9.22969C12.7563 9.41837 12.7071 9.67266 12.5185 9.80389ZM7.77729 8.63907V10.2797H3.21114C2.75999 10.2797 2.39087 9.91055 2.39087 9.45938C2.39087 9.00821 2.75999 8.63907 3.21114 8.63907H7.77729Z" fill="#284A0C"/>
<path d="M10.2381 2.07812C10.0084 2.07812 9.82799 2.25857 9.82799 2.48828V3.71875H8.59759C8.45817 3.71875 8.3351 3.7844 8.2531 3.89919L6.70821 6.17969H5.48331L4.17908 4.22734C3.96581 3.90742 3.6131 3.71875 3.2276 3.71875H1.1605C0.930798 3.71875 0.750366 3.89919 0.750366 4.12891C0.750366 5.17893 1.546 6.05661 2.57133 6.16325L3.88379 8.13203C4.09706 8.45195 4.44977 8.64062 4.83527 8.64062H5.82782L6.10945 9.15742L6.35553 9.64958C6.55236 10.0352 6.94615 10.2812 7.38906 10.2812H7.99059C8.54014 10.2812 9.00772 9.89573 9.11436 9.3543L9.18001 9.06721C9.50809 7.39372 10.9927 6.17969 12.6989 6.17969C12.9286 6.17969 13.1091 5.99925 13.1091 5.76953V4.94922C13.1091 3.36602 11.8212 2.07812 10.2381 2.07812Z" fill="#284A0C"/>
</g>
<defs>
<clipPath id="clip0_486_1518">
<rect width="13.9992" height="14" fill="white" transform="translate(0.750366)"/>
</clipPath>
</defs>
</svg>
