<svg width="16" height="16" viewBox="0 0 16 16" fill="none" xmlns="http://www.w3.org/2000/svg">
<path d="M9.33716 9.80206C8.93909 10.0674 8.47672 10.2077 8 10.2077C7.52331 10.2077 7.06094 10.0674 6.66288 9.80206L0.106531 5.43103C0.0703376 5.40683 0.0348139 5.38165 0 5.3555L0 12.5179C0 13.3391 0.666406 13.9908 1.47291 13.9908H14.5271C15.3482 13.9908 16 13.3244 16 12.5179V5.35547C15.9651 5.38168 15.9295 5.40692 15.8932 5.43116L9.33716 9.80206Z" fill="#B34B1E"/>
<path d="M0.626563 4.65131L7.18291 9.02238C7.43109 9.18784 7.71553 9.27056 7.99997 9.27056C8.28444 9.27056 8.56891 9.18781 8.81709 9.02238L15.3734 4.65131C15.7658 4.38991 16 3.95241 16 3.48022C16 2.66831 15.3395 2.00781 14.5276 2.00781H1.47241C0.660532 2.00784 7.75033e-07 2.66834 7.75033e-07 3.481C-0.000242619 3.71263 0.0568447 3.94071 0.166171 4.14492C0.275497 4.34912 0.433664 4.52309 0.626563 4.65131Z" fill="#F6B900"/>
</svg>
