<svg width="29" height="28" viewBox="0 0 29 28" fill="none" xmlns="http://www.w3.org/2000/svg">
<g clip-path="url(#clip0_1_994)">
<path d="M20.5771 19.9327L20.1322 19.2104L19.4834 17.7716L17.9521 16.8164H11.0615L9.53027 17.7716L7.99902 17.6331L6.7318 17.971C5.41717 18.3216 4.49902 19.5167 4.49902 20.8773V25.5951L10.6081 28.0014H14.5068L21.6764 24.64L22.0002 22.3139C22.0002 20.9533 21.8918 20.2833 20.5771 19.9327Z" fill="#B34B1E"/>
<path d="M22.2818 17.971L21.0146 17.6331L19.4834 17.7716L17.9521 16.8164H14.5068V28.0013H18.4056L24.5146 25.5951V20.8772C24.5146 19.5167 23.5965 18.3216 22.2818 17.971Z" fill="#B34B1E"/>
<path d="M17.9521 23.1328H11.0615C10.6085 23.1328 10.2412 22.7655 10.2412 22.3125C10.2412 21.8595 10.6085 21.4922 11.0615 21.4922H17.9521C18.4052 21.4922 18.7725 21.8595 18.7725 22.3125C18.7725 22.7655 18.4052 23.1328 17.9521 23.1328Z" fill="#B34B1E"/>
<path d="M7.99902 17.6331V28.0013H10.6081C10.6266 27.9087 11.0615 24.9992 11.0615 23.1888V17.7201L11.6084 17.3326L11.0615 16.8164L7.99902 17.6331Z" fill="#B34B1E"/>
<path d="M17.9521 16.8164L17.4053 17.3047L17.9521 17.7201V23.1888C17.9521 24.9992 18.3871 27.9087 18.4056 28.0013H21.0146V17.6331L17.9521 16.8164Z" fill="#B34B1E"/>
<path d="M22.6553 21.9297H21.0146C19.8065 21.9297 18.8271 22.9091 18.8271 24.1172V25.8125C18.8271 27.0206 19.8065 28 21.0146 28H22.6553C23.8634 28 24.8428 27.0206 24.8428 25.8125V24.1172C24.8428 22.9091 23.8634 21.9297 22.6553 21.9297Z" fill="#B34B1E"/>
<path d="M7.99902 21.9297H6.3584C5.1503 21.9297 4.1709 22.9091 4.1709 24.1172V25.8125C4.1709 27.0206 5.1503 28 6.3584 28H7.99902C9.20713 28 10.1865 27.0206 10.1865 25.8125V24.1172C10.1865 22.9091 9.20713 21.9297 7.99902 21.9297Z" fill="#B34B1E"/>
<path d="M17.1318 12.6875H11.8818C11.4288 12.6875 11.0615 13.0548 11.0615 13.5078V17.7187L14.0421 19.926C14.1788 20.02 14.3409 20.0704 14.5068 20.0703C14.5068 20.0703 15.841 18.3299 15.981 18.2336L16.4905 15.9824L17.9521 13.5078C17.9521 13.0548 17.5849 12.6875 17.1318 12.6875Z" fill="#F6B900"/>
<path d="M17.1318 12.6875H14.5068V20.0703C14.6692 20.0703 14.8316 20.0222 14.9716 19.926L17.9521 17.7187V13.5078C17.9521 13.0548 17.5849 12.6875 17.1318 12.6875Z" fill="#F6B900"/>
<path d="M18.8818 6.17969H10.1318C9.6788 6.17969 9.31152 6.54697 9.31152 7V10.9375C9.31152 13.8022 11.6421 16.1328 14.5068 16.1328C14.5068 16.1328 16.6396 13.8022 16.6396 10.9375L19.7021 7C19.7021 6.54697 19.3349 6.17969 18.8818 6.17969Z" fill="#F6B900"/>
<path d="M18.8818 6.17969H14.5068V16.1328C17.3715 16.1328 19.7021 13.8022 19.7021 10.9375V7C19.7021 6.54697 19.3349 6.17969 18.8818 6.17969Z" fill="#F6B900"/>
<path d="M20.6318 0H12.3193C10.6608 0 9.31152 1.3493 9.31152 3.00781V3.9375C9.31152 4.39053 9.6788 4.75781 10.1318 4.75781H18.8818C19.016 4.75781 19.1482 4.7249 19.2667 4.66195C19.3559 4.61453 21.4521 3.47041 21.4521 0.820312C21.4521 0.367281 21.0849 0 20.6318 0Z" fill="#F6B900"/>
<path d="M19.7568 3.9375H9.25684C8.8038 3.9375 8.43652 4.30478 8.43652 4.75781V7C8.43652 7.45303 8.8038 7.82031 9.25684 7.82031H19.7568C20.2099 7.82031 20.5771 7.45303 20.5771 7V4.75781C20.5771 4.30478 20.2099 3.9375 19.7568 3.9375Z" fill="#B34B1E"/>
</g>
<defs>
<clipPath id="clip0_1_994">
<rect width="28" height="28" fill="white" transform="translate(0.5)"/>
</clipPath>
</defs>
</svg>
