<svg width="16" height="16" viewBox="0 0 16 16" fill="none" xmlns="http://www.w3.org/2000/svg">
<path d="M6.6224 9.37379C5.09522 7.84661 4.7504 6.31944 4.6726 5.70758C4.66188 5.62411 4.67051 5.53929 4.69782 5.45969C4.72514 5.38009 4.7704 5.30784 4.83012 5.24854L6.06598 4.01323C6.15426 3.92501 6.21002 3.80945 6.22415 3.68544C6.23828 3.56144 6.20995 3.4363 6.14378 3.33048L4.17605 0.275027C4.1033 0.158576 3.98974 0.0734361 3.85756 0.036247C3.72539 -0.00094201 3.58409 0.012492 3.46129 0.0739238L0.302396 1.56165C0.201919 1.61112 0.118989 1.69016 0.0647445 1.78815C0.0105002 1.88613 -0.01246 1.99837 -0.00105193 2.10979C0.164465 3.6822 0.849982 7.54758 4.6486 11.3465C8.44722 15.1454 12.3121 15.8306 13.8853 15.9961C13.9967 16.0075 14.1089 15.9846 14.2069 15.9303C14.3049 15.8761 14.384 15.7932 14.4334 15.6927L15.9212 12.5338C15.9824 12.4112 15.9958 12.2703 15.9588 12.1384C15.9219 12.0065 15.8371 11.893 15.7212 11.8201L12.6657 9.85296C12.5599 9.78672 12.4348 9.75829 12.3108 9.77232C12.1868 9.78635 12.0712 9.842 11.9829 9.9302L10.7476 11.1661C10.6274 11.2872 10.458 11.3454 10.2886 11.3236C9.67674 11.2458 8.14957 10.901 6.6224 9.37379Z" fill="#B34B1E"/>
<path d="M12.6867 8.55092C12.5404 8.55092 12.4 8.49279 12.2966 8.38932C12.1931 8.28585 12.135 8.14552 12.135 7.99919C12.1322 5.71505 10.2812 3.86402 7.99704 3.86126C7.85071 3.86126 7.71038 3.80313 7.60691 3.69966C7.50344 3.5962 7.44531 3.45586 7.44531 3.30954C7.44531 3.16321 7.50344 3.02288 7.60691 2.91941C7.71038 2.81594 7.85071 2.75781 7.99704 2.75781C10.8906 2.76112 13.2351 5.10567 13.2384 7.99919C13.2384 8.14552 13.1803 8.28585 13.0768 8.38932C12.9734 8.49279 12.833 8.55092 12.6867 8.55092Z" fill="#F6B900"/>
<path d="M15.4454 8.55172C15.2991 8.55172 15.1588 8.4936 15.0553 8.39013C14.9518 8.28666 14.8937 8.14633 14.8937 8C14.8896 4.1931 11.8041 1.10759 7.99716 1.10345C7.85083 1.10345 7.7105 1.04532 7.60703 0.941852C7.50356 0.838384 7.44543 0.69805 7.44543 0.551724C7.44543 0.405398 7.50356 0.265065 7.60703 0.161596C7.7105 0.0581279 7.85083 0 7.99716 0C12.4134 0.00496552 15.9922 3.58372 15.9972 8C15.9972 8.14633 15.939 8.28666 15.8356 8.39013C15.7321 8.4936 15.5918 8.55172 15.4454 8.55172Z" fill="#F6B900"/>
</svg>
