<svg width="16" height="16" viewBox="0 0 16 16" fill="none" xmlns="http://www.w3.org/2000/svg">
<g clip-path="url(#clip0_781_569)">
<path d="M12.6955 1.948C10.0982 -0.649291 5.90258 -0.649291 3.3386 1.948C0.741301 4.54528 0.741301 8.70759 3.3386 11.3049L8.0004 16L12.6622 11.3382C15.2595 8.7409 15.2595 4.54528 12.6955 1.948Z" fill="#B34B1E"/>
<path d="M11.1954 9.80474C9.43055 11.5696 6.60015 11.5696 4.83533 9.80474C3.07051 8.03993 3.07051 5.20955 4.83533 3.44473C6.60015 1.67992 9.43055 1.67992 11.1954 3.44473C12.9269 5.20955 12.9269 8.07324 11.1954 9.80474Z" fill="#F6B900"/>
<path d="M4.33594 6.71039L7.33282 7.30976L7.93219 10.3066L10.4629 4.17972L4.33594 6.71039Z" fill="#B34B1E"/>
</g>
<defs>
<clipPath id="clip0_781_569">
<rect width="16" height="15.9999" fill="white"/>
</clipPath>
</defs>
</svg>
