<svg width="32" height="32" viewBox="0 0 32 32" fill="none" xmlns="http://www.w3.org/2000/svg">
<path d="M16.536 24.7597C15.872 24.7533 15.8181 23.7714 16.4827 23.6957C17.3179 23.6119 18.1369 23.4089 18.9147 23.093C19.0455 23.0403 19.1919 23.0416 19.3218 23.0966C19.4517 23.1515 19.5545 23.2557 19.6078 23.3864C19.661 23.517 19.6604 23.6634 19.6059 23.7935C19.5515 23.9237 19.4477 24.0269 19.3173 24.0807C18.429 24.4436 17.4916 24.6724 16.536 24.7597ZM20.9771 23.0871C20.4821 23.1053 20.2427 22.4055 20.6624 22.1218C21.3369 21.6357 21.9253 21.0401 22.4032 20.3597C22.4422 20.2998 22.4928 20.2484 22.5521 20.2084C22.6113 20.1685 22.678 20.1409 22.7481 20.1272C22.8183 20.1136 22.8904 20.1141 22.9603 20.1289C23.0302 20.1436 23.0965 20.1723 23.1551 20.2132C23.2137 20.254 23.2635 20.3062 23.3016 20.3667C23.3396 20.4272 23.3651 20.4947 23.3766 20.5652C23.388 20.6357 23.3852 20.7078 23.3682 20.7772C23.3513 20.8467 23.3205 20.912 23.2779 20.9693C22.7325 21.7475 22.0606 22.4289 21.2901 22.9853C21.1991 23.0513 21.0895 23.0873 20.9771 23.0871ZM23.784 19.2941C23.4309 19.2994 23.1621 18.9367 23.2752 18.5997C23.4587 18.0205 23.5536 17.4141 23.5536 16.8066C23.5584 16.3501 23.3579 15.6823 23.9963 15.597C24.2949 15.5741 24.5515 15.7799 24.5819 16.0727C24.6827 17.0322 24.5835 18.0034 24.2923 18.9218C24.258 19.0297 24.1903 19.124 24.0989 19.1909C24.0075 19.2578 23.8973 19.2939 23.784 19.2941ZM23.52 14.6013C23.4144 14.6013 23.3111 14.5701 23.2233 14.5114C23.1355 14.4527 23.067 14.3693 23.0267 14.2717C22.7031 13.4983 22.2682 12.7764 21.736 12.1287C21.296 11.5895 22.1147 10.9127 22.56 11.4514C22.9771 11.9581 23.5669 12.7879 24.0123 13.8647C24.1621 14.205 23.8896 14.6087 23.52 14.6013ZM4.79894 14.1325C4.35627 14.1474 4.08961 13.5714 4.40001 13.245C5.01795 12.5536 5.70549 11.9277 6.45174 11.3773C7.01334 10.9645 7.64587 11.8167 7.08694 12.2349C6.39984 12.7414 5.76681 13.3174 5.19787 13.9538C5.14778 14.0102 5.08625 14.0553 5.01737 14.0861C4.9485 14.1169 4.87385 14.1327 4.79841 14.1325H4.79894ZM8.57654 11.2077C8.45713 11.2077 8.34117 11.1676 8.24722 11.0939C8.15328 11.0202 8.08678 10.9171 8.05838 10.8012C8.02999 10.6852 8.04133 10.563 8.09061 10.4543C8.13988 10.3455 8.22423 10.2564 8.33014 10.2013C9.15175 9.77322 10.0153 9.43114 10.9072 9.18046C11.5824 9.00286 11.8683 10.0066 11.1952 10.2077C10.2864 10.4103 9.45174 10.9143 8.57654 11.2077ZM20.3909 11.1437C19.5147 10.8589 18.6736 10.3815 17.7616 10.1837C17.0896 9.98953 17.3584 8.98152 18.0395 9.15326C18.932 9.39479 19.7988 9.72274 20.6277 10.1325C20.7358 10.1857 20.8227 10.274 20.8742 10.383C20.9257 10.4919 20.9388 10.6151 20.9113 10.7324C20.8838 10.8497 20.8174 10.9543 20.723 11.0291C20.6285 11.1039 20.5114 11.1439 20.3909 11.1437ZM13.1424 9.82473C13.0062 9.82427 12.8753 9.7717 12.7766 9.67779C12.6779 9.58388 12.6188 9.45575 12.6116 9.31971C12.6044 9.18366 12.6495 9.05 12.7377 8.94615C12.8259 8.84231 12.9504 8.77615 13.0859 8.76126C14.0071 8.6614 14.9362 8.65783 15.8581 8.75059C16.552 8.83433 16.4533 9.86632 15.7515 9.81192C14.8917 9.72232 14.0117 9.73566 13.1424 9.82473Z" fill="white"/>
<path d="M28.8 3.46484C28.096 3.46484 27.4309 3.68671 26.8779 4.10698C26.7445 4.20778 26.6667 4.36511 26.6667 4.53151V6.66484H3.2C1.4352 6.66484 0 8.10058 0 9.86484V25.8648C0 27.6302 1.4352 29.0648 3.2 29.0648H28.8C30.5648 29.0648 32 27.6302 32 25.8648V6.66484C32 4.90058 30.5648 3.46484 28.8 3.46484ZM28.8 27.9982H3.2C2.02347 27.9982 1.06667 27.0419 1.06667 25.8648V9.86484C1.06667 8.68831 2.02347 7.73151 3.2 7.73151H26.6667V23.7315C26.6533 24.1592 27.1893 24.4254 27.5227 24.1566C27.89 23.8781 28.339 23.7287 28.8 23.7315C31.6187 23.82 31.6192 27.9096 28.8 27.9982Z" fill="white"/>
<path d="M4.79948 10.9297C3.32908 10.9297 2.13281 12.1265 2.13281 13.5964C2.25815 17.126 7.34135 17.1249 7.46615 13.5964C7.46615 12.1265 6.26988 10.9297 4.79948 10.9297Z" fill="white"/>
<path d="M23.6759 4.5742L19.9426 2.9742C19.8709 2.94619 19.7945 2.93243 19.7175 2.93367C19.4354 2.93474 19.2002 3.18487 19.1991 3.4638V7.7854C16.0956 8.4766 16.5234 12.9961 19.7324 13.0643C22.942 12.995 23.3687 8.47607 20.2658 7.7854V7.01634L23.6759 5.555C24.0999 5.38967 24.0999 4.73847 23.6759 4.5742ZM19.9426 18.4409L16.2092 16.8409C16.1372 16.8127 16.0604 16.799 15.9831 16.8003C15.702 16.8019 15.4668 17.0515 15.4658 17.3305V21.6521C12.3623 22.3433 12.79 26.8627 15.9991 26.931C19.2087 26.8617 19.6354 22.3427 16.5324 21.6521V20.883L19.9426 19.4217C20.3666 19.2563 20.3666 18.6057 19.9426 18.4414V18.4409Z" fill="#F2BE22"/>
</svg>
  