<svg width="15" height="14" viewBox="0 0 15 14" fill="none" xmlns="http://www.w3.org/2000/svg">
<path d="M0.77771 13.6722L1.60995 10.623C1.0978 9.7313 0.827179 8.71684 0.827179 7.68191C0.827179 4.43681 3.45776 1.79688 6.68488 1.79688C8.25333 1.79688 9.72285 2.41081 10.8286 3.52175C11.9344 4.63269 12.5426 6.11198 12.5426 7.68484C12.5426 10.9299 9.912 13.5699 6.68488 13.5699H6.68197C5.70132 13.5699 4.73813 13.3214 3.88261 12.8536L0.77771 13.6722Z" fill="#284A0C"/>
<path d="M0.566772 13.8854L1.42811 10.728C0.898505 9.80418 0.616241 8.75464 0.619151 7.68171C0.619151 4.31967 3.34285 1.58618 6.68928 1.58618C8.31302 1.58618 9.83783 2.22058 10.9814 3.37245C12.1279 4.52432 12.7594 6.05624 12.7565 7.68464C12.7565 11.0467 10.0328 13.7802 6.68637 13.7802H6.68346C5.66789 13.7802 4.66978 13.5229 3.78225 13.0376L0.566772 13.8854ZM3.93357 11.9325L4.11689 12.0436C4.89094 12.5055 5.77847 12.7482 6.68346 12.7511H6.68637C9.46535 12.7511 11.7293 10.4795 11.7293 7.68464C11.7293 6.33105 11.2055 5.05932 10.2539 4.10041C9.3024 3.14149 8.03367 2.61526 6.68637 2.61526C3.90447 2.61526 1.64054 4.88683 1.64054 7.68171C1.64054 8.6377 1.90534 9.5703 2.41167 10.3772L2.53098 10.5701L2.02174 12.4383L3.93357 11.9325Z" fill="white"/>
<path d="M5.17138 5.12929C5.05789 4.87497 4.93859 4.86913 4.83092 4.8662C4.74362 4.86328 4.64177 4.86328 4.53992 4.86328C4.43808 4.86328 4.27512 4.90128 4.13544 5.05329C3.99577 5.20529 3.60583 5.57362 3.60583 6.32488C3.60583 7.07322 4.14999 7.79817 4.22565 7.90048C4.30131 8.00279 5.27614 9.59008 6.81549 10.201C8.09587 10.7097 8.35776 10.6074 8.6342 10.581C8.91356 10.5547 9.53046 10.2127 9.6585 9.85609C9.78363 9.49946 9.78363 9.19545 9.7458 9.13114C9.70797 9.06683 9.60612 9.02883 9.45481 8.95283C9.30349 8.87683 8.55855 8.5085 8.41887 8.45589C8.27919 8.40327 8.17734 8.37988 8.07841 8.53189C7.97656 8.68389 7.68556 9.02591 7.59827 9.12822C7.51097 9.23053 7.42076 9.24222 7.26944 9.16622C7.11813 9.09022 6.62926 8.92944 6.05018 8.40911C5.59914 8.00571 5.2936 7.50585 5.2063 7.35384C5.119 7.20184 5.19757 7.11999 5.27323 7.04398C5.34016 6.97675 5.42454 6.86567 5.5002 6.77797C5.57586 6.69028 5.60205 6.62597 5.65152 6.52365C5.70099 6.42134 5.67771 6.33365 5.63988 6.25764C5.60205 6.18164 5.30524 5.43038 5.17138 5.12929Z" fill="white"/>
<ellipse cx="12.6487" cy="1.85988" rx="1.85144" ry="1.85988" fill="#284A0C"/>
</svg>
