<svg width="32" height="32" viewBox="0 0 32 32" fill="none" xmlns="http://www.w3.org/2000/svg">
<g clip-path="url(#clip0_486_1042)">
<path d="M16 32C24.8366 32 32 24.8366 32 16C32 7.16344 24.8366 0 16 0C7.16344 0 0 7.16344 0 16C0 24.8366 7.16344 32 16 32Z" fill="#B34B1E"/>
<path d="M19.5468 16.0001L24.3418 11.2051C24.4712 11.0758 24.5739 10.9222 24.6439 10.7531C24.714 10.584 24.75 10.4028 24.75 10.2198C24.75 10.0368 24.714 9.85561 24.6439 9.68655C24.5739 9.51749 24.4712 9.36388 24.3418 9.23451L22.7655 7.65826C22.6361 7.52883 22.4825 7.42616 22.3135 7.35611C22.1444 7.28606 21.9632 7.25 21.7802 7.25C21.5972 7.25 21.416 7.28606 21.2469 7.35611C21.0779 7.42616 20.9243 7.52883 20.7949 7.65826L15.9999 12.4533L11.2049 7.65826C11.0755 7.52883 10.9219 7.42616 10.7529 7.35611C10.5838 7.28606 10.4026 7.25 10.2196 7.25C10.0366 7.25 9.85537 7.28606 9.68631 7.35611C9.51724 7.42616 9.36364 7.52883 9.23427 7.65826L7.65802 9.23451C7.52859 9.36388 7.42591 9.51749 7.35586 9.68655C7.28581 9.85561 7.24976 10.0368 7.24976 10.2198C7.24976 10.4028 7.28581 10.584 7.35586 10.7531C7.42591 10.9222 7.52859 11.0758 7.65802 11.2051L12.453 16.0001L7.65802 20.7951C7.52859 20.9245 7.42591 21.0781 7.35586 21.2472C7.28581 21.4162 7.24976 21.5974 7.24976 21.7804C7.24976 21.9634 7.28581 22.1447 7.35586 22.3137C7.42591 22.4828 7.52859 22.6364 7.65802 22.7658L9.23427 24.342C9.36364 24.4714 9.51724 24.5741 9.68631 24.6442C9.85537 24.7142 10.0366 24.7503 10.2196 24.7503C10.4026 24.7503 10.5838 24.7142 10.7529 24.6442C10.9219 24.5741 11.0755 24.4714 11.2049 24.342L15.9999 19.547L20.7949 24.342C20.9243 24.4714 21.0779 24.5741 21.2469 24.6442C21.416 24.7142 21.5972 24.7503 21.7802 24.7503C21.9632 24.7503 22.1444 24.7142 22.3135 24.6442C22.4825 24.5741 22.6361 24.4714 22.7655 24.342L24.3418 22.7658C24.4712 22.6364 24.5739 22.4828 24.6439 22.3137C24.714 22.1447 24.75 21.9634 24.75 21.7804C24.75 21.5974 24.714 21.4162 24.6439 21.2472C24.5739 21.0781 24.4712 20.9245 24.3418 20.7951L19.5468 16.0001Z" fill="white"/>
</g>
<defs>
<clipPath id="clip0_486_1042">
<rect width="32" height="32" fill="white"/>
</clipPath>
</defs>
</svg>
